%TF.GenerationSoftware,KiCad,Pcbnew,8.0.0*%
%TF.CreationDate,2024-09-29T18:30:28+09:00*%
%TF.ProjectId,tiny402_sounds_player_V2_0807_,74696e79-3430-4325-9f73-6f756e64735f,rev?*%
%TF.SameCoordinates,Original*%
%TF.FileFunction,Drillmap*%
%TF.FilePolarity,Positive*%
%FSLAX45Y45*%
G04 Gerber Fmt 4.5, Leading zero omitted, Abs format (unit mm)*
G04 Created by KiCad (PCBNEW 8.0.0) date 2024-09-29 18:30:28*
%MOMM*%
%LPD*%
G01*
G04 APERTURE LIST*
%ADD10C,0.050000*%
%ADD11C,0.200000*%
%ADD12C,0.100000*%
%ADD13C,0.110000*%
G04 APERTURE END LIST*
D10*
X10100000Y-10000000D02*
X14900000Y-10000000D01*
X15000000Y-9900000D02*
X15000000Y-6600000D01*
X14900000Y-10000000D02*
X15000000Y-9900000D01*
X10000000Y-9900000D02*
X10000000Y-6600000D01*
X15000000Y-6600000D02*
X14900000Y-6500000D01*
X10100000Y-6500000D02*
X14900000Y-6500000D01*
X10100000Y-10000000D02*
X10000000Y-9900000D01*
X10000000Y-6600000D02*
X10100000Y-6500000D01*
D11*
D12*
X10085000Y-7085000D02*
X10115000Y-7115000D01*
X10115000Y-7085000D02*
X10085000Y-7115000D01*
X10085000Y-7185000D02*
X10115000Y-7215000D01*
X10115000Y-7185000D02*
X10085000Y-7215000D01*
X10185000Y-6585000D02*
X10215000Y-6615000D01*
X10215000Y-6585000D02*
X10185000Y-6615000D01*
X10210000Y-8735000D02*
X10240000Y-8765000D01*
X10240000Y-8735000D02*
X10210000Y-8765000D01*
X10285000Y-6585000D02*
X10315000Y-6615000D01*
X10315000Y-6585000D02*
X10285000Y-6615000D01*
X10360000Y-8610000D02*
X10390000Y-8640000D01*
X10390000Y-8610000D02*
X10360000Y-8640000D01*
X11360000Y-7210000D02*
X11390000Y-7240000D01*
X11390000Y-7210000D02*
X11360000Y-7240000D01*
X11485000Y-6985000D02*
X11515000Y-7015000D01*
X11515000Y-6985000D02*
X11485000Y-7015000D01*
X11485000Y-7085000D02*
X11515000Y-7115000D01*
X11515000Y-7085000D02*
X11485000Y-7115000D01*
X11535000Y-7485000D02*
X11565000Y-7515000D01*
X11565000Y-7485000D02*
X11535000Y-7515000D01*
X11535000Y-7560000D02*
X11565000Y-7590000D01*
X11565000Y-7560000D02*
X11535000Y-7590000D01*
X11535000Y-8660000D02*
X11565000Y-8690000D01*
X11565000Y-8660000D02*
X11535000Y-8690000D01*
X11660000Y-7485000D02*
X11690000Y-7515000D01*
X11690000Y-7485000D02*
X11660000Y-7515000D01*
X11735000Y-8085000D02*
X11765000Y-8115000D01*
X11765000Y-8085000D02*
X11735000Y-8115000D01*
X12010000Y-7485000D02*
X12040000Y-7515000D01*
X12040000Y-7485000D02*
X12010000Y-7515000D01*
X12110000Y-7210000D02*
X12140000Y-7240000D01*
X12140000Y-7210000D02*
X12110000Y-7240000D01*
X12135000Y-7485000D02*
X12165000Y-7515000D01*
X12165000Y-7485000D02*
X12135000Y-7515000D01*
X12260000Y-9585000D02*
X12290000Y-9615000D01*
X12290000Y-9585000D02*
X12260000Y-9615000D01*
X12383750Y-9660000D02*
X12413750Y-9690000D01*
X12413750Y-9660000D02*
X12383750Y-9690000D01*
X12385000Y-9485000D02*
X12415000Y-9515000D01*
X12415000Y-9485000D02*
X12385000Y-9515000D01*
X12585000Y-8085000D02*
X12615000Y-8115000D01*
X12615000Y-8085000D02*
X12585000Y-8115000D01*
X12610000Y-7260000D02*
X12640000Y-7290000D01*
X12640000Y-7260000D02*
X12610000Y-7290000D01*
X12710000Y-6660000D02*
X12740000Y-6690000D01*
X12740000Y-6660000D02*
X12710000Y-6690000D01*
X12710000Y-7710000D02*
X12740000Y-7740000D01*
X12740000Y-7710000D02*
X12710000Y-7740000D01*
X12710000Y-8035000D02*
X12740000Y-8065000D01*
X12740000Y-8035000D02*
X12710000Y-8065000D01*
X12835000Y-8010000D02*
X12865000Y-8040000D01*
X12865000Y-8010000D02*
X12835000Y-8040000D01*
X12860000Y-8610000D02*
X12890000Y-8640000D01*
X12890000Y-8610000D02*
X12860000Y-8640000D01*
X12860000Y-8910000D02*
X12890000Y-8940000D01*
X12890000Y-8910000D02*
X12860000Y-8940000D01*
X12910000Y-9485000D02*
X12940000Y-9515000D01*
X12940000Y-9485000D02*
X12910000Y-9515000D01*
X13035000Y-9485000D02*
X13065000Y-9515000D01*
X13065000Y-9485000D02*
X13035000Y-9515000D01*
X13135000Y-8335000D02*
X13165000Y-8365000D01*
X13165000Y-8335000D02*
X13135000Y-8365000D01*
X13460000Y-8110000D02*
X13490000Y-8140000D01*
X13490000Y-8110000D02*
X13460000Y-8140000D01*
X13985000Y-8185000D02*
X14015000Y-8215000D01*
X14015000Y-8185000D02*
X13985000Y-8215000D01*
X13985000Y-8285000D02*
X14015000Y-8315000D01*
X14015000Y-8285000D02*
X13985000Y-8315000D01*
X14135000Y-7510000D02*
X14165000Y-7540000D01*
X14165000Y-7510000D02*
X14135000Y-7540000D01*
X14135000Y-7660000D02*
X14165000Y-7690000D01*
X14165000Y-7660000D02*
X14135000Y-7690000D01*
X14135000Y-8185000D02*
X14165000Y-8215000D01*
X14165000Y-8185000D02*
X14135000Y-8215000D01*
X14135000Y-8272255D02*
X14165000Y-8302255D01*
X14165000Y-8272255D02*
X14135000Y-8302255D01*
X14385000Y-7585000D02*
X14415000Y-7615000D01*
X14415000Y-7585000D02*
X14385000Y-7615000D01*
X14460000Y-9735000D02*
X14490000Y-9765000D01*
X14490000Y-9735000D02*
X14460000Y-9765000D01*
X14510000Y-9025000D02*
X14540000Y-9055000D01*
X14540000Y-9025000D02*
X14510000Y-9055000D01*
X14510000Y-9685000D02*
X14540000Y-9715000D01*
X14540000Y-9685000D02*
X14510000Y-9715000D01*
X14535000Y-8935000D02*
X14565000Y-8965000D01*
X14565000Y-8935000D02*
X14535000Y-8965000D01*
X14559375Y-9834375D02*
X14589375Y-9864375D01*
X14589375Y-9834375D02*
X14559375Y-9864375D01*
X14628750Y-8825000D02*
X14658750Y-8855000D01*
X14658750Y-8825000D02*
X14628750Y-8855000D01*
X14633750Y-9760000D02*
X14663750Y-9790000D01*
X14663750Y-9760000D02*
X14633750Y-9790000D01*
X14635000Y-8910000D02*
X14665000Y-8940000D01*
X14665000Y-8910000D02*
X14635000Y-8940000D01*
X10357500Y-7650000D02*
G75*
G02*
X10282500Y-7650000I-37500J0D01*
G01*
X10282500Y-7650000D02*
G75*
G02*
X10357500Y-7650000I37500J0D01*
G01*
X10357500Y-7850000D02*
G75*
G02*
X10282500Y-7850000I-37500J0D01*
G01*
X10282500Y-7850000D02*
G75*
G02*
X10357500Y-7850000I37500J0D01*
G01*
X10417500Y-8480000D02*
G75*
G02*
X10342500Y-8480000I-37500J0D01*
G01*
X10342500Y-8480000D02*
G75*
G02*
X10417500Y-8480000I37500J0D01*
G01*
X10437500Y-9750000D02*
G75*
G02*
X10362500Y-9750000I-37500J0D01*
G01*
X10362500Y-9750000D02*
G75*
G02*
X10437500Y-9750000I37500J0D01*
G01*
X10544500Y-8480000D02*
G75*
G02*
X10469500Y-8480000I-37500J0D01*
G01*
X10469500Y-8480000D02*
G75*
G02*
X10544500Y-8480000I37500J0D01*
G01*
X10637500Y-9750000D02*
G75*
G02*
X10562500Y-9750000I-37500J0D01*
G01*
X10562500Y-9750000D02*
G75*
G02*
X10637500Y-9750000I37500J0D01*
G01*
X10671500Y-8480000D02*
G75*
G02*
X10596500Y-8480000I-37500J0D01*
G01*
X10596500Y-8480000D02*
G75*
G02*
X10671500Y-8480000I37500J0D01*
G01*
X11235500Y-7764000D02*
G75*
G02*
X11160500Y-7764000I-37500J0D01*
G01*
X11160500Y-7764000D02*
G75*
G02*
X11235500Y-7764000I37500J0D01*
G01*
X11362500Y-7764000D02*
G75*
G02*
X11287500Y-7764000I-37500J0D01*
G01*
X11287500Y-7764000D02*
G75*
G02*
X11362500Y-7764000I37500J0D01*
G01*
X11387500Y-9755000D02*
G75*
G02*
X11312500Y-9755000I-37500J0D01*
G01*
X11312500Y-9755000D02*
G75*
G02*
X11387500Y-9755000I37500J0D01*
G01*
X11489500Y-7764000D02*
G75*
G02*
X11414500Y-7764000I-37500J0D01*
G01*
X11414500Y-7764000D02*
G75*
G02*
X11489500Y-7764000I37500J0D01*
G01*
X11587500Y-9755000D02*
G75*
G02*
X11512500Y-9755000I-37500J0D01*
G01*
X11512500Y-9755000D02*
G75*
G02*
X11587500Y-9755000I37500J0D01*
G01*
X14737500Y-8175000D02*
G75*
G02*
X14662500Y-8175000I-37500J0D01*
G01*
X14662500Y-8175000D02*
G75*
G02*
X14737500Y-8175000I37500J0D01*
G01*
X14737500Y-8375000D02*
G75*
G02*
X14662500Y-8375000I-37500J0D01*
G01*
X14662500Y-8375000D02*
G75*
G02*
X14737500Y-8375000I37500J0D01*
G01*
X10300000Y-6835000D02*
X10300000Y-6915000D01*
X10260000Y-6875000D02*
X10340000Y-6875000D01*
X10550000Y-6835000D02*
X10550000Y-6915000D01*
X10510000Y-6875000D02*
X10590000Y-6875000D01*
X12323750Y-8702000D02*
X12323750Y-8782000D01*
X12283750Y-8742000D02*
X12363750Y-8742000D01*
X12323750Y-9210000D02*
X12323750Y-9290000D01*
X12283750Y-9250000D02*
X12363750Y-9250000D01*
X12577750Y-8956000D02*
X12577750Y-9036000D01*
X12537750Y-8996000D02*
X12617750Y-8996000D01*
X12988000Y-6873000D02*
X12988000Y-6953000D01*
X12948000Y-6913000D02*
X13028000Y-6913000D01*
X12988000Y-7127000D02*
X12988000Y-7207000D01*
X12948000Y-7167000D02*
X13028000Y-7167000D01*
X12988000Y-7381000D02*
X12988000Y-7461000D01*
X12948000Y-7421000D02*
X13028000Y-7421000D01*
X12988000Y-7635000D02*
X12988000Y-7715000D01*
X12948000Y-7675000D02*
X13028000Y-7675000D01*
X13750000Y-6873000D02*
X13750000Y-6953000D01*
X13710000Y-6913000D02*
X13790000Y-6913000D01*
X13750000Y-7127000D02*
X13750000Y-7207000D01*
X13710000Y-7167000D02*
X13790000Y-7167000D01*
X13750000Y-7381000D02*
X13750000Y-7461000D01*
X13710000Y-7421000D02*
X13790000Y-7421000D01*
X13750000Y-7635000D02*
X13750000Y-7715000D01*
X13710000Y-7675000D02*
X13790000Y-7675000D01*
X14810356Y-6802356D02*
X14810356Y-6731644D01*
X14739644Y-6731644D01*
X14739644Y-6802356D01*
X14810356Y-6802356D01*
X14810356Y-7056356D02*
X14810356Y-6985644D01*
X14739644Y-6985644D01*
X14739644Y-7056356D01*
X14810356Y-7056356D01*
X14810356Y-7310356D02*
X14810356Y-7239644D01*
X14739644Y-7239644D01*
X14739644Y-7310356D01*
X14810356Y-7310356D01*
D13*
X11725000Y-6830000D02*
X11780000Y-6775000D01*
X11725000Y-6720000D01*
X11670000Y-6775000D01*
X11725000Y-6830000D01*
X11725000Y-7280000D02*
X11780000Y-7225000D01*
X11725000Y-7170000D01*
X11670000Y-7225000D01*
X11725000Y-7280000D01*
X12375000Y-6830000D02*
X12430000Y-6775000D01*
X12375000Y-6720000D01*
X12320000Y-6775000D01*
X12375000Y-6830000D01*
X12375000Y-7280000D02*
X12430000Y-7225000D01*
X12375000Y-7170000D01*
X12320000Y-7225000D01*
X12375000Y-7280000D01*
D11*
X10258277Y-10313984D02*
X10258277Y-10113984D01*
X10258277Y-10113984D02*
X10305896Y-10113984D01*
X10305896Y-10113984D02*
X10334467Y-10123508D01*
X10334467Y-10123508D02*
X10353515Y-10142555D01*
X10353515Y-10142555D02*
X10363039Y-10161603D01*
X10363039Y-10161603D02*
X10372563Y-10199698D01*
X10372563Y-10199698D02*
X10372563Y-10228270D01*
X10372563Y-10228270D02*
X10363039Y-10266365D01*
X10363039Y-10266365D02*
X10353515Y-10285412D01*
X10353515Y-10285412D02*
X10334467Y-10304460D01*
X10334467Y-10304460D02*
X10305896Y-10313984D01*
X10305896Y-10313984D02*
X10258277Y-10313984D01*
X10458277Y-10313984D02*
X10458277Y-10180650D01*
X10458277Y-10218746D02*
X10467801Y-10199698D01*
X10467801Y-10199698D02*
X10477324Y-10190174D01*
X10477324Y-10190174D02*
X10496372Y-10180650D01*
X10496372Y-10180650D02*
X10515420Y-10180650D01*
X10582086Y-10313984D02*
X10582086Y-10180650D01*
X10582086Y-10113984D02*
X10572563Y-10123508D01*
X10572563Y-10123508D02*
X10582086Y-10133031D01*
X10582086Y-10133031D02*
X10591610Y-10123508D01*
X10591610Y-10123508D02*
X10582086Y-10113984D01*
X10582086Y-10113984D02*
X10582086Y-10133031D01*
X10705896Y-10313984D02*
X10686848Y-10304460D01*
X10686848Y-10304460D02*
X10677324Y-10285412D01*
X10677324Y-10285412D02*
X10677324Y-10113984D01*
X10810658Y-10313984D02*
X10791610Y-10304460D01*
X10791610Y-10304460D02*
X10782086Y-10285412D01*
X10782086Y-10285412D02*
X10782086Y-10113984D01*
X11039229Y-10313984D02*
X11039229Y-10113984D01*
X11039229Y-10113984D02*
X11105896Y-10256841D01*
X11105896Y-10256841D02*
X11172563Y-10113984D01*
X11172563Y-10113984D02*
X11172563Y-10313984D01*
X11353515Y-10313984D02*
X11353515Y-10209222D01*
X11353515Y-10209222D02*
X11343991Y-10190174D01*
X11343991Y-10190174D02*
X11324943Y-10180650D01*
X11324943Y-10180650D02*
X11286848Y-10180650D01*
X11286848Y-10180650D02*
X11267801Y-10190174D01*
X11353515Y-10304460D02*
X11334467Y-10313984D01*
X11334467Y-10313984D02*
X11286848Y-10313984D01*
X11286848Y-10313984D02*
X11267801Y-10304460D01*
X11267801Y-10304460D02*
X11258277Y-10285412D01*
X11258277Y-10285412D02*
X11258277Y-10266365D01*
X11258277Y-10266365D02*
X11267801Y-10247317D01*
X11267801Y-10247317D02*
X11286848Y-10237793D01*
X11286848Y-10237793D02*
X11334467Y-10237793D01*
X11334467Y-10237793D02*
X11353515Y-10228270D01*
X11448753Y-10180650D02*
X11448753Y-10380650D01*
X11448753Y-10190174D02*
X11467801Y-10180650D01*
X11467801Y-10180650D02*
X11505896Y-10180650D01*
X11505896Y-10180650D02*
X11524943Y-10190174D01*
X11524943Y-10190174D02*
X11534467Y-10199698D01*
X11534467Y-10199698D02*
X11543991Y-10218746D01*
X11543991Y-10218746D02*
X11543991Y-10275889D01*
X11543991Y-10275889D02*
X11534467Y-10294936D01*
X11534467Y-10294936D02*
X11524943Y-10304460D01*
X11524943Y-10304460D02*
X11505896Y-10313984D01*
X11505896Y-10313984D02*
X11467801Y-10313984D01*
X11467801Y-10313984D02*
X11448753Y-10304460D01*
X11629705Y-10294936D02*
X11639229Y-10304460D01*
X11639229Y-10304460D02*
X11629705Y-10313984D01*
X11629705Y-10313984D02*
X11620182Y-10304460D01*
X11620182Y-10304460D02*
X11629705Y-10294936D01*
X11629705Y-10294936D02*
X11629705Y-10313984D01*
X11629705Y-10190174D02*
X11639229Y-10199698D01*
X11639229Y-10199698D02*
X11629705Y-10209222D01*
X11629705Y-10209222D02*
X11620182Y-10199698D01*
X11620182Y-10199698D02*
X11629705Y-10190174D01*
X11629705Y-10190174D02*
X11629705Y-10209222D01*
D12*
X9967500Y-10627500D02*
X9997500Y-10657500D01*
X9997500Y-10627500D02*
X9967500Y-10657500D01*
D11*
X10296372Y-10533984D02*
X10315420Y-10533984D01*
X10315420Y-10533984D02*
X10334467Y-10543508D01*
X10334467Y-10543508D02*
X10343991Y-10553031D01*
X10343991Y-10553031D02*
X10353515Y-10572079D01*
X10353515Y-10572079D02*
X10363039Y-10610174D01*
X10363039Y-10610174D02*
X10363039Y-10657793D01*
X10363039Y-10657793D02*
X10353515Y-10695889D01*
X10353515Y-10695889D02*
X10343991Y-10714936D01*
X10343991Y-10714936D02*
X10334467Y-10724460D01*
X10334467Y-10724460D02*
X10315420Y-10733984D01*
X10315420Y-10733984D02*
X10296372Y-10733984D01*
X10296372Y-10733984D02*
X10277324Y-10724460D01*
X10277324Y-10724460D02*
X10267801Y-10714936D01*
X10267801Y-10714936D02*
X10258277Y-10695889D01*
X10258277Y-10695889D02*
X10248753Y-10657793D01*
X10248753Y-10657793D02*
X10248753Y-10610174D01*
X10248753Y-10610174D02*
X10258277Y-10572079D01*
X10258277Y-10572079D02*
X10267801Y-10553031D01*
X10267801Y-10553031D02*
X10277324Y-10543508D01*
X10277324Y-10543508D02*
X10296372Y-10533984D01*
X10448753Y-10714936D02*
X10458277Y-10724460D01*
X10458277Y-10724460D02*
X10448753Y-10733984D01*
X10448753Y-10733984D02*
X10439229Y-10724460D01*
X10439229Y-10724460D02*
X10448753Y-10714936D01*
X10448753Y-10714936D02*
X10448753Y-10733984D01*
X10524944Y-10533984D02*
X10648753Y-10533984D01*
X10648753Y-10533984D02*
X10582086Y-10610174D01*
X10582086Y-10610174D02*
X10610658Y-10610174D01*
X10610658Y-10610174D02*
X10629705Y-10619698D01*
X10629705Y-10619698D02*
X10639229Y-10629222D01*
X10639229Y-10629222D02*
X10648753Y-10648270D01*
X10648753Y-10648270D02*
X10648753Y-10695889D01*
X10648753Y-10695889D02*
X10639229Y-10714936D01*
X10639229Y-10714936D02*
X10629705Y-10724460D01*
X10629705Y-10724460D02*
X10610658Y-10733984D01*
X10610658Y-10733984D02*
X10553515Y-10733984D01*
X10553515Y-10733984D02*
X10534467Y-10724460D01*
X10534467Y-10724460D02*
X10524944Y-10714936D01*
X10772563Y-10533984D02*
X10791610Y-10533984D01*
X10791610Y-10533984D02*
X10810658Y-10543508D01*
X10810658Y-10543508D02*
X10820182Y-10553031D01*
X10820182Y-10553031D02*
X10829705Y-10572079D01*
X10829705Y-10572079D02*
X10839229Y-10610174D01*
X10839229Y-10610174D02*
X10839229Y-10657793D01*
X10839229Y-10657793D02*
X10829705Y-10695889D01*
X10829705Y-10695889D02*
X10820182Y-10714936D01*
X10820182Y-10714936D02*
X10810658Y-10724460D01*
X10810658Y-10724460D02*
X10791610Y-10733984D01*
X10791610Y-10733984D02*
X10772563Y-10733984D01*
X10772563Y-10733984D02*
X10753515Y-10724460D01*
X10753515Y-10724460D02*
X10743991Y-10714936D01*
X10743991Y-10714936D02*
X10734467Y-10695889D01*
X10734467Y-10695889D02*
X10724944Y-10657793D01*
X10724944Y-10657793D02*
X10724944Y-10610174D01*
X10724944Y-10610174D02*
X10734467Y-10572079D01*
X10734467Y-10572079D02*
X10743991Y-10553031D01*
X10743991Y-10553031D02*
X10753515Y-10543508D01*
X10753515Y-10543508D02*
X10772563Y-10533984D01*
X10963039Y-10533984D02*
X10982086Y-10533984D01*
X10982086Y-10533984D02*
X11001134Y-10543508D01*
X11001134Y-10543508D02*
X11010658Y-10553031D01*
X11010658Y-10553031D02*
X11020182Y-10572079D01*
X11020182Y-10572079D02*
X11029705Y-10610174D01*
X11029705Y-10610174D02*
X11029705Y-10657793D01*
X11029705Y-10657793D02*
X11020182Y-10695889D01*
X11020182Y-10695889D02*
X11010658Y-10714936D01*
X11010658Y-10714936D02*
X11001134Y-10724460D01*
X11001134Y-10724460D02*
X10982086Y-10733984D01*
X10982086Y-10733984D02*
X10963039Y-10733984D01*
X10963039Y-10733984D02*
X10943991Y-10724460D01*
X10943991Y-10724460D02*
X10934467Y-10714936D01*
X10934467Y-10714936D02*
X10924944Y-10695889D01*
X10924944Y-10695889D02*
X10915420Y-10657793D01*
X10915420Y-10657793D02*
X10915420Y-10610174D01*
X10915420Y-10610174D02*
X10924944Y-10572079D01*
X10924944Y-10572079D02*
X10934467Y-10553031D01*
X10934467Y-10553031D02*
X10943991Y-10543508D01*
X10943991Y-10543508D02*
X10963039Y-10533984D01*
X11115420Y-10733984D02*
X11115420Y-10600650D01*
X11115420Y-10619698D02*
X11124944Y-10610174D01*
X11124944Y-10610174D02*
X11143991Y-10600650D01*
X11143991Y-10600650D02*
X11172563Y-10600650D01*
X11172563Y-10600650D02*
X11191610Y-10610174D01*
X11191610Y-10610174D02*
X11201134Y-10629222D01*
X11201134Y-10629222D02*
X11201134Y-10733984D01*
X11201134Y-10629222D02*
X11210658Y-10610174D01*
X11210658Y-10610174D02*
X11229705Y-10600650D01*
X11229705Y-10600650D02*
X11258277Y-10600650D01*
X11258277Y-10600650D02*
X11277324Y-10610174D01*
X11277324Y-10610174D02*
X11286848Y-10629222D01*
X11286848Y-10629222D02*
X11286848Y-10733984D01*
X11382086Y-10733984D02*
X11382086Y-10600650D01*
X11382086Y-10619698D02*
X11391610Y-10610174D01*
X11391610Y-10610174D02*
X11410658Y-10600650D01*
X11410658Y-10600650D02*
X11439229Y-10600650D01*
X11439229Y-10600650D02*
X11458277Y-10610174D01*
X11458277Y-10610174D02*
X11467801Y-10629222D01*
X11467801Y-10629222D02*
X11467801Y-10733984D01*
X11467801Y-10629222D02*
X11477324Y-10610174D01*
X11477324Y-10610174D02*
X11496372Y-10600650D01*
X11496372Y-10600650D02*
X11524943Y-10600650D01*
X11524943Y-10600650D02*
X11543991Y-10610174D01*
X11543991Y-10610174D02*
X11553515Y-10629222D01*
X11553515Y-10629222D02*
X11553515Y-10733984D01*
X11943991Y-10524460D02*
X11772563Y-10781603D01*
X12201134Y-10533984D02*
X12220182Y-10533984D01*
X12220182Y-10533984D02*
X12239229Y-10543508D01*
X12239229Y-10543508D02*
X12248753Y-10553031D01*
X12248753Y-10553031D02*
X12258277Y-10572079D01*
X12258277Y-10572079D02*
X12267801Y-10610174D01*
X12267801Y-10610174D02*
X12267801Y-10657793D01*
X12267801Y-10657793D02*
X12258277Y-10695889D01*
X12258277Y-10695889D02*
X12248753Y-10714936D01*
X12248753Y-10714936D02*
X12239229Y-10724460D01*
X12239229Y-10724460D02*
X12220182Y-10733984D01*
X12220182Y-10733984D02*
X12201134Y-10733984D01*
X12201134Y-10733984D02*
X12182086Y-10724460D01*
X12182086Y-10724460D02*
X12172563Y-10714936D01*
X12172563Y-10714936D02*
X12163039Y-10695889D01*
X12163039Y-10695889D02*
X12153515Y-10657793D01*
X12153515Y-10657793D02*
X12153515Y-10610174D01*
X12153515Y-10610174D02*
X12163039Y-10572079D01*
X12163039Y-10572079D02*
X12172563Y-10553031D01*
X12172563Y-10553031D02*
X12182086Y-10543508D01*
X12182086Y-10543508D02*
X12201134Y-10533984D01*
X12353515Y-10714936D02*
X12363039Y-10724460D01*
X12363039Y-10724460D02*
X12353515Y-10733984D01*
X12353515Y-10733984D02*
X12343991Y-10724460D01*
X12343991Y-10724460D02*
X12353515Y-10714936D01*
X12353515Y-10714936D02*
X12353515Y-10733984D01*
X12486848Y-10533984D02*
X12505896Y-10533984D01*
X12505896Y-10533984D02*
X12524944Y-10543508D01*
X12524944Y-10543508D02*
X12534467Y-10553031D01*
X12534467Y-10553031D02*
X12543991Y-10572079D01*
X12543991Y-10572079D02*
X12553515Y-10610174D01*
X12553515Y-10610174D02*
X12553515Y-10657793D01*
X12553515Y-10657793D02*
X12543991Y-10695889D01*
X12543991Y-10695889D02*
X12534467Y-10714936D01*
X12534467Y-10714936D02*
X12524944Y-10724460D01*
X12524944Y-10724460D02*
X12505896Y-10733984D01*
X12505896Y-10733984D02*
X12486848Y-10733984D01*
X12486848Y-10733984D02*
X12467801Y-10724460D01*
X12467801Y-10724460D02*
X12458277Y-10714936D01*
X12458277Y-10714936D02*
X12448753Y-10695889D01*
X12448753Y-10695889D02*
X12439229Y-10657793D01*
X12439229Y-10657793D02*
X12439229Y-10610174D01*
X12439229Y-10610174D02*
X12448753Y-10572079D01*
X12448753Y-10572079D02*
X12458277Y-10553031D01*
X12458277Y-10553031D02*
X12467801Y-10543508D01*
X12467801Y-10543508D02*
X12486848Y-10533984D01*
X12743991Y-10733984D02*
X12629706Y-10733984D01*
X12686848Y-10733984D02*
X12686848Y-10533984D01*
X12686848Y-10533984D02*
X12667801Y-10562555D01*
X12667801Y-10562555D02*
X12648753Y-10581603D01*
X12648753Y-10581603D02*
X12629706Y-10591127D01*
X12934467Y-10733984D02*
X12820182Y-10733984D01*
X12877325Y-10733984D02*
X12877325Y-10533984D01*
X12877325Y-10533984D02*
X12858277Y-10562555D01*
X12858277Y-10562555D02*
X12839229Y-10581603D01*
X12839229Y-10581603D02*
X12820182Y-10591127D01*
X13048753Y-10619698D02*
X13029706Y-10610174D01*
X13029706Y-10610174D02*
X13020182Y-10600650D01*
X13020182Y-10600650D02*
X13010658Y-10581603D01*
X13010658Y-10581603D02*
X13010658Y-10572079D01*
X13010658Y-10572079D02*
X13020182Y-10553031D01*
X13020182Y-10553031D02*
X13029706Y-10543508D01*
X13029706Y-10543508D02*
X13048753Y-10533984D01*
X13048753Y-10533984D02*
X13086848Y-10533984D01*
X13086848Y-10533984D02*
X13105896Y-10543508D01*
X13105896Y-10543508D02*
X13115420Y-10553031D01*
X13115420Y-10553031D02*
X13124944Y-10572079D01*
X13124944Y-10572079D02*
X13124944Y-10581603D01*
X13124944Y-10581603D02*
X13115420Y-10600650D01*
X13115420Y-10600650D02*
X13105896Y-10610174D01*
X13105896Y-10610174D02*
X13086848Y-10619698D01*
X13086848Y-10619698D02*
X13048753Y-10619698D01*
X13048753Y-10619698D02*
X13029706Y-10629222D01*
X13029706Y-10629222D02*
X13020182Y-10638746D01*
X13020182Y-10638746D02*
X13010658Y-10657793D01*
X13010658Y-10657793D02*
X13010658Y-10695889D01*
X13010658Y-10695889D02*
X13020182Y-10714936D01*
X13020182Y-10714936D02*
X13029706Y-10724460D01*
X13029706Y-10724460D02*
X13048753Y-10733984D01*
X13048753Y-10733984D02*
X13086848Y-10733984D01*
X13086848Y-10733984D02*
X13105896Y-10724460D01*
X13105896Y-10724460D02*
X13115420Y-10714936D01*
X13115420Y-10714936D02*
X13124944Y-10695889D01*
X13124944Y-10695889D02*
X13124944Y-10657793D01*
X13124944Y-10657793D02*
X13115420Y-10638746D01*
X13115420Y-10638746D02*
X13105896Y-10629222D01*
X13105896Y-10629222D02*
X13086848Y-10619698D01*
X13201134Y-10533984D02*
X13201134Y-10572079D01*
X13277325Y-10533984D02*
X13277325Y-10572079D01*
X13572563Y-10810174D02*
X13563039Y-10800650D01*
X13563039Y-10800650D02*
X13543991Y-10772079D01*
X13543991Y-10772079D02*
X13534468Y-10753031D01*
X13534468Y-10753031D02*
X13524944Y-10724460D01*
X13524944Y-10724460D02*
X13515420Y-10676841D01*
X13515420Y-10676841D02*
X13515420Y-10638746D01*
X13515420Y-10638746D02*
X13524944Y-10591127D01*
X13524944Y-10591127D02*
X13534468Y-10562555D01*
X13534468Y-10562555D02*
X13543991Y-10543508D01*
X13543991Y-10543508D02*
X13563039Y-10514936D01*
X13563039Y-10514936D02*
X13572563Y-10505412D01*
X13734468Y-10600650D02*
X13734468Y-10733984D01*
X13686848Y-10524460D02*
X13639229Y-10667317D01*
X13639229Y-10667317D02*
X13763039Y-10667317D01*
X13820182Y-10533984D02*
X13953515Y-10533984D01*
X13953515Y-10533984D02*
X13867801Y-10733984D01*
X14182087Y-10733984D02*
X14182087Y-10533984D01*
X14267801Y-10733984D02*
X14267801Y-10629222D01*
X14267801Y-10629222D02*
X14258277Y-10610174D01*
X14258277Y-10610174D02*
X14239230Y-10600650D01*
X14239230Y-10600650D02*
X14210658Y-10600650D01*
X14210658Y-10600650D02*
X14191610Y-10610174D01*
X14191610Y-10610174D02*
X14182087Y-10619698D01*
X14391610Y-10733984D02*
X14372563Y-10724460D01*
X14372563Y-10724460D02*
X14363039Y-10714936D01*
X14363039Y-10714936D02*
X14353515Y-10695889D01*
X14353515Y-10695889D02*
X14353515Y-10638746D01*
X14353515Y-10638746D02*
X14363039Y-10619698D01*
X14363039Y-10619698D02*
X14372563Y-10610174D01*
X14372563Y-10610174D02*
X14391610Y-10600650D01*
X14391610Y-10600650D02*
X14420182Y-10600650D01*
X14420182Y-10600650D02*
X14439230Y-10610174D01*
X14439230Y-10610174D02*
X14448753Y-10619698D01*
X14448753Y-10619698D02*
X14458277Y-10638746D01*
X14458277Y-10638746D02*
X14458277Y-10695889D01*
X14458277Y-10695889D02*
X14448753Y-10714936D01*
X14448753Y-10714936D02*
X14439230Y-10724460D01*
X14439230Y-10724460D02*
X14420182Y-10733984D01*
X14420182Y-10733984D02*
X14391610Y-10733984D01*
X14572563Y-10733984D02*
X14553515Y-10724460D01*
X14553515Y-10724460D02*
X14543991Y-10705412D01*
X14543991Y-10705412D02*
X14543991Y-10533984D01*
X14724944Y-10724460D02*
X14705896Y-10733984D01*
X14705896Y-10733984D02*
X14667801Y-10733984D01*
X14667801Y-10733984D02*
X14648753Y-10724460D01*
X14648753Y-10724460D02*
X14639230Y-10705412D01*
X14639230Y-10705412D02*
X14639230Y-10629222D01*
X14639230Y-10629222D02*
X14648753Y-10610174D01*
X14648753Y-10610174D02*
X14667801Y-10600650D01*
X14667801Y-10600650D02*
X14705896Y-10600650D01*
X14705896Y-10600650D02*
X14724944Y-10610174D01*
X14724944Y-10610174D02*
X14734468Y-10629222D01*
X14734468Y-10629222D02*
X14734468Y-10648270D01*
X14734468Y-10648270D02*
X14639230Y-10667317D01*
X14810658Y-10724460D02*
X14829706Y-10733984D01*
X14829706Y-10733984D02*
X14867801Y-10733984D01*
X14867801Y-10733984D02*
X14886849Y-10724460D01*
X14886849Y-10724460D02*
X14896372Y-10705412D01*
X14896372Y-10705412D02*
X14896372Y-10695889D01*
X14896372Y-10695889D02*
X14886849Y-10676841D01*
X14886849Y-10676841D02*
X14867801Y-10667317D01*
X14867801Y-10667317D02*
X14839230Y-10667317D01*
X14839230Y-10667317D02*
X14820182Y-10657793D01*
X14820182Y-10657793D02*
X14810658Y-10638746D01*
X14810658Y-10638746D02*
X14810658Y-10629222D01*
X14810658Y-10629222D02*
X14820182Y-10610174D01*
X14820182Y-10610174D02*
X14839230Y-10600650D01*
X14839230Y-10600650D02*
X14867801Y-10600650D01*
X14867801Y-10600650D02*
X14886849Y-10610174D01*
X14963039Y-10810174D02*
X14972563Y-10800650D01*
X14972563Y-10800650D02*
X14991611Y-10772079D01*
X14991611Y-10772079D02*
X15001134Y-10753031D01*
X15001134Y-10753031D02*
X15010658Y-10724460D01*
X15010658Y-10724460D02*
X15020182Y-10676841D01*
X15020182Y-10676841D02*
X15020182Y-10638746D01*
X15020182Y-10638746D02*
X15010658Y-10591127D01*
X15010658Y-10591127D02*
X15001134Y-10562555D01*
X15001134Y-10562555D02*
X14991611Y-10543508D01*
X14991611Y-10543508D02*
X14972563Y-10514936D01*
X14972563Y-10514936D02*
X14963039Y-10505412D01*
D12*
X9997500Y-10906500D02*
G75*
G02*
X9922500Y-10906500I-37500J0D01*
G01*
X9922500Y-10906500D02*
G75*
G02*
X9997500Y-10906500I37500J0D01*
G01*
D11*
X10296372Y-10797984D02*
X10315420Y-10797984D01*
X10315420Y-10797984D02*
X10334467Y-10807508D01*
X10334467Y-10807508D02*
X10343991Y-10817031D01*
X10343991Y-10817031D02*
X10353515Y-10836079D01*
X10353515Y-10836079D02*
X10363039Y-10874174D01*
X10363039Y-10874174D02*
X10363039Y-10921793D01*
X10363039Y-10921793D02*
X10353515Y-10959889D01*
X10353515Y-10959889D02*
X10343991Y-10978936D01*
X10343991Y-10978936D02*
X10334467Y-10988460D01*
X10334467Y-10988460D02*
X10315420Y-10997984D01*
X10315420Y-10997984D02*
X10296372Y-10997984D01*
X10296372Y-10997984D02*
X10277324Y-10988460D01*
X10277324Y-10988460D02*
X10267801Y-10978936D01*
X10267801Y-10978936D02*
X10258277Y-10959889D01*
X10258277Y-10959889D02*
X10248753Y-10921793D01*
X10248753Y-10921793D02*
X10248753Y-10874174D01*
X10248753Y-10874174D02*
X10258277Y-10836079D01*
X10258277Y-10836079D02*
X10267801Y-10817031D01*
X10267801Y-10817031D02*
X10277324Y-10807508D01*
X10277324Y-10807508D02*
X10296372Y-10797984D01*
X10448753Y-10978936D02*
X10458277Y-10988460D01*
X10458277Y-10988460D02*
X10448753Y-10997984D01*
X10448753Y-10997984D02*
X10439229Y-10988460D01*
X10439229Y-10988460D02*
X10448753Y-10978936D01*
X10448753Y-10978936D02*
X10448753Y-10997984D01*
X10524944Y-10797984D02*
X10658277Y-10797984D01*
X10658277Y-10797984D02*
X10572563Y-10997984D01*
X10829705Y-10797984D02*
X10734467Y-10797984D01*
X10734467Y-10797984D02*
X10724944Y-10893222D01*
X10724944Y-10893222D02*
X10734467Y-10883698D01*
X10734467Y-10883698D02*
X10753515Y-10874174D01*
X10753515Y-10874174D02*
X10801134Y-10874174D01*
X10801134Y-10874174D02*
X10820182Y-10883698D01*
X10820182Y-10883698D02*
X10829705Y-10893222D01*
X10829705Y-10893222D02*
X10839229Y-10912270D01*
X10839229Y-10912270D02*
X10839229Y-10959889D01*
X10839229Y-10959889D02*
X10829705Y-10978936D01*
X10829705Y-10978936D02*
X10820182Y-10988460D01*
X10820182Y-10988460D02*
X10801134Y-10997984D01*
X10801134Y-10997984D02*
X10753515Y-10997984D01*
X10753515Y-10997984D02*
X10734467Y-10988460D01*
X10734467Y-10988460D02*
X10724944Y-10978936D01*
X10963039Y-10797984D02*
X10982086Y-10797984D01*
X10982086Y-10797984D02*
X11001134Y-10807508D01*
X11001134Y-10807508D02*
X11010658Y-10817031D01*
X11010658Y-10817031D02*
X11020182Y-10836079D01*
X11020182Y-10836079D02*
X11029705Y-10874174D01*
X11029705Y-10874174D02*
X11029705Y-10921793D01*
X11029705Y-10921793D02*
X11020182Y-10959889D01*
X11020182Y-10959889D02*
X11010658Y-10978936D01*
X11010658Y-10978936D02*
X11001134Y-10988460D01*
X11001134Y-10988460D02*
X10982086Y-10997984D01*
X10982086Y-10997984D02*
X10963039Y-10997984D01*
X10963039Y-10997984D02*
X10943991Y-10988460D01*
X10943991Y-10988460D02*
X10934467Y-10978936D01*
X10934467Y-10978936D02*
X10924944Y-10959889D01*
X10924944Y-10959889D02*
X10915420Y-10921793D01*
X10915420Y-10921793D02*
X10915420Y-10874174D01*
X10915420Y-10874174D02*
X10924944Y-10836079D01*
X10924944Y-10836079D02*
X10934467Y-10817031D01*
X10934467Y-10817031D02*
X10943991Y-10807508D01*
X10943991Y-10807508D02*
X10963039Y-10797984D01*
X11115420Y-10997984D02*
X11115420Y-10864650D01*
X11115420Y-10883698D02*
X11124944Y-10874174D01*
X11124944Y-10874174D02*
X11143991Y-10864650D01*
X11143991Y-10864650D02*
X11172563Y-10864650D01*
X11172563Y-10864650D02*
X11191610Y-10874174D01*
X11191610Y-10874174D02*
X11201134Y-10893222D01*
X11201134Y-10893222D02*
X11201134Y-10997984D01*
X11201134Y-10893222D02*
X11210658Y-10874174D01*
X11210658Y-10874174D02*
X11229705Y-10864650D01*
X11229705Y-10864650D02*
X11258277Y-10864650D01*
X11258277Y-10864650D02*
X11277324Y-10874174D01*
X11277324Y-10874174D02*
X11286848Y-10893222D01*
X11286848Y-10893222D02*
X11286848Y-10997984D01*
X11382086Y-10997984D02*
X11382086Y-10864650D01*
X11382086Y-10883698D02*
X11391610Y-10874174D01*
X11391610Y-10874174D02*
X11410658Y-10864650D01*
X11410658Y-10864650D02*
X11439229Y-10864650D01*
X11439229Y-10864650D02*
X11458277Y-10874174D01*
X11458277Y-10874174D02*
X11467801Y-10893222D01*
X11467801Y-10893222D02*
X11467801Y-10997984D01*
X11467801Y-10893222D02*
X11477324Y-10874174D01*
X11477324Y-10874174D02*
X11496372Y-10864650D01*
X11496372Y-10864650D02*
X11524943Y-10864650D01*
X11524943Y-10864650D02*
X11543991Y-10874174D01*
X11543991Y-10874174D02*
X11553515Y-10893222D01*
X11553515Y-10893222D02*
X11553515Y-10997984D01*
X11943991Y-10788460D02*
X11772563Y-11045603D01*
X12201134Y-10797984D02*
X12220182Y-10797984D01*
X12220182Y-10797984D02*
X12239229Y-10807508D01*
X12239229Y-10807508D02*
X12248753Y-10817031D01*
X12248753Y-10817031D02*
X12258277Y-10836079D01*
X12258277Y-10836079D02*
X12267801Y-10874174D01*
X12267801Y-10874174D02*
X12267801Y-10921793D01*
X12267801Y-10921793D02*
X12258277Y-10959889D01*
X12258277Y-10959889D02*
X12248753Y-10978936D01*
X12248753Y-10978936D02*
X12239229Y-10988460D01*
X12239229Y-10988460D02*
X12220182Y-10997984D01*
X12220182Y-10997984D02*
X12201134Y-10997984D01*
X12201134Y-10997984D02*
X12182086Y-10988460D01*
X12182086Y-10988460D02*
X12172563Y-10978936D01*
X12172563Y-10978936D02*
X12163039Y-10959889D01*
X12163039Y-10959889D02*
X12153515Y-10921793D01*
X12153515Y-10921793D02*
X12153515Y-10874174D01*
X12153515Y-10874174D02*
X12163039Y-10836079D01*
X12163039Y-10836079D02*
X12172563Y-10817031D01*
X12172563Y-10817031D02*
X12182086Y-10807508D01*
X12182086Y-10807508D02*
X12201134Y-10797984D01*
X12353515Y-10978936D02*
X12363039Y-10988460D01*
X12363039Y-10988460D02*
X12353515Y-10997984D01*
X12353515Y-10997984D02*
X12343991Y-10988460D01*
X12343991Y-10988460D02*
X12353515Y-10978936D01*
X12353515Y-10978936D02*
X12353515Y-10997984D01*
X12486848Y-10797984D02*
X12505896Y-10797984D01*
X12505896Y-10797984D02*
X12524944Y-10807508D01*
X12524944Y-10807508D02*
X12534467Y-10817031D01*
X12534467Y-10817031D02*
X12543991Y-10836079D01*
X12543991Y-10836079D02*
X12553515Y-10874174D01*
X12553515Y-10874174D02*
X12553515Y-10921793D01*
X12553515Y-10921793D02*
X12543991Y-10959889D01*
X12543991Y-10959889D02*
X12534467Y-10978936D01*
X12534467Y-10978936D02*
X12524944Y-10988460D01*
X12524944Y-10988460D02*
X12505896Y-10997984D01*
X12505896Y-10997984D02*
X12486848Y-10997984D01*
X12486848Y-10997984D02*
X12467801Y-10988460D01*
X12467801Y-10988460D02*
X12458277Y-10978936D01*
X12458277Y-10978936D02*
X12448753Y-10959889D01*
X12448753Y-10959889D02*
X12439229Y-10921793D01*
X12439229Y-10921793D02*
X12439229Y-10874174D01*
X12439229Y-10874174D02*
X12448753Y-10836079D01*
X12448753Y-10836079D02*
X12458277Y-10817031D01*
X12458277Y-10817031D02*
X12467801Y-10807508D01*
X12467801Y-10807508D02*
X12486848Y-10797984D01*
X12629706Y-10817031D02*
X12639229Y-10807508D01*
X12639229Y-10807508D02*
X12658277Y-10797984D01*
X12658277Y-10797984D02*
X12705896Y-10797984D01*
X12705896Y-10797984D02*
X12724944Y-10807508D01*
X12724944Y-10807508D02*
X12734467Y-10817031D01*
X12734467Y-10817031D02*
X12743991Y-10836079D01*
X12743991Y-10836079D02*
X12743991Y-10855127D01*
X12743991Y-10855127D02*
X12734467Y-10883698D01*
X12734467Y-10883698D02*
X12620182Y-10997984D01*
X12620182Y-10997984D02*
X12743991Y-10997984D01*
X12839229Y-10997984D02*
X12877325Y-10997984D01*
X12877325Y-10997984D02*
X12896372Y-10988460D01*
X12896372Y-10988460D02*
X12905896Y-10978936D01*
X12905896Y-10978936D02*
X12924944Y-10950365D01*
X12924944Y-10950365D02*
X12934467Y-10912270D01*
X12934467Y-10912270D02*
X12934467Y-10836079D01*
X12934467Y-10836079D02*
X12924944Y-10817031D01*
X12924944Y-10817031D02*
X12915420Y-10807508D01*
X12915420Y-10807508D02*
X12896372Y-10797984D01*
X12896372Y-10797984D02*
X12858277Y-10797984D01*
X12858277Y-10797984D02*
X12839229Y-10807508D01*
X12839229Y-10807508D02*
X12829706Y-10817031D01*
X12829706Y-10817031D02*
X12820182Y-10836079D01*
X12820182Y-10836079D02*
X12820182Y-10883698D01*
X12820182Y-10883698D02*
X12829706Y-10902746D01*
X12829706Y-10902746D02*
X12839229Y-10912270D01*
X12839229Y-10912270D02*
X12858277Y-10921793D01*
X12858277Y-10921793D02*
X12896372Y-10921793D01*
X12896372Y-10921793D02*
X12915420Y-10912270D01*
X12915420Y-10912270D02*
X12924944Y-10902746D01*
X12924944Y-10902746D02*
X12934467Y-10883698D01*
X13115420Y-10797984D02*
X13020182Y-10797984D01*
X13020182Y-10797984D02*
X13010658Y-10893222D01*
X13010658Y-10893222D02*
X13020182Y-10883698D01*
X13020182Y-10883698D02*
X13039229Y-10874174D01*
X13039229Y-10874174D02*
X13086848Y-10874174D01*
X13086848Y-10874174D02*
X13105896Y-10883698D01*
X13105896Y-10883698D02*
X13115420Y-10893222D01*
X13115420Y-10893222D02*
X13124944Y-10912270D01*
X13124944Y-10912270D02*
X13124944Y-10959889D01*
X13124944Y-10959889D02*
X13115420Y-10978936D01*
X13115420Y-10978936D02*
X13105896Y-10988460D01*
X13105896Y-10988460D02*
X13086848Y-10997984D01*
X13086848Y-10997984D02*
X13039229Y-10997984D01*
X13039229Y-10997984D02*
X13020182Y-10988460D01*
X13020182Y-10988460D02*
X13010658Y-10978936D01*
X13201134Y-10797984D02*
X13201134Y-10836079D01*
X13277325Y-10797984D02*
X13277325Y-10836079D01*
X13572563Y-11074174D02*
X13563039Y-11064650D01*
X13563039Y-11064650D02*
X13543991Y-11036079D01*
X13543991Y-11036079D02*
X13534468Y-11017031D01*
X13534468Y-11017031D02*
X13524944Y-10988460D01*
X13524944Y-10988460D02*
X13515420Y-10940841D01*
X13515420Y-10940841D02*
X13515420Y-10902746D01*
X13515420Y-10902746D02*
X13524944Y-10855127D01*
X13524944Y-10855127D02*
X13534468Y-10826555D01*
X13534468Y-10826555D02*
X13543991Y-10807508D01*
X13543991Y-10807508D02*
X13563039Y-10778936D01*
X13563039Y-10778936D02*
X13572563Y-10769412D01*
X13753515Y-10997984D02*
X13639229Y-10997984D01*
X13696372Y-10997984D02*
X13696372Y-10797984D01*
X13696372Y-10797984D02*
X13677325Y-10826555D01*
X13677325Y-10826555D02*
X13658277Y-10845603D01*
X13658277Y-10845603D02*
X13639229Y-10855127D01*
X13924944Y-10864650D02*
X13924944Y-10997984D01*
X13877325Y-10788460D02*
X13829706Y-10931317D01*
X13829706Y-10931317D02*
X13953515Y-10931317D01*
X14182087Y-10997984D02*
X14182087Y-10797984D01*
X14267801Y-10997984D02*
X14267801Y-10893222D01*
X14267801Y-10893222D02*
X14258277Y-10874174D01*
X14258277Y-10874174D02*
X14239230Y-10864650D01*
X14239230Y-10864650D02*
X14210658Y-10864650D01*
X14210658Y-10864650D02*
X14191610Y-10874174D01*
X14191610Y-10874174D02*
X14182087Y-10883698D01*
X14391610Y-10997984D02*
X14372563Y-10988460D01*
X14372563Y-10988460D02*
X14363039Y-10978936D01*
X14363039Y-10978936D02*
X14353515Y-10959889D01*
X14353515Y-10959889D02*
X14353515Y-10902746D01*
X14353515Y-10902746D02*
X14363039Y-10883698D01*
X14363039Y-10883698D02*
X14372563Y-10874174D01*
X14372563Y-10874174D02*
X14391610Y-10864650D01*
X14391610Y-10864650D02*
X14420182Y-10864650D01*
X14420182Y-10864650D02*
X14439230Y-10874174D01*
X14439230Y-10874174D02*
X14448753Y-10883698D01*
X14448753Y-10883698D02*
X14458277Y-10902746D01*
X14458277Y-10902746D02*
X14458277Y-10959889D01*
X14458277Y-10959889D02*
X14448753Y-10978936D01*
X14448753Y-10978936D02*
X14439230Y-10988460D01*
X14439230Y-10988460D02*
X14420182Y-10997984D01*
X14420182Y-10997984D02*
X14391610Y-10997984D01*
X14572563Y-10997984D02*
X14553515Y-10988460D01*
X14553515Y-10988460D02*
X14543991Y-10969412D01*
X14543991Y-10969412D02*
X14543991Y-10797984D01*
X14724944Y-10988460D02*
X14705896Y-10997984D01*
X14705896Y-10997984D02*
X14667801Y-10997984D01*
X14667801Y-10997984D02*
X14648753Y-10988460D01*
X14648753Y-10988460D02*
X14639230Y-10969412D01*
X14639230Y-10969412D02*
X14639230Y-10893222D01*
X14639230Y-10893222D02*
X14648753Y-10874174D01*
X14648753Y-10874174D02*
X14667801Y-10864650D01*
X14667801Y-10864650D02*
X14705896Y-10864650D01*
X14705896Y-10864650D02*
X14724944Y-10874174D01*
X14724944Y-10874174D02*
X14734468Y-10893222D01*
X14734468Y-10893222D02*
X14734468Y-10912270D01*
X14734468Y-10912270D02*
X14639230Y-10931317D01*
X14810658Y-10988460D02*
X14829706Y-10997984D01*
X14829706Y-10997984D02*
X14867801Y-10997984D01*
X14867801Y-10997984D02*
X14886849Y-10988460D01*
X14886849Y-10988460D02*
X14896372Y-10969412D01*
X14896372Y-10969412D02*
X14896372Y-10959889D01*
X14896372Y-10959889D02*
X14886849Y-10940841D01*
X14886849Y-10940841D02*
X14867801Y-10931317D01*
X14867801Y-10931317D02*
X14839230Y-10931317D01*
X14839230Y-10931317D02*
X14820182Y-10921793D01*
X14820182Y-10921793D02*
X14810658Y-10902746D01*
X14810658Y-10902746D02*
X14810658Y-10893222D01*
X14810658Y-10893222D02*
X14820182Y-10874174D01*
X14820182Y-10874174D02*
X14839230Y-10864650D01*
X14839230Y-10864650D02*
X14867801Y-10864650D01*
X14867801Y-10864650D02*
X14886849Y-10874174D01*
X14963039Y-11074174D02*
X14972563Y-11064650D01*
X14972563Y-11064650D02*
X14991611Y-11036079D01*
X14991611Y-11036079D02*
X15001134Y-11017031D01*
X15001134Y-11017031D02*
X15010658Y-10988460D01*
X15010658Y-10988460D02*
X15020182Y-10940841D01*
X15020182Y-10940841D02*
X15020182Y-10902746D01*
X15020182Y-10902746D02*
X15010658Y-10855127D01*
X15010658Y-10855127D02*
X15001134Y-10826555D01*
X15001134Y-10826555D02*
X14991611Y-10807508D01*
X14991611Y-10807508D02*
X14972563Y-10778936D01*
X14972563Y-10778936D02*
X14963039Y-10769412D01*
D12*
X9957500Y-11130500D02*
X9957500Y-11210500D01*
X9917500Y-11170500D02*
X9997500Y-11170500D01*
D11*
X10296372Y-11061984D02*
X10315420Y-11061984D01*
X10315420Y-11061984D02*
X10334467Y-11071508D01*
X10334467Y-11071508D02*
X10343991Y-11081031D01*
X10343991Y-11081031D02*
X10353515Y-11100079D01*
X10353515Y-11100079D02*
X10363039Y-11138174D01*
X10363039Y-11138174D02*
X10363039Y-11185793D01*
X10363039Y-11185793D02*
X10353515Y-11223888D01*
X10353515Y-11223888D02*
X10343991Y-11242936D01*
X10343991Y-11242936D02*
X10334467Y-11252460D01*
X10334467Y-11252460D02*
X10315420Y-11261984D01*
X10315420Y-11261984D02*
X10296372Y-11261984D01*
X10296372Y-11261984D02*
X10277324Y-11252460D01*
X10277324Y-11252460D02*
X10267801Y-11242936D01*
X10267801Y-11242936D02*
X10258277Y-11223888D01*
X10258277Y-11223888D02*
X10248753Y-11185793D01*
X10248753Y-11185793D02*
X10248753Y-11138174D01*
X10248753Y-11138174D02*
X10258277Y-11100079D01*
X10258277Y-11100079D02*
X10267801Y-11081031D01*
X10267801Y-11081031D02*
X10277324Y-11071508D01*
X10277324Y-11071508D02*
X10296372Y-11061984D01*
X10448753Y-11242936D02*
X10458277Y-11252460D01*
X10458277Y-11252460D02*
X10448753Y-11261984D01*
X10448753Y-11261984D02*
X10439229Y-11252460D01*
X10439229Y-11252460D02*
X10448753Y-11242936D01*
X10448753Y-11242936D02*
X10448753Y-11261984D01*
X10572563Y-11147698D02*
X10553515Y-11138174D01*
X10553515Y-11138174D02*
X10543991Y-11128650D01*
X10543991Y-11128650D02*
X10534467Y-11109603D01*
X10534467Y-11109603D02*
X10534467Y-11100079D01*
X10534467Y-11100079D02*
X10543991Y-11081031D01*
X10543991Y-11081031D02*
X10553515Y-11071508D01*
X10553515Y-11071508D02*
X10572563Y-11061984D01*
X10572563Y-11061984D02*
X10610658Y-11061984D01*
X10610658Y-11061984D02*
X10629705Y-11071508D01*
X10629705Y-11071508D02*
X10639229Y-11081031D01*
X10639229Y-11081031D02*
X10648753Y-11100079D01*
X10648753Y-11100079D02*
X10648753Y-11109603D01*
X10648753Y-11109603D02*
X10639229Y-11128650D01*
X10639229Y-11128650D02*
X10629705Y-11138174D01*
X10629705Y-11138174D02*
X10610658Y-11147698D01*
X10610658Y-11147698D02*
X10572563Y-11147698D01*
X10572563Y-11147698D02*
X10553515Y-11157222D01*
X10553515Y-11157222D02*
X10543991Y-11166746D01*
X10543991Y-11166746D02*
X10534467Y-11185793D01*
X10534467Y-11185793D02*
X10534467Y-11223888D01*
X10534467Y-11223888D02*
X10543991Y-11242936D01*
X10543991Y-11242936D02*
X10553515Y-11252460D01*
X10553515Y-11252460D02*
X10572563Y-11261984D01*
X10572563Y-11261984D02*
X10610658Y-11261984D01*
X10610658Y-11261984D02*
X10629705Y-11252460D01*
X10629705Y-11252460D02*
X10639229Y-11242936D01*
X10639229Y-11242936D02*
X10648753Y-11223888D01*
X10648753Y-11223888D02*
X10648753Y-11185793D01*
X10648753Y-11185793D02*
X10639229Y-11166746D01*
X10639229Y-11166746D02*
X10629705Y-11157222D01*
X10629705Y-11157222D02*
X10610658Y-11147698D01*
X10772563Y-11061984D02*
X10791610Y-11061984D01*
X10791610Y-11061984D02*
X10810658Y-11071508D01*
X10810658Y-11071508D02*
X10820182Y-11081031D01*
X10820182Y-11081031D02*
X10829705Y-11100079D01*
X10829705Y-11100079D02*
X10839229Y-11138174D01*
X10839229Y-11138174D02*
X10839229Y-11185793D01*
X10839229Y-11185793D02*
X10829705Y-11223888D01*
X10829705Y-11223888D02*
X10820182Y-11242936D01*
X10820182Y-11242936D02*
X10810658Y-11252460D01*
X10810658Y-11252460D02*
X10791610Y-11261984D01*
X10791610Y-11261984D02*
X10772563Y-11261984D01*
X10772563Y-11261984D02*
X10753515Y-11252460D01*
X10753515Y-11252460D02*
X10743991Y-11242936D01*
X10743991Y-11242936D02*
X10734467Y-11223888D01*
X10734467Y-11223888D02*
X10724944Y-11185793D01*
X10724944Y-11185793D02*
X10724944Y-11138174D01*
X10724944Y-11138174D02*
X10734467Y-11100079D01*
X10734467Y-11100079D02*
X10743991Y-11081031D01*
X10743991Y-11081031D02*
X10753515Y-11071508D01*
X10753515Y-11071508D02*
X10772563Y-11061984D01*
X10963039Y-11061984D02*
X10982086Y-11061984D01*
X10982086Y-11061984D02*
X11001134Y-11071508D01*
X11001134Y-11071508D02*
X11010658Y-11081031D01*
X11010658Y-11081031D02*
X11020182Y-11100079D01*
X11020182Y-11100079D02*
X11029705Y-11138174D01*
X11029705Y-11138174D02*
X11029705Y-11185793D01*
X11029705Y-11185793D02*
X11020182Y-11223888D01*
X11020182Y-11223888D02*
X11010658Y-11242936D01*
X11010658Y-11242936D02*
X11001134Y-11252460D01*
X11001134Y-11252460D02*
X10982086Y-11261984D01*
X10982086Y-11261984D02*
X10963039Y-11261984D01*
X10963039Y-11261984D02*
X10943991Y-11252460D01*
X10943991Y-11252460D02*
X10934467Y-11242936D01*
X10934467Y-11242936D02*
X10924944Y-11223888D01*
X10924944Y-11223888D02*
X10915420Y-11185793D01*
X10915420Y-11185793D02*
X10915420Y-11138174D01*
X10915420Y-11138174D02*
X10924944Y-11100079D01*
X10924944Y-11100079D02*
X10934467Y-11081031D01*
X10934467Y-11081031D02*
X10943991Y-11071508D01*
X10943991Y-11071508D02*
X10963039Y-11061984D01*
X11115420Y-11261984D02*
X11115420Y-11128650D01*
X11115420Y-11147698D02*
X11124944Y-11138174D01*
X11124944Y-11138174D02*
X11143991Y-11128650D01*
X11143991Y-11128650D02*
X11172563Y-11128650D01*
X11172563Y-11128650D02*
X11191610Y-11138174D01*
X11191610Y-11138174D02*
X11201134Y-11157222D01*
X11201134Y-11157222D02*
X11201134Y-11261984D01*
X11201134Y-11157222D02*
X11210658Y-11138174D01*
X11210658Y-11138174D02*
X11229705Y-11128650D01*
X11229705Y-11128650D02*
X11258277Y-11128650D01*
X11258277Y-11128650D02*
X11277324Y-11138174D01*
X11277324Y-11138174D02*
X11286848Y-11157222D01*
X11286848Y-11157222D02*
X11286848Y-11261984D01*
X11382086Y-11261984D02*
X11382086Y-11128650D01*
X11382086Y-11147698D02*
X11391610Y-11138174D01*
X11391610Y-11138174D02*
X11410658Y-11128650D01*
X11410658Y-11128650D02*
X11439229Y-11128650D01*
X11439229Y-11128650D02*
X11458277Y-11138174D01*
X11458277Y-11138174D02*
X11467801Y-11157222D01*
X11467801Y-11157222D02*
X11467801Y-11261984D01*
X11467801Y-11157222D02*
X11477324Y-11138174D01*
X11477324Y-11138174D02*
X11496372Y-11128650D01*
X11496372Y-11128650D02*
X11524943Y-11128650D01*
X11524943Y-11128650D02*
X11543991Y-11138174D01*
X11543991Y-11138174D02*
X11553515Y-11157222D01*
X11553515Y-11157222D02*
X11553515Y-11261984D01*
X11943991Y-11052460D02*
X11772563Y-11309603D01*
X12201134Y-11061984D02*
X12220182Y-11061984D01*
X12220182Y-11061984D02*
X12239229Y-11071508D01*
X12239229Y-11071508D02*
X12248753Y-11081031D01*
X12248753Y-11081031D02*
X12258277Y-11100079D01*
X12258277Y-11100079D02*
X12267801Y-11138174D01*
X12267801Y-11138174D02*
X12267801Y-11185793D01*
X12267801Y-11185793D02*
X12258277Y-11223888D01*
X12258277Y-11223888D02*
X12248753Y-11242936D01*
X12248753Y-11242936D02*
X12239229Y-11252460D01*
X12239229Y-11252460D02*
X12220182Y-11261984D01*
X12220182Y-11261984D02*
X12201134Y-11261984D01*
X12201134Y-11261984D02*
X12182086Y-11252460D01*
X12182086Y-11252460D02*
X12172563Y-11242936D01*
X12172563Y-11242936D02*
X12163039Y-11223888D01*
X12163039Y-11223888D02*
X12153515Y-11185793D01*
X12153515Y-11185793D02*
X12153515Y-11138174D01*
X12153515Y-11138174D02*
X12163039Y-11100079D01*
X12163039Y-11100079D02*
X12172563Y-11081031D01*
X12172563Y-11081031D02*
X12182086Y-11071508D01*
X12182086Y-11071508D02*
X12201134Y-11061984D01*
X12353515Y-11242936D02*
X12363039Y-11252460D01*
X12363039Y-11252460D02*
X12353515Y-11261984D01*
X12353515Y-11261984D02*
X12343991Y-11252460D01*
X12343991Y-11252460D02*
X12353515Y-11242936D01*
X12353515Y-11242936D02*
X12353515Y-11261984D01*
X12486848Y-11061984D02*
X12505896Y-11061984D01*
X12505896Y-11061984D02*
X12524944Y-11071508D01*
X12524944Y-11071508D02*
X12534467Y-11081031D01*
X12534467Y-11081031D02*
X12543991Y-11100079D01*
X12543991Y-11100079D02*
X12553515Y-11138174D01*
X12553515Y-11138174D02*
X12553515Y-11185793D01*
X12553515Y-11185793D02*
X12543991Y-11223888D01*
X12543991Y-11223888D02*
X12534467Y-11242936D01*
X12534467Y-11242936D02*
X12524944Y-11252460D01*
X12524944Y-11252460D02*
X12505896Y-11261984D01*
X12505896Y-11261984D02*
X12486848Y-11261984D01*
X12486848Y-11261984D02*
X12467801Y-11252460D01*
X12467801Y-11252460D02*
X12458277Y-11242936D01*
X12458277Y-11242936D02*
X12448753Y-11223888D01*
X12448753Y-11223888D02*
X12439229Y-11185793D01*
X12439229Y-11185793D02*
X12439229Y-11138174D01*
X12439229Y-11138174D02*
X12448753Y-11100079D01*
X12448753Y-11100079D02*
X12458277Y-11081031D01*
X12458277Y-11081031D02*
X12467801Y-11071508D01*
X12467801Y-11071508D02*
X12486848Y-11061984D01*
X12620182Y-11061984D02*
X12743991Y-11061984D01*
X12743991Y-11061984D02*
X12677325Y-11138174D01*
X12677325Y-11138174D02*
X12705896Y-11138174D01*
X12705896Y-11138174D02*
X12724944Y-11147698D01*
X12724944Y-11147698D02*
X12734467Y-11157222D01*
X12734467Y-11157222D02*
X12743991Y-11176270D01*
X12743991Y-11176270D02*
X12743991Y-11223888D01*
X12743991Y-11223888D02*
X12734467Y-11242936D01*
X12734467Y-11242936D02*
X12724944Y-11252460D01*
X12724944Y-11252460D02*
X12705896Y-11261984D01*
X12705896Y-11261984D02*
X12648753Y-11261984D01*
X12648753Y-11261984D02*
X12629706Y-11252460D01*
X12629706Y-11252460D02*
X12620182Y-11242936D01*
X12934467Y-11261984D02*
X12820182Y-11261984D01*
X12877325Y-11261984D02*
X12877325Y-11061984D01*
X12877325Y-11061984D02*
X12858277Y-11090555D01*
X12858277Y-11090555D02*
X12839229Y-11109603D01*
X12839229Y-11109603D02*
X12820182Y-11119127D01*
X13115420Y-11061984D02*
X13020182Y-11061984D01*
X13020182Y-11061984D02*
X13010658Y-11157222D01*
X13010658Y-11157222D02*
X13020182Y-11147698D01*
X13020182Y-11147698D02*
X13039229Y-11138174D01*
X13039229Y-11138174D02*
X13086848Y-11138174D01*
X13086848Y-11138174D02*
X13105896Y-11147698D01*
X13105896Y-11147698D02*
X13115420Y-11157222D01*
X13115420Y-11157222D02*
X13124944Y-11176270D01*
X13124944Y-11176270D02*
X13124944Y-11223888D01*
X13124944Y-11223888D02*
X13115420Y-11242936D01*
X13115420Y-11242936D02*
X13105896Y-11252460D01*
X13105896Y-11252460D02*
X13086848Y-11261984D01*
X13086848Y-11261984D02*
X13039229Y-11261984D01*
X13039229Y-11261984D02*
X13020182Y-11252460D01*
X13020182Y-11252460D02*
X13010658Y-11242936D01*
X13201134Y-11061984D02*
X13201134Y-11100079D01*
X13277325Y-11061984D02*
X13277325Y-11100079D01*
X13572563Y-11338174D02*
X13563039Y-11328650D01*
X13563039Y-11328650D02*
X13543991Y-11300079D01*
X13543991Y-11300079D02*
X13534468Y-11281031D01*
X13534468Y-11281031D02*
X13524944Y-11252460D01*
X13524944Y-11252460D02*
X13515420Y-11204841D01*
X13515420Y-11204841D02*
X13515420Y-11166746D01*
X13515420Y-11166746D02*
X13524944Y-11119127D01*
X13524944Y-11119127D02*
X13534468Y-11090555D01*
X13534468Y-11090555D02*
X13543991Y-11071508D01*
X13543991Y-11071508D02*
X13563039Y-11042936D01*
X13563039Y-11042936D02*
X13572563Y-11033412D01*
X13753515Y-11261984D02*
X13639229Y-11261984D01*
X13696372Y-11261984D02*
X13696372Y-11061984D01*
X13696372Y-11061984D02*
X13677325Y-11090555D01*
X13677325Y-11090555D02*
X13658277Y-11109603D01*
X13658277Y-11109603D02*
X13639229Y-11119127D01*
X13820182Y-11061984D02*
X13943991Y-11061984D01*
X13943991Y-11061984D02*
X13877325Y-11138174D01*
X13877325Y-11138174D02*
X13905896Y-11138174D01*
X13905896Y-11138174D02*
X13924944Y-11147698D01*
X13924944Y-11147698D02*
X13934468Y-11157222D01*
X13934468Y-11157222D02*
X13943991Y-11176270D01*
X13943991Y-11176270D02*
X13943991Y-11223888D01*
X13943991Y-11223888D02*
X13934468Y-11242936D01*
X13934468Y-11242936D02*
X13924944Y-11252460D01*
X13924944Y-11252460D02*
X13905896Y-11261984D01*
X13905896Y-11261984D02*
X13848753Y-11261984D01*
X13848753Y-11261984D02*
X13829706Y-11252460D01*
X13829706Y-11252460D02*
X13820182Y-11242936D01*
X14182087Y-11261984D02*
X14182087Y-11061984D01*
X14267801Y-11261984D02*
X14267801Y-11157222D01*
X14267801Y-11157222D02*
X14258277Y-11138174D01*
X14258277Y-11138174D02*
X14239230Y-11128650D01*
X14239230Y-11128650D02*
X14210658Y-11128650D01*
X14210658Y-11128650D02*
X14191610Y-11138174D01*
X14191610Y-11138174D02*
X14182087Y-11147698D01*
X14391610Y-11261984D02*
X14372563Y-11252460D01*
X14372563Y-11252460D02*
X14363039Y-11242936D01*
X14363039Y-11242936D02*
X14353515Y-11223888D01*
X14353515Y-11223888D02*
X14353515Y-11166746D01*
X14353515Y-11166746D02*
X14363039Y-11147698D01*
X14363039Y-11147698D02*
X14372563Y-11138174D01*
X14372563Y-11138174D02*
X14391610Y-11128650D01*
X14391610Y-11128650D02*
X14420182Y-11128650D01*
X14420182Y-11128650D02*
X14439230Y-11138174D01*
X14439230Y-11138174D02*
X14448753Y-11147698D01*
X14448753Y-11147698D02*
X14458277Y-11166746D01*
X14458277Y-11166746D02*
X14458277Y-11223888D01*
X14458277Y-11223888D02*
X14448753Y-11242936D01*
X14448753Y-11242936D02*
X14439230Y-11252460D01*
X14439230Y-11252460D02*
X14420182Y-11261984D01*
X14420182Y-11261984D02*
X14391610Y-11261984D01*
X14572563Y-11261984D02*
X14553515Y-11252460D01*
X14553515Y-11252460D02*
X14543991Y-11233412D01*
X14543991Y-11233412D02*
X14543991Y-11061984D01*
X14724944Y-11252460D02*
X14705896Y-11261984D01*
X14705896Y-11261984D02*
X14667801Y-11261984D01*
X14667801Y-11261984D02*
X14648753Y-11252460D01*
X14648753Y-11252460D02*
X14639230Y-11233412D01*
X14639230Y-11233412D02*
X14639230Y-11157222D01*
X14639230Y-11157222D02*
X14648753Y-11138174D01*
X14648753Y-11138174D02*
X14667801Y-11128650D01*
X14667801Y-11128650D02*
X14705896Y-11128650D01*
X14705896Y-11128650D02*
X14724944Y-11138174D01*
X14724944Y-11138174D02*
X14734468Y-11157222D01*
X14734468Y-11157222D02*
X14734468Y-11176270D01*
X14734468Y-11176270D02*
X14639230Y-11195317D01*
X14810658Y-11252460D02*
X14829706Y-11261984D01*
X14829706Y-11261984D02*
X14867801Y-11261984D01*
X14867801Y-11261984D02*
X14886849Y-11252460D01*
X14886849Y-11252460D02*
X14896372Y-11233412D01*
X14896372Y-11233412D02*
X14896372Y-11223888D01*
X14896372Y-11223888D02*
X14886849Y-11204841D01*
X14886849Y-11204841D02*
X14867801Y-11195317D01*
X14867801Y-11195317D02*
X14839230Y-11195317D01*
X14839230Y-11195317D02*
X14820182Y-11185793D01*
X14820182Y-11185793D02*
X14810658Y-11166746D01*
X14810658Y-11166746D02*
X14810658Y-11157222D01*
X14810658Y-11157222D02*
X14820182Y-11138174D01*
X14820182Y-11138174D02*
X14839230Y-11128650D01*
X14839230Y-11128650D02*
X14867801Y-11128650D01*
X14867801Y-11128650D02*
X14886849Y-11138174D01*
X14963039Y-11338174D02*
X14972563Y-11328650D01*
X14972563Y-11328650D02*
X14991611Y-11300079D01*
X14991611Y-11300079D02*
X15001134Y-11281031D01*
X15001134Y-11281031D02*
X15010658Y-11252460D01*
X15010658Y-11252460D02*
X15020182Y-11204841D01*
X15020182Y-11204841D02*
X15020182Y-11166746D01*
X15020182Y-11166746D02*
X15010658Y-11119127D01*
X15010658Y-11119127D02*
X15001134Y-11090555D01*
X15001134Y-11090555D02*
X14991611Y-11071508D01*
X14991611Y-11071508D02*
X14972563Y-11042936D01*
X14972563Y-11042936D02*
X14963039Y-11033412D01*
D12*
X9982856Y-11469856D02*
X9982856Y-11399144D01*
X9912144Y-11399144D01*
X9912144Y-11469856D01*
X9982856Y-11469856D01*
D11*
X10363039Y-11525984D02*
X10248753Y-11525984D01*
X10305896Y-11525984D02*
X10305896Y-11325984D01*
X10305896Y-11325984D02*
X10286848Y-11354555D01*
X10286848Y-11354555D02*
X10267801Y-11373603D01*
X10267801Y-11373603D02*
X10248753Y-11383127D01*
X10448753Y-11506936D02*
X10458277Y-11516460D01*
X10458277Y-11516460D02*
X10448753Y-11525984D01*
X10448753Y-11525984D02*
X10439229Y-11516460D01*
X10439229Y-11516460D02*
X10448753Y-11506936D01*
X10448753Y-11506936D02*
X10448753Y-11525984D01*
X10582086Y-11325984D02*
X10601134Y-11325984D01*
X10601134Y-11325984D02*
X10620182Y-11335508D01*
X10620182Y-11335508D02*
X10629705Y-11345031D01*
X10629705Y-11345031D02*
X10639229Y-11364079D01*
X10639229Y-11364079D02*
X10648753Y-11402174D01*
X10648753Y-11402174D02*
X10648753Y-11449793D01*
X10648753Y-11449793D02*
X10639229Y-11487888D01*
X10639229Y-11487888D02*
X10629705Y-11506936D01*
X10629705Y-11506936D02*
X10620182Y-11516460D01*
X10620182Y-11516460D02*
X10601134Y-11525984D01*
X10601134Y-11525984D02*
X10582086Y-11525984D01*
X10582086Y-11525984D02*
X10563039Y-11516460D01*
X10563039Y-11516460D02*
X10553515Y-11506936D01*
X10553515Y-11506936D02*
X10543991Y-11487888D01*
X10543991Y-11487888D02*
X10534467Y-11449793D01*
X10534467Y-11449793D02*
X10534467Y-11402174D01*
X10534467Y-11402174D02*
X10543991Y-11364079D01*
X10543991Y-11364079D02*
X10553515Y-11345031D01*
X10553515Y-11345031D02*
X10563039Y-11335508D01*
X10563039Y-11335508D02*
X10582086Y-11325984D01*
X10772563Y-11325984D02*
X10791610Y-11325984D01*
X10791610Y-11325984D02*
X10810658Y-11335508D01*
X10810658Y-11335508D02*
X10820182Y-11345031D01*
X10820182Y-11345031D02*
X10829705Y-11364079D01*
X10829705Y-11364079D02*
X10839229Y-11402174D01*
X10839229Y-11402174D02*
X10839229Y-11449793D01*
X10839229Y-11449793D02*
X10829705Y-11487888D01*
X10829705Y-11487888D02*
X10820182Y-11506936D01*
X10820182Y-11506936D02*
X10810658Y-11516460D01*
X10810658Y-11516460D02*
X10791610Y-11525984D01*
X10791610Y-11525984D02*
X10772563Y-11525984D01*
X10772563Y-11525984D02*
X10753515Y-11516460D01*
X10753515Y-11516460D02*
X10743991Y-11506936D01*
X10743991Y-11506936D02*
X10734467Y-11487888D01*
X10734467Y-11487888D02*
X10724944Y-11449793D01*
X10724944Y-11449793D02*
X10724944Y-11402174D01*
X10724944Y-11402174D02*
X10734467Y-11364079D01*
X10734467Y-11364079D02*
X10743991Y-11345031D01*
X10743991Y-11345031D02*
X10753515Y-11335508D01*
X10753515Y-11335508D02*
X10772563Y-11325984D01*
X10963039Y-11325984D02*
X10982086Y-11325984D01*
X10982086Y-11325984D02*
X11001134Y-11335508D01*
X11001134Y-11335508D02*
X11010658Y-11345031D01*
X11010658Y-11345031D02*
X11020182Y-11364079D01*
X11020182Y-11364079D02*
X11029705Y-11402174D01*
X11029705Y-11402174D02*
X11029705Y-11449793D01*
X11029705Y-11449793D02*
X11020182Y-11487888D01*
X11020182Y-11487888D02*
X11010658Y-11506936D01*
X11010658Y-11506936D02*
X11001134Y-11516460D01*
X11001134Y-11516460D02*
X10982086Y-11525984D01*
X10982086Y-11525984D02*
X10963039Y-11525984D01*
X10963039Y-11525984D02*
X10943991Y-11516460D01*
X10943991Y-11516460D02*
X10934467Y-11506936D01*
X10934467Y-11506936D02*
X10924944Y-11487888D01*
X10924944Y-11487888D02*
X10915420Y-11449793D01*
X10915420Y-11449793D02*
X10915420Y-11402174D01*
X10915420Y-11402174D02*
X10924944Y-11364079D01*
X10924944Y-11364079D02*
X10934467Y-11345031D01*
X10934467Y-11345031D02*
X10943991Y-11335508D01*
X10943991Y-11335508D02*
X10963039Y-11325984D01*
X11115420Y-11525984D02*
X11115420Y-11392650D01*
X11115420Y-11411698D02*
X11124944Y-11402174D01*
X11124944Y-11402174D02*
X11143991Y-11392650D01*
X11143991Y-11392650D02*
X11172563Y-11392650D01*
X11172563Y-11392650D02*
X11191610Y-11402174D01*
X11191610Y-11402174D02*
X11201134Y-11421222D01*
X11201134Y-11421222D02*
X11201134Y-11525984D01*
X11201134Y-11421222D02*
X11210658Y-11402174D01*
X11210658Y-11402174D02*
X11229705Y-11392650D01*
X11229705Y-11392650D02*
X11258277Y-11392650D01*
X11258277Y-11392650D02*
X11277324Y-11402174D01*
X11277324Y-11402174D02*
X11286848Y-11421222D01*
X11286848Y-11421222D02*
X11286848Y-11525984D01*
X11382086Y-11525984D02*
X11382086Y-11392650D01*
X11382086Y-11411698D02*
X11391610Y-11402174D01*
X11391610Y-11402174D02*
X11410658Y-11392650D01*
X11410658Y-11392650D02*
X11439229Y-11392650D01*
X11439229Y-11392650D02*
X11458277Y-11402174D01*
X11458277Y-11402174D02*
X11467801Y-11421222D01*
X11467801Y-11421222D02*
X11467801Y-11525984D01*
X11467801Y-11421222D02*
X11477324Y-11402174D01*
X11477324Y-11402174D02*
X11496372Y-11392650D01*
X11496372Y-11392650D02*
X11524943Y-11392650D01*
X11524943Y-11392650D02*
X11543991Y-11402174D01*
X11543991Y-11402174D02*
X11553515Y-11421222D01*
X11553515Y-11421222D02*
X11553515Y-11525984D01*
X11943991Y-11316460D02*
X11772563Y-11573603D01*
X12201134Y-11325984D02*
X12220182Y-11325984D01*
X12220182Y-11325984D02*
X12239229Y-11335508D01*
X12239229Y-11335508D02*
X12248753Y-11345031D01*
X12248753Y-11345031D02*
X12258277Y-11364079D01*
X12258277Y-11364079D02*
X12267801Y-11402174D01*
X12267801Y-11402174D02*
X12267801Y-11449793D01*
X12267801Y-11449793D02*
X12258277Y-11487888D01*
X12258277Y-11487888D02*
X12248753Y-11506936D01*
X12248753Y-11506936D02*
X12239229Y-11516460D01*
X12239229Y-11516460D02*
X12220182Y-11525984D01*
X12220182Y-11525984D02*
X12201134Y-11525984D01*
X12201134Y-11525984D02*
X12182086Y-11516460D01*
X12182086Y-11516460D02*
X12172563Y-11506936D01*
X12172563Y-11506936D02*
X12163039Y-11487888D01*
X12163039Y-11487888D02*
X12153515Y-11449793D01*
X12153515Y-11449793D02*
X12153515Y-11402174D01*
X12153515Y-11402174D02*
X12163039Y-11364079D01*
X12163039Y-11364079D02*
X12172563Y-11345031D01*
X12172563Y-11345031D02*
X12182086Y-11335508D01*
X12182086Y-11335508D02*
X12201134Y-11325984D01*
X12353515Y-11506936D02*
X12363039Y-11516460D01*
X12363039Y-11516460D02*
X12353515Y-11525984D01*
X12353515Y-11525984D02*
X12343991Y-11516460D01*
X12343991Y-11516460D02*
X12353515Y-11506936D01*
X12353515Y-11506936D02*
X12353515Y-11525984D01*
X12486848Y-11325984D02*
X12505896Y-11325984D01*
X12505896Y-11325984D02*
X12524944Y-11335508D01*
X12524944Y-11335508D02*
X12534467Y-11345031D01*
X12534467Y-11345031D02*
X12543991Y-11364079D01*
X12543991Y-11364079D02*
X12553515Y-11402174D01*
X12553515Y-11402174D02*
X12553515Y-11449793D01*
X12553515Y-11449793D02*
X12543991Y-11487888D01*
X12543991Y-11487888D02*
X12534467Y-11506936D01*
X12534467Y-11506936D02*
X12524944Y-11516460D01*
X12524944Y-11516460D02*
X12505896Y-11525984D01*
X12505896Y-11525984D02*
X12486848Y-11525984D01*
X12486848Y-11525984D02*
X12467801Y-11516460D01*
X12467801Y-11516460D02*
X12458277Y-11506936D01*
X12458277Y-11506936D02*
X12448753Y-11487888D01*
X12448753Y-11487888D02*
X12439229Y-11449793D01*
X12439229Y-11449793D02*
X12439229Y-11402174D01*
X12439229Y-11402174D02*
X12448753Y-11364079D01*
X12448753Y-11364079D02*
X12458277Y-11345031D01*
X12458277Y-11345031D02*
X12467801Y-11335508D01*
X12467801Y-11335508D02*
X12486848Y-11325984D01*
X12620182Y-11325984D02*
X12743991Y-11325984D01*
X12743991Y-11325984D02*
X12677325Y-11402174D01*
X12677325Y-11402174D02*
X12705896Y-11402174D01*
X12705896Y-11402174D02*
X12724944Y-11411698D01*
X12724944Y-11411698D02*
X12734467Y-11421222D01*
X12734467Y-11421222D02*
X12743991Y-11440269D01*
X12743991Y-11440269D02*
X12743991Y-11487888D01*
X12743991Y-11487888D02*
X12734467Y-11506936D01*
X12734467Y-11506936D02*
X12724944Y-11516460D01*
X12724944Y-11516460D02*
X12705896Y-11525984D01*
X12705896Y-11525984D02*
X12648753Y-11525984D01*
X12648753Y-11525984D02*
X12629706Y-11516460D01*
X12629706Y-11516460D02*
X12620182Y-11506936D01*
X12839229Y-11525984D02*
X12877325Y-11525984D01*
X12877325Y-11525984D02*
X12896372Y-11516460D01*
X12896372Y-11516460D02*
X12905896Y-11506936D01*
X12905896Y-11506936D02*
X12924944Y-11478365D01*
X12924944Y-11478365D02*
X12934467Y-11440269D01*
X12934467Y-11440269D02*
X12934467Y-11364079D01*
X12934467Y-11364079D02*
X12924944Y-11345031D01*
X12924944Y-11345031D02*
X12915420Y-11335508D01*
X12915420Y-11335508D02*
X12896372Y-11325984D01*
X12896372Y-11325984D02*
X12858277Y-11325984D01*
X12858277Y-11325984D02*
X12839229Y-11335508D01*
X12839229Y-11335508D02*
X12829706Y-11345031D01*
X12829706Y-11345031D02*
X12820182Y-11364079D01*
X12820182Y-11364079D02*
X12820182Y-11411698D01*
X12820182Y-11411698D02*
X12829706Y-11430746D01*
X12829706Y-11430746D02*
X12839229Y-11440269D01*
X12839229Y-11440269D02*
X12858277Y-11449793D01*
X12858277Y-11449793D02*
X12896372Y-11449793D01*
X12896372Y-11449793D02*
X12915420Y-11440269D01*
X12915420Y-11440269D02*
X12924944Y-11430746D01*
X12924944Y-11430746D02*
X12934467Y-11411698D01*
X13105896Y-11392650D02*
X13105896Y-11525984D01*
X13058277Y-11316460D02*
X13010658Y-11459317D01*
X13010658Y-11459317D02*
X13134467Y-11459317D01*
X13201134Y-11325984D02*
X13201134Y-11364079D01*
X13277325Y-11325984D02*
X13277325Y-11364079D01*
X13572563Y-11602174D02*
X13563039Y-11592650D01*
X13563039Y-11592650D02*
X13543991Y-11564079D01*
X13543991Y-11564079D02*
X13534468Y-11545031D01*
X13534468Y-11545031D02*
X13524944Y-11516460D01*
X13524944Y-11516460D02*
X13515420Y-11468841D01*
X13515420Y-11468841D02*
X13515420Y-11430746D01*
X13515420Y-11430746D02*
X13524944Y-11383127D01*
X13524944Y-11383127D02*
X13534468Y-11354555D01*
X13534468Y-11354555D02*
X13543991Y-11335508D01*
X13543991Y-11335508D02*
X13563039Y-11306936D01*
X13563039Y-11306936D02*
X13572563Y-11297412D01*
X13629706Y-11325984D02*
X13753515Y-11325984D01*
X13753515Y-11325984D02*
X13686848Y-11402174D01*
X13686848Y-11402174D02*
X13715420Y-11402174D01*
X13715420Y-11402174D02*
X13734468Y-11411698D01*
X13734468Y-11411698D02*
X13743991Y-11421222D01*
X13743991Y-11421222D02*
X13753515Y-11440269D01*
X13753515Y-11440269D02*
X13753515Y-11487888D01*
X13753515Y-11487888D02*
X13743991Y-11506936D01*
X13743991Y-11506936D02*
X13734468Y-11516460D01*
X13734468Y-11516460D02*
X13715420Y-11525984D01*
X13715420Y-11525984D02*
X13658277Y-11525984D01*
X13658277Y-11525984D02*
X13639229Y-11516460D01*
X13639229Y-11516460D02*
X13629706Y-11506936D01*
X13991610Y-11525984D02*
X13991610Y-11325984D01*
X14077325Y-11525984D02*
X14077325Y-11421222D01*
X14077325Y-11421222D02*
X14067801Y-11402174D01*
X14067801Y-11402174D02*
X14048753Y-11392650D01*
X14048753Y-11392650D02*
X14020182Y-11392650D01*
X14020182Y-11392650D02*
X14001134Y-11402174D01*
X14001134Y-11402174D02*
X13991610Y-11411698D01*
X14201134Y-11525984D02*
X14182087Y-11516460D01*
X14182087Y-11516460D02*
X14172563Y-11506936D01*
X14172563Y-11506936D02*
X14163039Y-11487888D01*
X14163039Y-11487888D02*
X14163039Y-11430746D01*
X14163039Y-11430746D02*
X14172563Y-11411698D01*
X14172563Y-11411698D02*
X14182087Y-11402174D01*
X14182087Y-11402174D02*
X14201134Y-11392650D01*
X14201134Y-11392650D02*
X14229706Y-11392650D01*
X14229706Y-11392650D02*
X14248753Y-11402174D01*
X14248753Y-11402174D02*
X14258277Y-11411698D01*
X14258277Y-11411698D02*
X14267801Y-11430746D01*
X14267801Y-11430746D02*
X14267801Y-11487888D01*
X14267801Y-11487888D02*
X14258277Y-11506936D01*
X14258277Y-11506936D02*
X14248753Y-11516460D01*
X14248753Y-11516460D02*
X14229706Y-11525984D01*
X14229706Y-11525984D02*
X14201134Y-11525984D01*
X14382087Y-11525984D02*
X14363039Y-11516460D01*
X14363039Y-11516460D02*
X14353515Y-11497412D01*
X14353515Y-11497412D02*
X14353515Y-11325984D01*
X14534468Y-11516460D02*
X14515420Y-11525984D01*
X14515420Y-11525984D02*
X14477325Y-11525984D01*
X14477325Y-11525984D02*
X14458277Y-11516460D01*
X14458277Y-11516460D02*
X14448753Y-11497412D01*
X14448753Y-11497412D02*
X14448753Y-11421222D01*
X14448753Y-11421222D02*
X14458277Y-11402174D01*
X14458277Y-11402174D02*
X14477325Y-11392650D01*
X14477325Y-11392650D02*
X14515420Y-11392650D01*
X14515420Y-11392650D02*
X14534468Y-11402174D01*
X14534468Y-11402174D02*
X14543991Y-11421222D01*
X14543991Y-11421222D02*
X14543991Y-11440269D01*
X14543991Y-11440269D02*
X14448753Y-11459317D01*
X14620182Y-11516460D02*
X14639230Y-11525984D01*
X14639230Y-11525984D02*
X14677325Y-11525984D01*
X14677325Y-11525984D02*
X14696372Y-11516460D01*
X14696372Y-11516460D02*
X14705896Y-11497412D01*
X14705896Y-11497412D02*
X14705896Y-11487888D01*
X14705896Y-11487888D02*
X14696372Y-11468841D01*
X14696372Y-11468841D02*
X14677325Y-11459317D01*
X14677325Y-11459317D02*
X14648753Y-11459317D01*
X14648753Y-11459317D02*
X14629706Y-11449793D01*
X14629706Y-11449793D02*
X14620182Y-11430746D01*
X14620182Y-11430746D02*
X14620182Y-11421222D01*
X14620182Y-11421222D02*
X14629706Y-11402174D01*
X14629706Y-11402174D02*
X14648753Y-11392650D01*
X14648753Y-11392650D02*
X14677325Y-11392650D01*
X14677325Y-11392650D02*
X14696372Y-11402174D01*
X14772563Y-11602174D02*
X14782087Y-11592650D01*
X14782087Y-11592650D02*
X14801134Y-11564079D01*
X14801134Y-11564079D02*
X14810658Y-11545031D01*
X14810658Y-11545031D02*
X14820182Y-11516460D01*
X14820182Y-11516460D02*
X14829706Y-11468841D01*
X14829706Y-11468841D02*
X14829706Y-11430746D01*
X14829706Y-11430746D02*
X14820182Y-11383127D01*
X14820182Y-11383127D02*
X14810658Y-11354555D01*
X14810658Y-11354555D02*
X14801134Y-11335508D01*
X14801134Y-11335508D02*
X14782087Y-11306936D01*
X14782087Y-11306936D02*
X14772563Y-11297412D01*
D13*
X9942500Y-11753500D02*
X9997500Y-11698500D01*
X9942500Y-11643500D01*
X9887500Y-11698500D01*
X9942500Y-11753500D01*
D11*
X10363039Y-11789984D02*
X10248753Y-11789984D01*
X10305896Y-11789984D02*
X10305896Y-11589984D01*
X10305896Y-11589984D02*
X10286848Y-11618555D01*
X10286848Y-11618555D02*
X10267801Y-11637603D01*
X10267801Y-11637603D02*
X10248753Y-11647127D01*
X10448753Y-11770936D02*
X10458277Y-11780460D01*
X10458277Y-11780460D02*
X10448753Y-11789984D01*
X10448753Y-11789984D02*
X10439229Y-11780460D01*
X10439229Y-11780460D02*
X10448753Y-11770936D01*
X10448753Y-11770936D02*
X10448753Y-11789984D01*
X10648753Y-11789984D02*
X10534467Y-11789984D01*
X10591610Y-11789984D02*
X10591610Y-11589984D01*
X10591610Y-11589984D02*
X10572563Y-11618555D01*
X10572563Y-11618555D02*
X10553515Y-11637603D01*
X10553515Y-11637603D02*
X10534467Y-11647127D01*
X10772563Y-11589984D02*
X10791610Y-11589984D01*
X10791610Y-11589984D02*
X10810658Y-11599508D01*
X10810658Y-11599508D02*
X10820182Y-11609031D01*
X10820182Y-11609031D02*
X10829705Y-11628079D01*
X10829705Y-11628079D02*
X10839229Y-11666174D01*
X10839229Y-11666174D02*
X10839229Y-11713793D01*
X10839229Y-11713793D02*
X10829705Y-11751888D01*
X10829705Y-11751888D02*
X10820182Y-11770936D01*
X10820182Y-11770936D02*
X10810658Y-11780460D01*
X10810658Y-11780460D02*
X10791610Y-11789984D01*
X10791610Y-11789984D02*
X10772563Y-11789984D01*
X10772563Y-11789984D02*
X10753515Y-11780460D01*
X10753515Y-11780460D02*
X10743991Y-11770936D01*
X10743991Y-11770936D02*
X10734467Y-11751888D01*
X10734467Y-11751888D02*
X10724944Y-11713793D01*
X10724944Y-11713793D02*
X10724944Y-11666174D01*
X10724944Y-11666174D02*
X10734467Y-11628079D01*
X10734467Y-11628079D02*
X10743991Y-11609031D01*
X10743991Y-11609031D02*
X10753515Y-11599508D01*
X10753515Y-11599508D02*
X10772563Y-11589984D01*
X10963039Y-11589984D02*
X10982086Y-11589984D01*
X10982086Y-11589984D02*
X11001134Y-11599508D01*
X11001134Y-11599508D02*
X11010658Y-11609031D01*
X11010658Y-11609031D02*
X11020182Y-11628079D01*
X11020182Y-11628079D02*
X11029705Y-11666174D01*
X11029705Y-11666174D02*
X11029705Y-11713793D01*
X11029705Y-11713793D02*
X11020182Y-11751888D01*
X11020182Y-11751888D02*
X11010658Y-11770936D01*
X11010658Y-11770936D02*
X11001134Y-11780460D01*
X11001134Y-11780460D02*
X10982086Y-11789984D01*
X10982086Y-11789984D02*
X10963039Y-11789984D01*
X10963039Y-11789984D02*
X10943991Y-11780460D01*
X10943991Y-11780460D02*
X10934467Y-11770936D01*
X10934467Y-11770936D02*
X10924944Y-11751888D01*
X10924944Y-11751888D02*
X10915420Y-11713793D01*
X10915420Y-11713793D02*
X10915420Y-11666174D01*
X10915420Y-11666174D02*
X10924944Y-11628079D01*
X10924944Y-11628079D02*
X10934467Y-11609031D01*
X10934467Y-11609031D02*
X10943991Y-11599508D01*
X10943991Y-11599508D02*
X10963039Y-11589984D01*
X11115420Y-11789984D02*
X11115420Y-11656650D01*
X11115420Y-11675698D02*
X11124944Y-11666174D01*
X11124944Y-11666174D02*
X11143991Y-11656650D01*
X11143991Y-11656650D02*
X11172563Y-11656650D01*
X11172563Y-11656650D02*
X11191610Y-11666174D01*
X11191610Y-11666174D02*
X11201134Y-11685222D01*
X11201134Y-11685222D02*
X11201134Y-11789984D01*
X11201134Y-11685222D02*
X11210658Y-11666174D01*
X11210658Y-11666174D02*
X11229705Y-11656650D01*
X11229705Y-11656650D02*
X11258277Y-11656650D01*
X11258277Y-11656650D02*
X11277324Y-11666174D01*
X11277324Y-11666174D02*
X11286848Y-11685222D01*
X11286848Y-11685222D02*
X11286848Y-11789984D01*
X11382086Y-11789984D02*
X11382086Y-11656650D01*
X11382086Y-11675698D02*
X11391610Y-11666174D01*
X11391610Y-11666174D02*
X11410658Y-11656650D01*
X11410658Y-11656650D02*
X11439229Y-11656650D01*
X11439229Y-11656650D02*
X11458277Y-11666174D01*
X11458277Y-11666174D02*
X11467801Y-11685222D01*
X11467801Y-11685222D02*
X11467801Y-11789984D01*
X11467801Y-11685222D02*
X11477324Y-11666174D01*
X11477324Y-11666174D02*
X11496372Y-11656650D01*
X11496372Y-11656650D02*
X11524943Y-11656650D01*
X11524943Y-11656650D02*
X11543991Y-11666174D01*
X11543991Y-11666174D02*
X11553515Y-11685222D01*
X11553515Y-11685222D02*
X11553515Y-11789984D01*
X11943991Y-11580460D02*
X11772563Y-11837603D01*
X12201134Y-11589984D02*
X12220182Y-11589984D01*
X12220182Y-11589984D02*
X12239229Y-11599508D01*
X12239229Y-11599508D02*
X12248753Y-11609031D01*
X12248753Y-11609031D02*
X12258277Y-11628079D01*
X12258277Y-11628079D02*
X12267801Y-11666174D01*
X12267801Y-11666174D02*
X12267801Y-11713793D01*
X12267801Y-11713793D02*
X12258277Y-11751888D01*
X12258277Y-11751888D02*
X12248753Y-11770936D01*
X12248753Y-11770936D02*
X12239229Y-11780460D01*
X12239229Y-11780460D02*
X12220182Y-11789984D01*
X12220182Y-11789984D02*
X12201134Y-11789984D01*
X12201134Y-11789984D02*
X12182086Y-11780460D01*
X12182086Y-11780460D02*
X12172563Y-11770936D01*
X12172563Y-11770936D02*
X12163039Y-11751888D01*
X12163039Y-11751888D02*
X12153515Y-11713793D01*
X12153515Y-11713793D02*
X12153515Y-11666174D01*
X12153515Y-11666174D02*
X12163039Y-11628079D01*
X12163039Y-11628079D02*
X12172563Y-11609031D01*
X12172563Y-11609031D02*
X12182086Y-11599508D01*
X12182086Y-11599508D02*
X12201134Y-11589984D01*
X12353515Y-11770936D02*
X12363039Y-11780460D01*
X12363039Y-11780460D02*
X12353515Y-11789984D01*
X12353515Y-11789984D02*
X12343991Y-11780460D01*
X12343991Y-11780460D02*
X12353515Y-11770936D01*
X12353515Y-11770936D02*
X12353515Y-11789984D01*
X12486848Y-11589984D02*
X12505896Y-11589984D01*
X12505896Y-11589984D02*
X12524944Y-11599508D01*
X12524944Y-11599508D02*
X12534467Y-11609031D01*
X12534467Y-11609031D02*
X12543991Y-11628079D01*
X12543991Y-11628079D02*
X12553515Y-11666174D01*
X12553515Y-11666174D02*
X12553515Y-11713793D01*
X12553515Y-11713793D02*
X12543991Y-11751888D01*
X12543991Y-11751888D02*
X12534467Y-11770936D01*
X12534467Y-11770936D02*
X12524944Y-11780460D01*
X12524944Y-11780460D02*
X12505896Y-11789984D01*
X12505896Y-11789984D02*
X12486848Y-11789984D01*
X12486848Y-11789984D02*
X12467801Y-11780460D01*
X12467801Y-11780460D02*
X12458277Y-11770936D01*
X12458277Y-11770936D02*
X12448753Y-11751888D01*
X12448753Y-11751888D02*
X12439229Y-11713793D01*
X12439229Y-11713793D02*
X12439229Y-11666174D01*
X12439229Y-11666174D02*
X12448753Y-11628079D01*
X12448753Y-11628079D02*
X12458277Y-11609031D01*
X12458277Y-11609031D02*
X12467801Y-11599508D01*
X12467801Y-11599508D02*
X12486848Y-11589984D01*
X12724944Y-11656650D02*
X12724944Y-11789984D01*
X12677325Y-11580460D02*
X12629706Y-11723317D01*
X12629706Y-11723317D02*
X12753515Y-11723317D01*
X12810658Y-11589984D02*
X12934467Y-11589984D01*
X12934467Y-11589984D02*
X12867801Y-11666174D01*
X12867801Y-11666174D02*
X12896372Y-11666174D01*
X12896372Y-11666174D02*
X12915420Y-11675698D01*
X12915420Y-11675698D02*
X12924944Y-11685222D01*
X12924944Y-11685222D02*
X12934467Y-11704269D01*
X12934467Y-11704269D02*
X12934467Y-11751888D01*
X12934467Y-11751888D02*
X12924944Y-11770936D01*
X12924944Y-11770936D02*
X12915420Y-11780460D01*
X12915420Y-11780460D02*
X12896372Y-11789984D01*
X12896372Y-11789984D02*
X12839229Y-11789984D01*
X12839229Y-11789984D02*
X12820182Y-11780460D01*
X12820182Y-11780460D02*
X12810658Y-11770936D01*
X13001134Y-11589984D02*
X13124944Y-11589984D01*
X13124944Y-11589984D02*
X13058277Y-11666174D01*
X13058277Y-11666174D02*
X13086848Y-11666174D01*
X13086848Y-11666174D02*
X13105896Y-11675698D01*
X13105896Y-11675698D02*
X13115420Y-11685222D01*
X13115420Y-11685222D02*
X13124944Y-11704269D01*
X13124944Y-11704269D02*
X13124944Y-11751888D01*
X13124944Y-11751888D02*
X13115420Y-11770936D01*
X13115420Y-11770936D02*
X13105896Y-11780460D01*
X13105896Y-11780460D02*
X13086848Y-11789984D01*
X13086848Y-11789984D02*
X13029706Y-11789984D01*
X13029706Y-11789984D02*
X13010658Y-11780460D01*
X13010658Y-11780460D02*
X13001134Y-11770936D01*
X13201134Y-11589984D02*
X13201134Y-11628079D01*
X13277325Y-11589984D02*
X13277325Y-11628079D01*
X13572563Y-11866174D02*
X13563039Y-11856650D01*
X13563039Y-11856650D02*
X13543991Y-11828079D01*
X13543991Y-11828079D02*
X13534468Y-11809031D01*
X13534468Y-11809031D02*
X13524944Y-11780460D01*
X13524944Y-11780460D02*
X13515420Y-11732841D01*
X13515420Y-11732841D02*
X13515420Y-11694746D01*
X13515420Y-11694746D02*
X13524944Y-11647127D01*
X13524944Y-11647127D02*
X13534468Y-11618555D01*
X13534468Y-11618555D02*
X13543991Y-11599508D01*
X13543991Y-11599508D02*
X13563039Y-11570936D01*
X13563039Y-11570936D02*
X13572563Y-11561412D01*
X13734468Y-11656650D02*
X13734468Y-11789984D01*
X13686848Y-11580460D02*
X13639229Y-11723317D01*
X13639229Y-11723317D02*
X13763039Y-11723317D01*
X13991610Y-11789984D02*
X13991610Y-11589984D01*
X14077325Y-11789984D02*
X14077325Y-11685222D01*
X14077325Y-11685222D02*
X14067801Y-11666174D01*
X14067801Y-11666174D02*
X14048753Y-11656650D01*
X14048753Y-11656650D02*
X14020182Y-11656650D01*
X14020182Y-11656650D02*
X14001134Y-11666174D01*
X14001134Y-11666174D02*
X13991610Y-11675698D01*
X14201134Y-11789984D02*
X14182087Y-11780460D01*
X14182087Y-11780460D02*
X14172563Y-11770936D01*
X14172563Y-11770936D02*
X14163039Y-11751888D01*
X14163039Y-11751888D02*
X14163039Y-11694746D01*
X14163039Y-11694746D02*
X14172563Y-11675698D01*
X14172563Y-11675698D02*
X14182087Y-11666174D01*
X14182087Y-11666174D02*
X14201134Y-11656650D01*
X14201134Y-11656650D02*
X14229706Y-11656650D01*
X14229706Y-11656650D02*
X14248753Y-11666174D01*
X14248753Y-11666174D02*
X14258277Y-11675698D01*
X14258277Y-11675698D02*
X14267801Y-11694746D01*
X14267801Y-11694746D02*
X14267801Y-11751888D01*
X14267801Y-11751888D02*
X14258277Y-11770936D01*
X14258277Y-11770936D02*
X14248753Y-11780460D01*
X14248753Y-11780460D02*
X14229706Y-11789984D01*
X14229706Y-11789984D02*
X14201134Y-11789984D01*
X14382087Y-11789984D02*
X14363039Y-11780460D01*
X14363039Y-11780460D02*
X14353515Y-11761412D01*
X14353515Y-11761412D02*
X14353515Y-11589984D01*
X14534468Y-11780460D02*
X14515420Y-11789984D01*
X14515420Y-11789984D02*
X14477325Y-11789984D01*
X14477325Y-11789984D02*
X14458277Y-11780460D01*
X14458277Y-11780460D02*
X14448753Y-11761412D01*
X14448753Y-11761412D02*
X14448753Y-11685222D01*
X14448753Y-11685222D02*
X14458277Y-11666174D01*
X14458277Y-11666174D02*
X14477325Y-11656650D01*
X14477325Y-11656650D02*
X14515420Y-11656650D01*
X14515420Y-11656650D02*
X14534468Y-11666174D01*
X14534468Y-11666174D02*
X14543991Y-11685222D01*
X14543991Y-11685222D02*
X14543991Y-11704269D01*
X14543991Y-11704269D02*
X14448753Y-11723317D01*
X14620182Y-11780460D02*
X14639230Y-11789984D01*
X14639230Y-11789984D02*
X14677325Y-11789984D01*
X14677325Y-11789984D02*
X14696372Y-11780460D01*
X14696372Y-11780460D02*
X14705896Y-11761412D01*
X14705896Y-11761412D02*
X14705896Y-11751888D01*
X14705896Y-11751888D02*
X14696372Y-11732841D01*
X14696372Y-11732841D02*
X14677325Y-11723317D01*
X14677325Y-11723317D02*
X14648753Y-11723317D01*
X14648753Y-11723317D02*
X14629706Y-11713793D01*
X14629706Y-11713793D02*
X14620182Y-11694746D01*
X14620182Y-11694746D02*
X14620182Y-11685222D01*
X14620182Y-11685222D02*
X14629706Y-11666174D01*
X14629706Y-11666174D02*
X14648753Y-11656650D01*
X14648753Y-11656650D02*
X14677325Y-11656650D01*
X14677325Y-11656650D02*
X14696372Y-11666174D01*
X14772563Y-11866174D02*
X14782087Y-11856650D01*
X14782087Y-11856650D02*
X14801134Y-11828079D01*
X14801134Y-11828079D02*
X14810658Y-11809031D01*
X14810658Y-11809031D02*
X14820182Y-11780460D01*
X14820182Y-11780460D02*
X14829706Y-11732841D01*
X14829706Y-11732841D02*
X14829706Y-11694746D01*
X14829706Y-11694746D02*
X14820182Y-11647127D01*
X14820182Y-11647127D02*
X14810658Y-11618555D01*
X14810658Y-11618555D02*
X14801134Y-11599508D01*
X14801134Y-11599508D02*
X14782087Y-11570936D01*
X14782087Y-11570936D02*
X14772563Y-11561412D01*
M02*
