M48
; DRILL file {KiCad 8.0.0} date 2024-09-29T18:30:25+0900
; FORMAT={-:-/ absolute / metric / decimal}
; #@! TF.CreationDate,2024-09-29T18:30:25+09:00
; #@! TF.GenerationSoftware,Kicad,Pcbnew,8.0.0
; #@! TF.FileFunction,Plated,1,2,PTH
FMAT,2
METRIC
; #@! TA.AperFunction,Plated,PTH,ViaDrill
T1C0.300
; #@! TA.AperFunction,Plated,PTH,ComponentDrill
T2C0.750
; #@! TA.AperFunction,Plated,PTH,ComponentDrill
T3C0.800
; #@! TA.AperFunction,Plated,PTH,ComponentDrill
T4C1.000
; #@! TA.AperFunction,Plated,PTH,ComponentDrill
T5C1.100
%
G90
G05
T1
X101.0Y-71.0
X101.0Y-72.0
X102.0Y-66.0
X102.25Y-87.5
X103.0Y-66.0
X103.75Y-86.25
X113.75Y-72.25
X115.0Y-70.0
X115.0Y-71.0
X115.5Y-75.0
X115.5Y-75.75
X115.5Y-86.75
X116.75Y-75.0
X117.5Y-81.0
X120.25Y-75.0
X121.25Y-72.25
X121.5Y-75.0
X122.75Y-96.0
X123.987Y-96.75
X124.0Y-95.0
X126.0Y-81.0
X126.25Y-72.75
X127.25Y-66.75
X127.25Y-77.25
X127.25Y-80.5
X128.5Y-80.25
X128.75Y-86.25
X128.75Y-89.25
X129.25Y-95.0
X130.5Y-95.0
X131.5Y-83.5
X134.75Y-81.25
X140.0Y-82.0
X140.0Y-83.0
X141.5Y-75.25
X141.5Y-76.75
X141.5Y-82.0
X141.5Y-82.873
X144.0Y-76.0
X144.75Y-97.5
X145.25Y-90.4
X145.25Y-97.0
X145.5Y-89.5
X145.744Y-98.494
X146.438Y-88.4
X146.487Y-97.75
X146.5Y-89.25
T2
X103.2Y-76.5
X103.2Y-78.5
X103.8Y-84.8
X104.0Y-97.5
X105.07Y-84.8
X106.0Y-97.5
X106.34Y-84.8
X111.98Y-77.64
X113.25Y-77.64
X113.5Y-97.55
X114.52Y-77.64
X115.5Y-97.55
X147.0Y-81.75
X147.0Y-83.75
T3
X103.0Y-68.75
X105.5Y-68.75
X123.237Y-87.42
X123.237Y-92.5
X125.777Y-89.96
X129.88Y-69.13
X129.88Y-71.67
X129.88Y-74.21
X129.88Y-76.75
X137.5Y-69.13
X137.5Y-71.67
X137.5Y-74.21
X137.5Y-76.75
T4
X147.75Y-67.67
X147.75Y-70.21
X147.75Y-72.75
T5
X117.25Y-67.75
X117.25Y-72.25
X123.75Y-67.75
X123.75Y-72.25
M30
