%TF.GenerationSoftware,KiCad,Pcbnew,8.0.0*%
%TF.CreationDate,2024-09-29T18:30:20+09:00*%
%TF.ProjectId,tiny402_sounds_player_V2_0807_,74696e79-3430-4325-9f73-6f756e64735f,rev?*%
%TF.SameCoordinates,Original*%
%TF.FileFunction,Soldermask,Top*%
%TF.FilePolarity,Negative*%
%FSLAX46Y46*%
G04 Gerber Fmt 4.6, Leading zero omitted, Abs format (unit mm)*
G04 Created by KiCad (PCBNEW 8.0.0) date 2024-09-29 18:30:20*
%MOMM*%
%LPD*%
G01*
G04 APERTURE LIST*
G04 Aperture macros list*
%AMRoundRect*
0 Rectangle with rounded corners*
0 $1 Rounding radius*
0 $2 $3 $4 $5 $6 $7 $8 $9 X,Y pos of 4 corners*
0 Add a 4 corners polygon primitive as box body*
4,1,4,$2,$3,$4,$5,$6,$7,$8,$9,$2,$3,0*
0 Add four circle primitives for the rounded corners*
1,1,$1+$1,$2,$3*
1,1,$1+$1,$4,$5*
1,1,$1+$1,$6,$7*
1,1,$1+$1,$8,$9*
0 Add four rect primitives between the rounded corners*
20,1,$1+$1,$2,$3,$4,$5,0*
20,1,$1+$1,$4,$5,$6,$7,0*
20,1,$1+$1,$6,$7,$8,$9,0*
20,1,$1+$1,$8,$9,$2,$3,0*%
G04 Aperture macros list end*
%ADD10C,0.100000*%
%ADD11RoundRect,0.250000X0.262500X0.450000X-0.262500X0.450000X-0.262500X-0.450000X0.262500X-0.450000X0*%
%ADD12RoundRect,0.250000X0.475000X-0.250000X0.475000X0.250000X-0.475000X0.250000X-0.475000X-0.250000X0*%
%ADD13RoundRect,0.250000X-0.262500X-0.450000X0.262500X-0.450000X0.262500X0.450000X-0.262500X0.450000X0*%
%ADD14RoundRect,0.250000X0.450000X-0.262500X0.450000X0.262500X-0.450000X0.262500X-0.450000X-0.262500X0*%
%ADD15RoundRect,0.250000X-0.475000X0.250000X-0.475000X-0.250000X0.475000X-0.250000X0.475000X0.250000X0*%
%ADD16RoundRect,0.150000X-0.725000X-0.150000X0.725000X-0.150000X0.725000X0.150000X-0.725000X0.150000X0*%
%ADD17RoundRect,0.150000X-0.825000X-0.150000X0.825000X-0.150000X0.825000X0.150000X-0.825000X0.150000X0*%
%ADD18R,1.200000X1.200000*%
%ADD19RoundRect,0.250000X0.625000X-0.350000X0.625000X0.350000X-0.625000X0.350000X-0.625000X-0.350000X0*%
%ADD20O,1.750000X1.200000*%
%ADD21C,1.440000*%
%ADD22RoundRect,0.250000X-0.250000X-0.475000X0.250000X-0.475000X0.250000X0.475000X-0.250000X0.475000X0*%
%ADD23RoundRect,0.225000X0.225000X0.375000X-0.225000X0.375000X-0.225000X-0.375000X0.225000X-0.375000X0*%
%ADD24R,1.600000X1.600000*%
%ADD25C,1.600000*%
%ADD26RoundRect,0.225000X0.375000X-0.225000X0.375000X0.225000X-0.375000X0.225000X-0.375000X-0.225000X0*%
%ADD27R,1.700000X1.700000*%
%ADD28O,1.700000X1.700000*%
%ADD29RoundRect,0.250000X0.350000X0.625000X-0.350000X0.625000X-0.350000X-0.625000X0.350000X-0.625000X0*%
%ADD30O,1.200000X1.750000*%
%ADD31R,1.050000X1.500000*%
%ADD32O,1.050000X1.500000*%
%ADD33C,2.000000*%
%ADD34RoundRect,0.250000X-0.625000X0.350000X-0.625000X-0.350000X0.625000X-0.350000X0.625000X0.350000X0*%
%ADD35RoundRect,0.243750X-0.243750X-0.456250X0.243750X-0.456250X0.243750X0.456250X-0.243750X0.456250X0*%
G04 APERTURE END LIST*
D10*
X14000000Y-58000000D02*
G75*
G02*
X12000000Y-58000000I-1000000J0D01*
G01*
X12000000Y-58000000D02*
G75*
G02*
X14000000Y-58000000I1000000J0D01*
G01*
D11*
%TO.C,R5*%
X112625000Y-71250000D03*
X110800000Y-71250000D03*
%TD*%
D12*
%TO.C,C7*%
X143587500Y-90350000D03*
X143587500Y-88450000D03*
%TD*%
D13*
%TO.C,R16*%
X130425000Y-87500000D03*
X132250000Y-87500000D03*
%TD*%
D14*
%TO.C,R14*%
X120987500Y-92920000D03*
X120987500Y-91095000D03*
%TD*%
D15*
%TO.C,C5*%
X141500000Y-72100000D03*
X141500000Y-74000000D03*
%TD*%
D16*
%TO.C,U4*%
X134837500Y-87845000D03*
X134837500Y-89115000D03*
X134837500Y-90385000D03*
X134837500Y-91655000D03*
X139987500Y-91655000D03*
X139987500Y-90385000D03*
X139987500Y-89115000D03*
X139987500Y-87845000D03*
%TD*%
D17*
%TO.C,U2*%
X119300000Y-77230000D03*
X119300000Y-78500000D03*
X119300000Y-79770000D03*
X119300000Y-81040000D03*
X124250000Y-81040000D03*
X124250000Y-79770000D03*
X124250000Y-78500000D03*
X124250000Y-77230000D03*
%TD*%
D18*
%TO.C,D4*%
X141500000Y-69750000D03*
X141500000Y-66950000D03*
%TD*%
D11*
%TO.C,R4*%
X115000000Y-83500000D03*
X113175000Y-83500000D03*
%TD*%
D19*
%TO.C,J2*%
X103200000Y-78500000D03*
D20*
X103200000Y-76500000D03*
%TD*%
D13*
%TO.C,R8*%
X132837500Y-83500000D03*
X134662500Y-83500000D03*
%TD*%
D21*
%TO.C,RV1*%
X123237500Y-92500000D03*
X125777500Y-89960000D03*
X123237500Y-87420000D03*
%TD*%
D22*
%TO.C,C8*%
X125500000Y-98000000D03*
X127400000Y-98000000D03*
%TD*%
D23*
%TO.C,D6*%
X105605000Y-89750000D03*
X102305000Y-89750000D03*
%TD*%
D15*
%TO.C,C9*%
X130987500Y-90800000D03*
X130987500Y-92700000D03*
%TD*%
D24*
%TO.C,C1*%
X105500000Y-68750000D03*
D25*
X103000000Y-68750000D03*
%TD*%
D11*
%TO.C,R13*%
X114325000Y-86750000D03*
X112500000Y-86750000D03*
%TD*%
D26*
%TO.C,D5*%
X109500000Y-92150000D03*
X109500000Y-88850000D03*
%TD*%
D14*
%TO.C,R11*%
X109250000Y-85500000D03*
X109250000Y-83675000D03*
%TD*%
D27*
%TO.C,J4*%
X147750000Y-67670000D03*
D28*
X147750000Y-70210000D03*
X147750000Y-72750000D03*
%TD*%
D13*
%TO.C,R6*%
X128675000Y-83500000D03*
X130500000Y-83500000D03*
%TD*%
D22*
%TO.C,C6*%
X120050000Y-97787500D03*
X121950000Y-97787500D03*
%TD*%
D29*
%TO.C,J6*%
X106000000Y-97500000D03*
D30*
X104000000Y-97500000D03*
%TD*%
D29*
%TO.C,J1*%
X115500000Y-97550000D03*
D30*
X113500000Y-97550000D03*
%TD*%
D13*
%TO.C,R10*%
X130325000Y-98000000D03*
X132150000Y-98000000D03*
%TD*%
D31*
%TO.C,Q3*%
X103800000Y-84800000D03*
D32*
X105070000Y-84800000D03*
X106340000Y-84800000D03*
%TD*%
D15*
%TO.C,C2*%
X109750000Y-95800000D03*
X109750000Y-97700000D03*
%TD*%
D33*
%TO.C,SW1*%
X117250000Y-67750000D03*
X123750000Y-67750000D03*
X117250000Y-72250000D03*
X123750000Y-72250000D03*
%TD*%
D26*
%TO.C,D1*%
X107750000Y-78500000D03*
X107750000Y-75200000D03*
%TD*%
D11*
%TO.C,R9*%
X115000000Y-90000000D03*
X113175000Y-90000000D03*
%TD*%
D34*
%TO.C,J5*%
X147000000Y-81750000D03*
D20*
X147000000Y-83750000D03*
%TD*%
D22*
%TO.C,C10*%
X136600000Y-98020000D03*
X138500000Y-98020000D03*
%TD*%
D24*
%TO.C,U3*%
X129880000Y-69130000D03*
D25*
X129880000Y-71670000D03*
X129880000Y-74210000D03*
X129880000Y-76750000D03*
X137500000Y-76750000D03*
X137500000Y-74210000D03*
X137500000Y-71670000D03*
X137500000Y-69130000D03*
%TD*%
D13*
%TO.C,R12*%
X136575000Y-94750000D03*
X138400000Y-94750000D03*
%TD*%
D31*
%TO.C,Q1*%
X114520000Y-77640000D03*
D32*
X113250000Y-77640000D03*
X111980000Y-77640000D03*
%TD*%
D22*
%TO.C,C4*%
X122850000Y-75000000D03*
X124750000Y-75000000D03*
%TD*%
D14*
%TO.C,R15*%
X120987500Y-88670000D03*
X120987500Y-86845000D03*
%TD*%
D35*
%TO.C,D2*%
X110750000Y-67500000D03*
X112625000Y-67500000D03*
%TD*%
M02*
