%TF.GenerationSoftware,KiCad,Pcbnew,8.0.0*%
%TF.CreationDate,2024-09-29T18:30:20+09:00*%
%TF.ProjectId,tiny402_sounds_player_V2_0807_,74696e79-3430-4325-9f73-6f756e64735f,rev?*%
%TF.SameCoordinates,Original*%
%TF.FileFunction,Copper,L1,Top*%
%TF.FilePolarity,Positive*%
%FSLAX46Y46*%
G04 Gerber Fmt 4.6, Leading zero omitted, Abs format (unit mm)*
G04 Created by KiCad (PCBNEW 8.0.0) date 2024-09-29 18:30:20*
%MOMM*%
%LPD*%
G01*
G04 APERTURE LIST*
G04 Aperture macros list*
%AMRoundRect*
0 Rectangle with rounded corners*
0 $1 Rounding radius*
0 $2 $3 $4 $5 $6 $7 $8 $9 X,Y pos of 4 corners*
0 Add a 4 corners polygon primitive as box body*
4,1,4,$2,$3,$4,$5,$6,$7,$8,$9,$2,$3,0*
0 Add four circle primitives for the rounded corners*
1,1,$1+$1,$2,$3*
1,1,$1+$1,$4,$5*
1,1,$1+$1,$6,$7*
1,1,$1+$1,$8,$9*
0 Add four rect primitives between the rounded corners*
20,1,$1+$1,$2,$3,$4,$5,0*
20,1,$1+$1,$4,$5,$6,$7,0*
20,1,$1+$1,$6,$7,$8,$9,0*
20,1,$1+$1,$8,$9,$2,$3,0*%
G04 Aperture macros list end*
%TA.AperFunction,SMDPad,CuDef*%
%ADD10RoundRect,0.250000X0.262500X0.450000X-0.262500X0.450000X-0.262500X-0.450000X0.262500X-0.450000X0*%
%TD*%
%TA.AperFunction,SMDPad,CuDef*%
%ADD11RoundRect,0.250000X0.475000X-0.250000X0.475000X0.250000X-0.475000X0.250000X-0.475000X-0.250000X0*%
%TD*%
%TA.AperFunction,SMDPad,CuDef*%
%ADD12RoundRect,0.250000X-0.262500X-0.450000X0.262500X-0.450000X0.262500X0.450000X-0.262500X0.450000X0*%
%TD*%
%TA.AperFunction,SMDPad,CuDef*%
%ADD13RoundRect,0.250000X0.450000X-0.262500X0.450000X0.262500X-0.450000X0.262500X-0.450000X-0.262500X0*%
%TD*%
%TA.AperFunction,SMDPad,CuDef*%
%ADD14RoundRect,0.250000X-0.475000X0.250000X-0.475000X-0.250000X0.475000X-0.250000X0.475000X0.250000X0*%
%TD*%
%TA.AperFunction,SMDPad,CuDef*%
%ADD15RoundRect,0.150000X-0.725000X-0.150000X0.725000X-0.150000X0.725000X0.150000X-0.725000X0.150000X0*%
%TD*%
%TA.AperFunction,SMDPad,CuDef*%
%ADD16RoundRect,0.150000X-0.825000X-0.150000X0.825000X-0.150000X0.825000X0.150000X-0.825000X0.150000X0*%
%TD*%
%TA.AperFunction,SMDPad,CuDef*%
%ADD17R,1.200000X1.200000*%
%TD*%
%TA.AperFunction,ComponentPad*%
%ADD18RoundRect,0.250000X0.625000X-0.350000X0.625000X0.350000X-0.625000X0.350000X-0.625000X-0.350000X0*%
%TD*%
%TA.AperFunction,ComponentPad*%
%ADD19O,1.750000X1.200000*%
%TD*%
%TA.AperFunction,ComponentPad*%
%ADD20C,1.440000*%
%TD*%
%TA.AperFunction,SMDPad,CuDef*%
%ADD21RoundRect,0.250000X-0.250000X-0.475000X0.250000X-0.475000X0.250000X0.475000X-0.250000X0.475000X0*%
%TD*%
%TA.AperFunction,SMDPad,CuDef*%
%ADD22RoundRect,0.225000X0.225000X0.375000X-0.225000X0.375000X-0.225000X-0.375000X0.225000X-0.375000X0*%
%TD*%
%TA.AperFunction,ComponentPad*%
%ADD23R,1.600000X1.600000*%
%TD*%
%TA.AperFunction,ComponentPad*%
%ADD24C,1.600000*%
%TD*%
%TA.AperFunction,SMDPad,CuDef*%
%ADD25RoundRect,0.225000X0.375000X-0.225000X0.375000X0.225000X-0.375000X0.225000X-0.375000X-0.225000X0*%
%TD*%
%TA.AperFunction,ComponentPad*%
%ADD26R,1.700000X1.700000*%
%TD*%
%TA.AperFunction,ComponentPad*%
%ADD27O,1.700000X1.700000*%
%TD*%
%TA.AperFunction,ComponentPad*%
%ADD28RoundRect,0.250000X0.350000X0.625000X-0.350000X0.625000X-0.350000X-0.625000X0.350000X-0.625000X0*%
%TD*%
%TA.AperFunction,ComponentPad*%
%ADD29O,1.200000X1.750000*%
%TD*%
%TA.AperFunction,ComponentPad*%
%ADD30R,1.050000X1.500000*%
%TD*%
%TA.AperFunction,ComponentPad*%
%ADD31O,1.050000X1.500000*%
%TD*%
%TA.AperFunction,ComponentPad*%
%ADD32C,2.000000*%
%TD*%
%TA.AperFunction,ComponentPad*%
%ADD33RoundRect,0.250000X-0.625000X0.350000X-0.625000X-0.350000X0.625000X-0.350000X0.625000X0.350000X0*%
%TD*%
%TA.AperFunction,SMDPad,CuDef*%
%ADD34RoundRect,0.243750X-0.243750X-0.456250X0.243750X-0.456250X0.243750X0.456250X-0.243750X0.456250X0*%
%TD*%
%TA.AperFunction,ViaPad*%
%ADD35C,0.600000*%
%TD*%
%TA.AperFunction,Conductor*%
%ADD36C,0.500000*%
%TD*%
%TA.AperFunction,Conductor*%
%ADD37C,0.800000*%
%TD*%
%TA.AperFunction,Conductor*%
%ADD38C,0.300000*%
%TD*%
G04 APERTURE END LIST*
D10*
%TO.P,R5,1*%
%TO.N,/MTR_ON*%
X112625000Y-71250000D03*
%TO.P,R5,2*%
%TO.N,Net-(D2-A)*%
X110800000Y-71250000D03*
%TD*%
D11*
%TO.P,C7,1*%
%TO.N,+3V*%
X143587500Y-90350000D03*
%TO.P,C7,2*%
%TO.N,GND*%
X143587500Y-88450000D03*
%TD*%
D12*
%TO.P,R16,1*%
%TO.N,/MTR_ON*%
X130425000Y-87500000D03*
%TO.P,R16,2*%
%TO.N,Net-(U4-SDB)*%
X132250000Y-87500000D03*
%TD*%
D13*
%TO.P,R14,1*%
%TO.N,Net-(C6-Pad1)*%
X120987500Y-92920000D03*
%TO.P,R14,2*%
%TO.N,Net-(C8-Pad1)*%
X120987500Y-91095000D03*
%TD*%
D14*
%TO.P,C5,1*%
%TO.N,+3V*%
X141500000Y-72100000D03*
%TO.P,C5,2*%
%TO.N,GND*%
X141500000Y-74000000D03*
%TD*%
D15*
%TO.P,U4,1,SDB*%
%TO.N,Net-(U4-SDB)*%
X134837500Y-87845000D03*
%TO.P,U4,2,BYPASS*%
%TO.N,Net-(U4-BYPASS)*%
X134837500Y-89115000D03*
%TO.P,U4,3,IN+*%
X134837500Y-90385000D03*
%TO.P,U4,4,IN-*%
%TO.N,Net-(U4-IN-)*%
X134837500Y-91655000D03*
%TO.P,U4,5,OUT-*%
%TO.N,Net-(J5-Pin_2)*%
X139987500Y-91655000D03*
%TO.P,U4,6,VCC*%
%TO.N,+3V*%
X139987500Y-90385000D03*
%TO.P,U4,7,GND*%
%TO.N,GND*%
X139987500Y-89115000D03*
%TO.P,U4,8,OUT+*%
%TO.N,Net-(J5-Pin_1)*%
X139987500Y-87845000D03*
%TD*%
D16*
%TO.P,U2,1,VCC*%
%TO.N,+3V*%
X119300000Y-77230000D03*
%TO.P,U2,2,PA6*%
%TO.N,/MTR_ON*%
X119300000Y-78500000D03*
%TO.P,U2,3,PA7*%
%TO.N,/MOSI_MISO*%
X119300000Y-79770000D03*
%TO.P,U2,4,PA1*%
%TO.N,/{slash}SS*%
X119300000Y-81040000D03*
%TO.P,U2,5,PA2*%
%TO.N,/SCK_SW2*%
X124250000Y-81040000D03*
%TO.P,U2,6,~{RESET}/PA0*%
%TO.N,/UPDI*%
X124250000Y-79770000D03*
%TO.P,U2,7,PA3*%
%TO.N,/PWM_P*%
X124250000Y-78500000D03*
%TO.P,U2,8,GND*%
%TO.N,GND*%
X124250000Y-77230000D03*
%TD*%
D17*
%TO.P,D4,1,K*%
%TO.N,+3V*%
X141500000Y-69750000D03*
%TO.P,D4,2,A*%
%TO.N,TG_Vdd*%
X141500000Y-66950000D03*
%TD*%
D10*
%TO.P,R4,1*%
%TO.N,/MTR_ON*%
X115000000Y-83500000D03*
%TO.P,R4,2*%
%TO.N,Net-(Q1-B)*%
X113175000Y-83500000D03*
%TD*%
D18*
%TO.P,J2,1,Pin_1*%
%TO.N,+3V*%
X103200000Y-78500000D03*
D19*
%TO.P,J2,2,Pin_2*%
%TO.N,Net-(D1-A)*%
X103200000Y-76500000D03*
%TD*%
D12*
%TO.P,R8,1*%
%TO.N,/PWM_P*%
X132837500Y-83500000D03*
%TO.P,R8,2*%
%TO.N,Net-(C6-Pad1)*%
X134662500Y-83500000D03*
%TD*%
D20*
%TO.P,RV1,1,1*%
%TO.N,Net-(C6-Pad1)*%
X123237500Y-92500000D03*
%TO.P,RV1,2,2*%
%TO.N,Net-(C8-Pad1)*%
X125777500Y-89960000D03*
%TO.P,RV1,3,3*%
%TO.N,GND*%
X123237500Y-87420000D03*
%TD*%
D21*
%TO.P,C8,1*%
%TO.N,Net-(C8-Pad1)*%
X125500000Y-98000000D03*
%TO.P,C8,2*%
%TO.N,Net-(C8-Pad2)*%
X127400000Y-98000000D03*
%TD*%
D22*
%TO.P,D6,1,K*%
%TO.N,Net-(D5-A)*%
X105605000Y-89750000D03*
%TO.P,D6,2,A*%
%TO.N,GND*%
X102305000Y-89750000D03*
%TD*%
D14*
%TO.P,C9,1*%
%TO.N,Net-(U4-BYPASS)*%
X130987500Y-90800000D03*
%TO.P,C9,2*%
%TO.N,GND*%
X130987500Y-92700000D03*
%TD*%
D23*
%TO.P,C1,1*%
%TO.N,+3V*%
X105500000Y-68750000D03*
D24*
%TO.P,C1,2*%
%TO.N,GND*%
X103000000Y-68750000D03*
%TD*%
D10*
%TO.P,R13,1*%
%TO.N,/SCK_SW2*%
X114325000Y-86750000D03*
%TO.P,R13,2*%
%TO.N,Net-(Q3-C)*%
X112500000Y-86750000D03*
%TD*%
D25*
%TO.P,D5,1,K*%
%TO.N,+3V*%
X109500000Y-92150000D03*
%TO.P,D5,2,A*%
%TO.N,Net-(D5-A)*%
X109500000Y-88850000D03*
%TD*%
D13*
%TO.P,R11,1*%
%TO.N,Net-(Q3-C)*%
X109250000Y-85500000D03*
%TO.P,R11,2*%
%TO.N,Net-(D5-A)*%
X109250000Y-83675000D03*
%TD*%
D26*
%TO.P,J4,1,Pin_1*%
%TO.N,/UPDI*%
X147750000Y-67670000D03*
D27*
%TO.P,J4,2,Pin_2*%
%TO.N,TG_Vdd*%
X147750000Y-70210000D03*
%TO.P,J4,3,Pin_3*%
%TO.N,GND*%
X147750000Y-72750000D03*
%TD*%
D12*
%TO.P,R6,1*%
%TO.N,/MOSI_MISO*%
X128675000Y-83500000D03*
%TO.P,R6,2*%
%TO.N,Net-(U3-DO(IO1))*%
X130500000Y-83500000D03*
%TD*%
D21*
%TO.P,C6,1*%
%TO.N,Net-(C6-Pad1)*%
X120050000Y-97787500D03*
%TO.P,C6,2*%
%TO.N,GND*%
X121950000Y-97787500D03*
%TD*%
D28*
%TO.P,J6,1,Pin_1*%
%TO.N,Net-(D5-A)*%
X106000000Y-97500000D03*
D29*
%TO.P,J6,2,Pin_2*%
%TO.N,GND*%
X104000000Y-97500000D03*
%TD*%
D28*
%TO.P,J1,1,Pin_1*%
%TO.N,+3V*%
X115500000Y-97550000D03*
D29*
%TO.P,J1,2,Pin_2*%
%TO.N,GND*%
X113500000Y-97550000D03*
%TD*%
D12*
%TO.P,R10,1*%
%TO.N,Net-(C8-Pad2)*%
X130325000Y-98000000D03*
%TO.P,R10,2*%
%TO.N,Net-(U4-IN-)*%
X132150000Y-98000000D03*
%TD*%
D30*
%TO.P,Q3,1,E*%
%TO.N,GND*%
X103800000Y-84800000D03*
D31*
%TO.P,Q3,2,B*%
%TO.N,Net-(D5-A)*%
X105070000Y-84800000D03*
%TO.P,Q3,3,C*%
%TO.N,Net-(Q3-C)*%
X106340000Y-84800000D03*
%TD*%
D14*
%TO.P,C2,1*%
%TO.N,+3V*%
X109750000Y-95800000D03*
%TO.P,C2,2*%
%TO.N,GND*%
X109750000Y-97700000D03*
%TD*%
D32*
%TO.P,SW1,1,1*%
%TO.N,/UPDI*%
X117250000Y-67750000D03*
X123750000Y-67750000D03*
%TO.P,SW1,2,2*%
%TO.N,GND*%
X117250000Y-72250000D03*
X123750000Y-72250000D03*
%TD*%
D25*
%TO.P,D1,1,K*%
%TO.N,+3V*%
X107750000Y-78500000D03*
%TO.P,D1,2,A*%
%TO.N,Net-(D1-A)*%
X107750000Y-75200000D03*
%TD*%
D10*
%TO.P,R9,1*%
%TO.N,+3V*%
X115000000Y-90000000D03*
%TO.P,R9,2*%
%TO.N,Net-(Q3-C)*%
X113175000Y-90000000D03*
%TD*%
D33*
%TO.P,J5,1,Pin_1*%
%TO.N,Net-(J5-Pin_1)*%
X147000000Y-81750000D03*
D19*
%TO.P,J5,2,Pin_2*%
%TO.N,Net-(J5-Pin_2)*%
X147000000Y-83750000D03*
%TD*%
D21*
%TO.P,C10,1*%
%TO.N,Net-(U4-IN-)*%
X136600000Y-98020000D03*
%TO.P,C10,2*%
%TO.N,Net-(J5-Pin_2)*%
X138500000Y-98020000D03*
%TD*%
D23*
%TO.P,U3,1,~{CS}*%
%TO.N,/{slash}SS*%
X129880000Y-69130000D03*
D24*
%TO.P,U3,2,DO(IO1)*%
%TO.N,Net-(U3-DO(IO1))*%
X129880000Y-71670000D03*
%TO.P,U3,3,~{WP}(IO2)*%
%TO.N,+3V*%
X129880000Y-74210000D03*
%TO.P,U3,4,GND*%
%TO.N,GND*%
X129880000Y-76750000D03*
%TO.P,U3,5,DI(IO0)*%
%TO.N,/MOSI_MISO*%
X137500000Y-76750000D03*
%TO.P,U3,6,CLK*%
%TO.N,/SCK_SW2*%
X137500000Y-74210000D03*
%TO.P,U3,7,~{HOLD}(IO3)*%
%TO.N,+3V*%
X137500000Y-71670000D03*
%TO.P,U3,8,VCC*%
X137500000Y-69130000D03*
%TD*%
D12*
%TO.P,R12,1*%
%TO.N,Net-(U4-IN-)*%
X136575000Y-94750000D03*
%TO.P,R12,2*%
%TO.N,Net-(J5-Pin_2)*%
X138400000Y-94750000D03*
%TD*%
D30*
%TO.P,Q1,1,E*%
%TO.N,GND*%
X114520000Y-77640000D03*
D31*
%TO.P,Q1,2,B*%
%TO.N,Net-(Q1-B)*%
X113250000Y-77640000D03*
%TO.P,Q1,3,C*%
%TO.N,Net-(D1-A)*%
X111980000Y-77640000D03*
%TD*%
D21*
%TO.P,C4,1*%
%TO.N,+3V*%
X122850000Y-75000000D03*
%TO.P,C4,2*%
%TO.N,GND*%
X124750000Y-75000000D03*
%TD*%
D13*
%TO.P,R15,1*%
%TO.N,Net-(C8-Pad1)*%
X120987500Y-88670000D03*
%TO.P,R15,2*%
%TO.N,GND*%
X120987500Y-86845000D03*
%TD*%
D34*
%TO.P,D2,1,K*%
%TO.N,GND*%
X110750000Y-67500000D03*
%TO.P,D2,2,A*%
%TO.N,Net-(D2-A)*%
X112625000Y-67500000D03*
%TD*%
D35*
%TO.N,GND*%
X103000000Y-66000000D03*
X141500000Y-82000000D03*
X102250000Y-87500000D03*
X146500000Y-89250000D03*
X121250000Y-72250000D03*
X126250000Y-72750000D03*
X145743750Y-98493750D03*
X146487500Y-97750000D03*
X115000000Y-71000000D03*
X141500000Y-82872550D03*
X130500000Y-95000000D03*
X124000000Y-95000000D03*
X103750000Y-86250000D03*
X141500000Y-75250000D03*
X115500000Y-75000000D03*
X141500000Y-76750000D03*
X102000000Y-66000000D03*
X146437500Y-88400000D03*
X115000000Y-70000000D03*
X144000000Y-76000000D03*
X101000000Y-71000000D03*
X115500000Y-75750000D03*
X122750000Y-96000000D03*
X127250000Y-77250000D03*
X101000000Y-72000000D03*
X129250000Y-95000000D03*
%TO.N,+3V*%
X120250000Y-75000000D03*
X121500000Y-75000000D03*
X140000000Y-82000000D03*
X140000000Y-83000000D03*
X145250000Y-97000000D03*
X127250000Y-66750000D03*
X145500000Y-89500000D03*
X145250000Y-90400000D03*
X144750000Y-97500000D03*
%TO.N,Net-(C6-Pad1)*%
X128750000Y-89250000D03*
X128750000Y-86250000D03*
%TO.N,Net-(C8-Pad1)*%
X123987500Y-96750000D03*
%TO.N,/UPDI*%
X128500000Y-80250000D03*
%TO.N,/SCK_SW2*%
X115500000Y-86750000D03*
X126000000Y-81000000D03*
%TO.N,/MOSI_MISO*%
X127250000Y-80500000D03*
%TO.N,/MTR_ON*%
X116750000Y-75000000D03*
X113750000Y-72250000D03*
%TO.N,Net-(U3-DO(IO1))*%
X131500000Y-83500000D03*
X134750000Y-81250000D03*
%TO.N,/{slash}SS*%
X117500000Y-81000000D03*
%TD*%
D36*
%TO.N,GND*%
X147750000Y-73750000D02*
X147750000Y-72750000D01*
X141500000Y-76000000D02*
X144000000Y-76000000D01*
X127520000Y-77230000D02*
X128000000Y-76750000D01*
X103700000Y-87500000D02*
X102250000Y-87500000D01*
D37*
X115500000Y-75000000D02*
X115500000Y-72500000D01*
X100900000Y-70850000D02*
X100900000Y-70900000D01*
X104000000Y-97500000D02*
X104000000Y-98625000D01*
D36*
X118645000Y-85762500D02*
X120987500Y-85762500D01*
X121950000Y-97787500D02*
X121950000Y-99200000D01*
D37*
X103000000Y-68750000D02*
X100900000Y-68750000D01*
D36*
X120987500Y-86845000D02*
X120987500Y-85762500D01*
D37*
X100900000Y-90750000D02*
X100900000Y-97900000D01*
D36*
X124000000Y-95000000D02*
X129250000Y-95000000D01*
D37*
X115500000Y-75000000D02*
X115500000Y-75750000D01*
D36*
X123250000Y-86250000D02*
X123237500Y-86262500D01*
X141500000Y-76750000D02*
X141500000Y-76000000D01*
X123750000Y-72250000D02*
X125750000Y-72250000D01*
X130987500Y-94500000D02*
X130987500Y-92787500D01*
D37*
X100900000Y-97900000D02*
X102100000Y-99100000D01*
D36*
X124250000Y-77230000D02*
X127230000Y-77230000D01*
D37*
X100900000Y-87500000D02*
X100900000Y-90750000D01*
X102900000Y-65900000D02*
X103000000Y-66000000D01*
D36*
X123237500Y-86262500D02*
X123237500Y-87420000D01*
D37*
X100900000Y-68750000D02*
X100900000Y-66850000D01*
X103100000Y-65900000D02*
X110000000Y-65900000D01*
X115500000Y-75750000D02*
X115500000Y-76660000D01*
D36*
X110750000Y-67500000D02*
X110750000Y-65900000D01*
X103800000Y-84800000D02*
X103800000Y-86200000D01*
X103800000Y-84500000D02*
X103800000Y-84800000D01*
X130500000Y-94987500D02*
X130987500Y-94500000D01*
D37*
X115000000Y-70000000D02*
X115000000Y-71000000D01*
D36*
X126625000Y-75125000D02*
X126750000Y-75250000D01*
X129880000Y-76750000D02*
X128000000Y-76750000D01*
X128000000Y-76750000D02*
X126750000Y-75500000D01*
D37*
X109750000Y-98850000D02*
X110000000Y-99100000D01*
D36*
X146437500Y-88400000D02*
X146400000Y-88362500D01*
X118250000Y-86157500D02*
X118645000Y-85762500D01*
D37*
X113650000Y-65900000D02*
X115000000Y-67250000D01*
D36*
X114375000Y-99250000D02*
X118250000Y-99250000D01*
X102250000Y-87500000D02*
X100900000Y-87500000D01*
X129250000Y-95000000D02*
X130487500Y-95000000D01*
X126750000Y-75500000D02*
X126750000Y-75250000D01*
X115000000Y-72000000D02*
X115250000Y-72250000D01*
D37*
X115500000Y-72500000D02*
X115000000Y-72000000D01*
X101900000Y-65900000D02*
X102000000Y-66000000D01*
D36*
X113500000Y-99250000D02*
X114375000Y-99250000D01*
D37*
X110000000Y-99100000D02*
X113500000Y-99100000D01*
X101000000Y-71000000D02*
X100900000Y-71100000D01*
D36*
X103800000Y-87400000D02*
X103700000Y-87500000D01*
X115250000Y-72250000D02*
X121250000Y-72250000D01*
D37*
X110000000Y-65900000D02*
X113650000Y-65900000D01*
D36*
X143587500Y-88362500D02*
X142835000Y-89115000D01*
X120987500Y-85762500D02*
X122762500Y-85762500D01*
D37*
X102100000Y-99100000D02*
X110000000Y-99100000D01*
X102000000Y-66000000D02*
X102100000Y-65900000D01*
D36*
X126250000Y-72750000D02*
X126625000Y-73125000D01*
X103750000Y-86250000D02*
X103800000Y-86300000D01*
X103800000Y-86200000D02*
X103750000Y-86250000D01*
X142835000Y-89115000D02*
X139987500Y-89115000D01*
X121250000Y-72250000D02*
X123750000Y-72250000D01*
D37*
X100900000Y-66850000D02*
X101850000Y-65900000D01*
X115000000Y-71000000D02*
X115000000Y-72000000D01*
D36*
X122750000Y-96000000D02*
X122750000Y-95987500D01*
D37*
X102305000Y-89750000D02*
X101150000Y-89750000D01*
D36*
X125750000Y-72250000D02*
X126250000Y-72750000D01*
X144000000Y-76000000D02*
X145500000Y-76000000D01*
X127250000Y-77250000D02*
X127270000Y-77230000D01*
D37*
X100900000Y-73750000D02*
X100900000Y-87500000D01*
D36*
X130487500Y-95000000D02*
X130500000Y-95000000D01*
X122237500Y-96500000D02*
X122737500Y-96000000D01*
D37*
X100900000Y-70900000D02*
X101000000Y-71000000D01*
D36*
X146437500Y-89187500D02*
X146500000Y-89250000D01*
D37*
X100900000Y-72100000D02*
X100900000Y-73750000D01*
X101000000Y-72000000D02*
X100900000Y-72100000D01*
D36*
X141500000Y-82872550D02*
X141500000Y-75250000D01*
X123737500Y-95000000D02*
X124000000Y-95000000D01*
D37*
X103000000Y-66000000D02*
X103100000Y-65900000D01*
D36*
X130500000Y-95000000D02*
X130500000Y-94987500D01*
D37*
X100900000Y-71100000D02*
X100900000Y-71900000D01*
D36*
X145500000Y-76000000D02*
X147750000Y-73750000D01*
X103800000Y-86300000D02*
X103800000Y-87400000D01*
X127230000Y-77230000D02*
X127250000Y-77250000D01*
D37*
X102100000Y-65900000D02*
X102900000Y-65900000D01*
D36*
X118250000Y-99250000D02*
X122000000Y-99250000D01*
X146400000Y-88362500D02*
X143587500Y-88362500D01*
X141500000Y-75250000D02*
X141500000Y-73787500D01*
X141500000Y-82000000D02*
X141500000Y-76750000D01*
X120987500Y-86670000D02*
X120987500Y-86845000D01*
D37*
X100900000Y-70850000D02*
X100900000Y-68750000D01*
D36*
X121950000Y-99200000D02*
X122000000Y-99250000D01*
X126625000Y-73125000D02*
X126625000Y-75125000D01*
D37*
X113500000Y-99100000D02*
X113500000Y-97550000D01*
D36*
X127270000Y-77230000D02*
X127520000Y-77230000D01*
X122750000Y-95987500D02*
X123737500Y-95000000D01*
X122237500Y-97750000D02*
X122237500Y-96500000D01*
X124750000Y-75000000D02*
X124875000Y-75125000D01*
X124875000Y-75125000D02*
X126625000Y-75125000D01*
D37*
X100900000Y-71900000D02*
X101000000Y-72000000D01*
D36*
X122737500Y-96000000D02*
X122750000Y-96000000D01*
D37*
X102305000Y-89750000D02*
X101650000Y-89750000D01*
X115500000Y-76660000D02*
X114520000Y-77640000D01*
D36*
X118250000Y-99250000D02*
X118250000Y-86157500D01*
X130487500Y-95000000D02*
X130487500Y-95000000D01*
D37*
X115000000Y-67250000D02*
X115000000Y-70000000D01*
X101150000Y-89750000D02*
X100900000Y-90000000D01*
D36*
X146487500Y-97750000D02*
X144987500Y-99250000D01*
X144987500Y-99250000D02*
X122000000Y-99250000D01*
X146500000Y-97750000D02*
X146487500Y-97750000D01*
X113500000Y-97550000D02*
X113500000Y-99250000D01*
D37*
X101850000Y-65900000D02*
X101900000Y-65900000D01*
X109750000Y-97700000D02*
X109750000Y-98850000D01*
D36*
X122762500Y-85762500D02*
X123250000Y-86250000D01*
X146437500Y-88400000D02*
X146437500Y-89187500D01*
D37*
X100900000Y-90000000D02*
X100900000Y-90750000D01*
%TO.N,+3V*%
X145250000Y-89750000D02*
X145500000Y-89500000D01*
D36*
X133250000Y-66750000D02*
X135630000Y-69130000D01*
X141500000Y-72100000D02*
X141500000Y-69750000D01*
D37*
X114500000Y-94500000D02*
X110250000Y-94500000D01*
X117250000Y-93750000D02*
X115500000Y-95500000D01*
X117250000Y-90250000D02*
X117250000Y-93750000D01*
D38*
X139500000Y-69250000D02*
X139500000Y-71170000D01*
D36*
X141500000Y-69750000D02*
X140750000Y-69000000D01*
D37*
X122850000Y-75000000D02*
X119750000Y-75000000D01*
D36*
X140000000Y-73600000D02*
X141500000Y-72100000D01*
X143587500Y-90425000D02*
X143587500Y-90437500D01*
X143495000Y-90345000D02*
X140027500Y-90345000D01*
D37*
X119250000Y-75500000D02*
X119250000Y-76750000D01*
D36*
X140750000Y-69000000D02*
X139750000Y-69000000D01*
D37*
X115500000Y-95500000D02*
X114500000Y-94500000D01*
D36*
X109500000Y-93750000D02*
X110250000Y-94500000D01*
X115000000Y-90000000D02*
X117000000Y-90000000D01*
D37*
X110250000Y-94500000D02*
X109750000Y-95000000D01*
D36*
X145250000Y-90400000D02*
X143625000Y-90400000D01*
X107750000Y-78500000D02*
X103200000Y-78500000D01*
X140027500Y-90345000D02*
X139987500Y-90385000D01*
X143680000Y-90437500D02*
X143587500Y-90437500D01*
X143547500Y-90385000D02*
X143587500Y-90425000D01*
X140000000Y-83000000D02*
X140000000Y-82000000D01*
X143587500Y-90437500D02*
X143495000Y-90345000D01*
D37*
X109750000Y-95000000D02*
X109750000Y-95800000D01*
X145250000Y-90400000D02*
X145250000Y-91000000D01*
D38*
X139000000Y-71670000D02*
X137500000Y-71670000D01*
D37*
X145250000Y-97000000D02*
X144750000Y-97500000D01*
D36*
X127250000Y-66750000D02*
X133250000Y-66750000D01*
D37*
X115500000Y-97550000D02*
X115500000Y-95500000D01*
D36*
X117000000Y-90000000D02*
X117250000Y-90250000D01*
D37*
X145250000Y-91000000D02*
X145250000Y-89750000D01*
D38*
X139500000Y-71170000D02*
X139000000Y-71670000D01*
D36*
X143625000Y-90400000D02*
X143587500Y-90437500D01*
X135630000Y-69130000D02*
X137500000Y-69130000D01*
X109500000Y-92150000D02*
X109500000Y-93750000D01*
D37*
X145250000Y-91000000D02*
X145250000Y-97000000D01*
D36*
X139750000Y-69000000D02*
X137630000Y-69000000D01*
X140000000Y-82000000D02*
X140000000Y-73600000D01*
D37*
X119750000Y-75000000D02*
X119250000Y-75500000D01*
D36*
X137630000Y-69000000D02*
X137500000Y-69130000D01*
X143742500Y-90500000D02*
X143680000Y-90437500D01*
D38*
X139750000Y-69000000D02*
X139500000Y-69250000D01*
D36*
%TO.N,Net-(C6-Pad1)*%
X132662500Y-85500000D02*
X134662500Y-83500000D01*
X120987500Y-92920000D02*
X122817500Y-92920000D01*
X128750000Y-86250000D02*
X128750000Y-85750000D01*
X122817500Y-92920000D02*
X123237500Y-92500000D01*
X120987500Y-94750000D02*
X120987500Y-92920000D01*
X126407500Y-92500000D02*
X123237500Y-92500000D01*
X128750000Y-89250000D02*
X128750000Y-90157500D01*
X120050000Y-97787500D02*
X120050000Y-95687500D01*
X120050000Y-95687500D02*
X120987500Y-94750000D01*
X128750000Y-90157500D02*
X126407500Y-92500000D01*
X129000000Y-85500000D02*
X132662500Y-85500000D01*
X128750000Y-85750000D02*
X129000000Y-85500000D01*
%TO.N,Net-(C8-Pad2)*%
X130237500Y-98000000D02*
X127487500Y-98000000D01*
%TO.N,Net-(C8-Pad1)*%
X124487500Y-98000000D02*
X123987500Y-97500000D01*
X120987500Y-89920000D02*
X120987500Y-91095000D01*
X125737500Y-89920000D02*
X125777500Y-89960000D01*
X125412500Y-98000000D02*
X124487500Y-98000000D01*
X123987500Y-97500000D02*
X123987500Y-96750000D01*
X120987500Y-89920000D02*
X125737500Y-89920000D01*
X120987500Y-88670000D02*
X120987500Y-89920000D01*
D38*
%TO.N,Net-(U4-BYPASS)*%
X132585000Y-89115000D02*
X130987500Y-90712500D01*
X132987500Y-89115000D02*
X132585000Y-89115000D01*
X134837500Y-89115000D02*
X132987500Y-89115000D01*
X133122500Y-90385000D02*
X132987500Y-90250000D01*
X134837500Y-90385000D02*
X133122500Y-90385000D01*
X132987500Y-90250000D02*
X132987500Y-89115000D01*
%TO.N,Net-(U4-IN-)*%
X134987500Y-94750000D02*
X134987500Y-97750000D01*
X135737500Y-98000000D02*
X135757500Y-98020000D01*
X135237500Y-98000000D02*
X134987500Y-97750000D01*
X134837500Y-91655000D02*
X134837500Y-94600000D01*
X134837500Y-94600000D02*
X134987500Y-94750000D01*
X135237500Y-98000000D02*
X135737500Y-98000000D01*
X134737500Y-98000000D02*
X132237500Y-98000000D01*
X135757500Y-98020000D02*
X136512500Y-98020000D01*
X134987500Y-94750000D02*
X136487500Y-94750000D01*
X134987500Y-97750000D02*
X134737500Y-98000000D01*
D36*
%TO.N,Net-(J5-Pin_2)*%
X137655000Y-91655000D02*
X139987500Y-91655000D01*
X141500000Y-86250000D02*
X137750000Y-86250000D01*
D38*
X139987500Y-95250000D02*
X139487500Y-94750000D01*
X138587500Y-98020000D02*
X139717500Y-98020000D01*
D36*
X137250000Y-91250000D02*
X137655000Y-91655000D01*
X148000000Y-83750000D02*
X148500000Y-83250000D01*
X140622500Y-91655000D02*
X139987500Y-91655000D01*
D38*
X139487500Y-94750000D02*
X139487500Y-93487500D01*
D36*
X148500000Y-80500000D02*
X147750000Y-79750000D01*
X147750000Y-79750000D02*
X144500000Y-79750000D01*
X147000000Y-83750000D02*
X148000000Y-83750000D01*
X148500000Y-83250000D02*
X148500000Y-80500000D01*
D38*
X139987500Y-97750000D02*
X139987500Y-95250000D01*
D36*
X142750000Y-81500000D02*
X142750000Y-85000000D01*
X137750000Y-86250000D02*
X137250000Y-86750000D01*
D38*
X139487500Y-94750000D02*
X138487500Y-94750000D01*
D36*
X137250000Y-86750000D02*
X137250000Y-91250000D01*
D38*
X139717500Y-98020000D02*
X139987500Y-97750000D01*
X139487500Y-93487500D02*
X137655000Y-91655000D01*
D36*
X142750000Y-85000000D02*
X141500000Y-86250000D01*
X144500000Y-79750000D02*
X142750000Y-81500000D01*
%TO.N,Net-(D1-A)*%
X103200000Y-76500000D02*
X103200000Y-76050000D01*
X110640000Y-77640000D02*
X111980000Y-77640000D01*
X110000000Y-76250000D02*
X110000000Y-77000000D01*
X107750000Y-75200000D02*
X108950000Y-75200000D01*
X108950000Y-75200000D02*
X110000000Y-76250000D01*
X110000000Y-77000000D02*
X110640000Y-77640000D01*
X104050000Y-75200000D02*
X107750000Y-75200000D01*
X103200000Y-76050000D02*
X104050000Y-75200000D01*
D38*
%TO.N,Net-(D2-A)*%
X112712500Y-68500000D02*
X112462500Y-68750000D01*
X110712500Y-69250000D02*
X110712500Y-70750000D01*
X112462500Y-68750000D02*
X111212500Y-68750000D01*
X111212500Y-68750000D02*
X110712500Y-69250000D01*
X112712500Y-67000000D02*
X112712500Y-68500000D01*
D36*
%TO.N,TG_Vdd*%
X145960000Y-70210000D02*
X147750000Y-70210000D01*
X141900000Y-67000000D02*
X145250000Y-67000000D01*
X141500000Y-66600000D02*
X141900000Y-67000000D01*
X145500000Y-67250000D02*
X145500000Y-69750000D01*
X145250000Y-67000000D02*
X145500000Y-67250000D01*
X145500000Y-69750000D02*
X145960000Y-70210000D01*
%TO.N,Net-(D5-A)*%
X105070000Y-84800000D02*
X105070000Y-87320000D01*
D38*
X105070000Y-84800000D02*
X105070000Y-84575000D01*
D36*
X105070000Y-87320000D02*
X106600000Y-88850000D01*
X106500000Y-89750000D02*
X105605000Y-89750000D01*
D38*
X109250000Y-83675000D02*
X105970000Y-83675000D01*
D36*
X106600000Y-88850000D02*
X106600000Y-89850000D01*
D38*
X105895000Y-83750000D02*
X106000000Y-83750000D01*
D36*
X106600000Y-89850000D02*
X106750000Y-90000000D01*
D38*
X105070000Y-84575000D02*
X105697500Y-83947500D01*
X105970000Y-83675000D02*
X105697500Y-83947500D01*
D36*
X106000000Y-97500000D02*
X106750000Y-96750000D01*
X106750000Y-96750000D02*
X106750000Y-90000000D01*
D38*
X105697500Y-83947500D02*
X105895000Y-83750000D01*
D36*
X106600000Y-88850000D02*
X109500000Y-88850000D01*
D38*
%TO.N,/UPDI*%
X117250000Y-67750000D02*
X123750000Y-67750000D01*
X147750000Y-66250000D02*
X147750000Y-67670000D01*
X128020000Y-79770000D02*
X124250000Y-79770000D01*
X128500000Y-80250000D02*
X128020000Y-79770000D01*
X125750000Y-65750000D02*
X147250000Y-65750000D01*
X147250000Y-65750000D02*
X147750000Y-66250000D01*
X123750000Y-67750000D02*
X125750000Y-65750000D01*
D36*
%TO.N,Net-(J5-Pin_1)*%
X144000000Y-86000000D02*
X142155000Y-87845000D01*
X145500000Y-81750000D02*
X144000000Y-83250000D01*
X144000000Y-83250000D02*
X144000000Y-86000000D01*
X147000000Y-81750000D02*
X145500000Y-81750000D01*
X142155000Y-87845000D02*
X139987500Y-87845000D01*
D38*
%TO.N,Net-(Q1-B)*%
X113175000Y-77715000D02*
X113250000Y-77640000D01*
X113175000Y-83500000D02*
X113175000Y-77715000D01*
%TO.N,/SCK_SW2*%
X126000000Y-81000000D02*
X124290000Y-81000000D01*
X114325000Y-86750000D02*
X115500000Y-86750000D01*
X124290000Y-81000000D02*
X124250000Y-81040000D01*
%TO.N,/MOSI_MISO*%
X127250000Y-80500000D02*
X127250000Y-83250000D01*
X127250000Y-83250000D02*
X127500000Y-83500000D01*
X123000000Y-83500000D02*
X121500000Y-82000000D01*
X121500000Y-80000000D02*
X121250000Y-79750000D01*
X121230000Y-79770000D02*
X119300000Y-79770000D01*
X121250000Y-79750000D02*
X121230000Y-79770000D01*
X121500000Y-82000000D02*
X121500000Y-80000000D01*
X127500000Y-83500000D02*
X123000000Y-83500000D01*
X128925000Y-83500000D02*
X127500000Y-83500000D01*
%TO.N,/MTR_ON*%
X117750000Y-78500000D02*
X117750000Y-78250000D01*
X117750000Y-76000000D02*
X117750000Y-78250000D01*
X119823528Y-83750000D02*
X116750000Y-83750000D01*
X130425000Y-87500000D02*
X129080761Y-87500000D01*
X117750000Y-78250000D02*
X118000000Y-78500000D01*
X115500000Y-83500000D02*
X115000000Y-83500000D01*
X112625000Y-71250000D02*
X113500000Y-71250000D01*
X116000000Y-80250000D02*
X117750000Y-78500000D01*
X116000000Y-80250000D02*
X116000000Y-83000000D01*
X127500000Y-84250000D02*
X120323528Y-84250000D01*
X119300000Y-78500000D02*
X118000000Y-78500000D01*
X116750000Y-83750000D02*
X116000000Y-83000000D01*
X116750000Y-75000000D02*
X117750000Y-76000000D01*
X120323528Y-84250000D02*
X119823528Y-83750000D01*
X113750000Y-71500000D02*
X113750000Y-72250000D01*
X128000000Y-86419239D02*
X128000000Y-84750000D01*
X113500000Y-71250000D02*
X113750000Y-71500000D01*
X129080761Y-87500000D02*
X128000000Y-86419239D01*
X116000000Y-83000000D02*
X115500000Y-83500000D01*
X128000000Y-84750000D02*
X127500000Y-84250000D01*
%TO.N,Net-(U3-DO(IO1))*%
X135250000Y-80750000D02*
X134750000Y-81250000D01*
X132170000Y-71670000D02*
X135250000Y-74750000D01*
X129880000Y-71670000D02*
X132170000Y-71670000D01*
X130750000Y-83500000D02*
X131500000Y-83500000D01*
X135250000Y-74750000D02*
X135250000Y-80750000D01*
D36*
%TO.N,/PWM_P*%
X132250000Y-82912500D02*
X132837500Y-83500000D01*
X132250000Y-79000000D02*
X132250000Y-82912500D01*
X132000000Y-78750000D02*
X132250000Y-79000000D01*
X126750000Y-78500000D02*
X127000000Y-78750000D01*
X124250000Y-78500000D02*
X126750000Y-78500000D01*
X127000000Y-78750000D02*
X132000000Y-78750000D01*
D38*
%TO.N,/{slash}SS*%
X117540000Y-81040000D02*
X117500000Y-81000000D01*
X119300000Y-81040000D02*
X117540000Y-81040000D01*
%TO.N,Net-(Q3-C)*%
X113175000Y-89675000D02*
X112500000Y-89000000D01*
X109500000Y-86750000D02*
X109250000Y-86500000D01*
X112500000Y-89000000D02*
X112500000Y-86750000D01*
X109250000Y-85500000D02*
X107040000Y-85500000D01*
X107040000Y-85500000D02*
X106340000Y-84800000D01*
X109500000Y-86750000D02*
X112500000Y-86750000D01*
X113175000Y-90000000D02*
X113175000Y-89675000D01*
X109250000Y-86500000D02*
X109250000Y-85500000D01*
%TO.N,Net-(U4-SDB)*%
X132250000Y-87500000D02*
X133000000Y-87500000D01*
X133345000Y-87845000D02*
X134837500Y-87845000D01*
X133000000Y-87500000D02*
X133345000Y-87845000D01*
%TD*%
%TA.AperFunction,Conductor*%
%TO.N,GND*%
G36*
X138804730Y-87020185D02*
G01*
X138850485Y-87072989D01*
X138860429Y-87142147D01*
X138831404Y-87205703D01*
X138825372Y-87212181D01*
X138744423Y-87293129D01*
X138744417Y-87293137D01*
X138660755Y-87434603D01*
X138660754Y-87434606D01*
X138614902Y-87592426D01*
X138614901Y-87592432D01*
X138612000Y-87629298D01*
X138612000Y-88060701D01*
X138614901Y-88097567D01*
X138614902Y-88097573D01*
X138660754Y-88255393D01*
X138660755Y-88255396D01*
X138660756Y-88255398D01*
X138668994Y-88269328D01*
X138744417Y-88396862D01*
X138749202Y-88403031D01*
X138746869Y-88404840D01*
X138773710Y-88453995D01*
X138768726Y-88523687D01*
X138747970Y-88556021D01*
X138749597Y-88557283D01*
X138744813Y-88563449D01*
X138661218Y-88704801D01*
X138615399Y-88862513D01*
X138615204Y-88864998D01*
X138615205Y-88865000D01*
X141359795Y-88865000D01*
X141359795Y-88864998D01*
X141359600Y-88862511D01*
X141359599Y-88862505D01*
X141328103Y-88754095D01*
X141328302Y-88684225D01*
X141366244Y-88625555D01*
X141429883Y-88596712D01*
X141447179Y-88595500D01*
X142235010Y-88595500D01*
X142235010Y-88597398D01*
X142294984Y-88608768D01*
X142345698Y-88656829D01*
X142362500Y-88719152D01*
X142362500Y-88749969D01*
X142362501Y-88749987D01*
X142372994Y-88852697D01*
X142428141Y-89019119D01*
X142428143Y-89019124D01*
X142520184Y-89168345D01*
X142644155Y-89292316D01*
X142644159Y-89292319D01*
X142647156Y-89294168D01*
X142648779Y-89295972D01*
X142649823Y-89296798D01*
X142649681Y-89296976D01*
X142693881Y-89346116D01*
X142705102Y-89415079D01*
X142677259Y-89479161D01*
X142647161Y-89505241D01*
X142643849Y-89507283D01*
X142643843Y-89507288D01*
X142592951Y-89558181D01*
X142531628Y-89591666D01*
X142505270Y-89594500D01*
X141458800Y-89594500D01*
X141391761Y-89574815D01*
X141346006Y-89522011D01*
X141336062Y-89452853D01*
X141339724Y-89435905D01*
X141359599Y-89367494D01*
X141359600Y-89367488D01*
X141359795Y-89365001D01*
X141359795Y-89365000D01*
X138615205Y-89365000D01*
X138615204Y-89365001D01*
X138615399Y-89367486D01*
X138661218Y-89525198D01*
X138744814Y-89666552D01*
X138749600Y-89672722D01*
X138747140Y-89674629D01*
X138773710Y-89723288D01*
X138768726Y-89792980D01*
X138747662Y-89825781D01*
X138749199Y-89826974D01*
X138744415Y-89833140D01*
X138660755Y-89974603D01*
X138660754Y-89974606D01*
X138614902Y-90132426D01*
X138614901Y-90132432D01*
X138612000Y-90169298D01*
X138612000Y-90600701D01*
X138614901Y-90637567D01*
X138614902Y-90637573D01*
X138646376Y-90745905D01*
X138646177Y-90815775D01*
X138608235Y-90874445D01*
X138544596Y-90903288D01*
X138527300Y-90904500D01*
X138124500Y-90904500D01*
X138057461Y-90884815D01*
X138011706Y-90832011D01*
X138000500Y-90780500D01*
X138000500Y-87124500D01*
X138020185Y-87057461D01*
X138072989Y-87011706D01*
X138124500Y-87000500D01*
X138737691Y-87000500D01*
X138804730Y-87020185D01*
G37*
%TD.AperFunction*%
%TA.AperFunction,Conductor*%
G36*
X124847232Y-65520185D02*
G01*
X124892987Y-65572989D01*
X124902931Y-65642147D01*
X124873906Y-65705703D01*
X124867874Y-65712181D01*
X124300909Y-66279144D01*
X124239586Y-66312629D01*
X124172965Y-66308744D01*
X124119616Y-66290429D01*
X123874335Y-66249500D01*
X123625665Y-66249500D01*
X123380383Y-66290429D01*
X123145197Y-66371169D01*
X123145188Y-66371172D01*
X122926493Y-66489524D01*
X122730257Y-66642261D01*
X122561833Y-66825217D01*
X122425826Y-67033393D01*
X122425214Y-67034525D01*
X122424842Y-67034898D01*
X122423022Y-67037686D01*
X122422448Y-67037311D01*
X122375991Y-67084112D01*
X122316163Y-67099500D01*
X118683837Y-67099500D01*
X118616798Y-67079815D01*
X118577438Y-67037384D01*
X118576978Y-67037686D01*
X118575214Y-67034987D01*
X118574786Y-67034525D01*
X118574173Y-67033393D01*
X118438166Y-66825217D01*
X118388793Y-66771584D01*
X118269744Y-66642262D01*
X118073509Y-66489526D01*
X118073507Y-66489525D01*
X118073506Y-66489524D01*
X117854811Y-66371172D01*
X117854802Y-66371169D01*
X117619616Y-66290429D01*
X117374335Y-66249500D01*
X117125665Y-66249500D01*
X116880383Y-66290429D01*
X116645197Y-66371169D01*
X116645188Y-66371172D01*
X116426493Y-66489524D01*
X116230257Y-66642261D01*
X116061833Y-66825217D01*
X115925826Y-67033393D01*
X115825936Y-67261118D01*
X115764892Y-67502175D01*
X115764890Y-67502187D01*
X115744357Y-67749994D01*
X115744357Y-67750000D01*
X115764890Y-67997812D01*
X115764892Y-67997824D01*
X115825936Y-68238881D01*
X115925826Y-68466606D01*
X116061833Y-68674782D01*
X116061836Y-68674785D01*
X116230256Y-68857738D01*
X116426491Y-69010474D01*
X116462064Y-69029725D01*
X116595854Y-69102129D01*
X116645190Y-69128828D01*
X116880386Y-69209571D01*
X117125665Y-69250500D01*
X117374335Y-69250500D01*
X117619614Y-69209571D01*
X117854810Y-69128828D01*
X118073509Y-69010474D01*
X118269744Y-68857738D01*
X118438164Y-68674785D01*
X118574173Y-68466607D01*
X118574175Y-68466601D01*
X118574786Y-68465475D01*
X118575157Y-68465101D01*
X118576978Y-68462314D01*
X118577551Y-68462688D01*
X118624009Y-68415888D01*
X118683837Y-68400500D01*
X122316163Y-68400500D01*
X122383202Y-68420185D01*
X122422561Y-68462615D01*
X122423022Y-68462314D01*
X122424785Y-68465012D01*
X122425214Y-68465475D01*
X122425826Y-68466606D01*
X122561833Y-68674782D01*
X122561836Y-68674785D01*
X122730256Y-68857738D01*
X122926491Y-69010474D01*
X122962064Y-69029725D01*
X123095854Y-69102129D01*
X123145190Y-69128828D01*
X123380386Y-69209571D01*
X123625665Y-69250500D01*
X123874335Y-69250500D01*
X124119614Y-69209571D01*
X124354810Y-69128828D01*
X124573509Y-69010474D01*
X124769744Y-68857738D01*
X124938164Y-68674785D01*
X125074173Y-68466607D01*
X125174063Y-68238881D01*
X125235108Y-67997821D01*
X125235442Y-67993797D01*
X125255643Y-67750000D01*
X125255643Y-67749994D01*
X125235109Y-67502187D01*
X125235108Y-67502183D01*
X125235108Y-67502179D01*
X125225657Y-67464860D01*
X125188280Y-67317262D01*
X125190904Y-67247442D01*
X125220802Y-67199142D01*
X125983126Y-66436819D01*
X126044449Y-66403334D01*
X126070807Y-66400500D01*
X126349441Y-66400500D01*
X126416480Y-66420185D01*
X126462235Y-66472989D01*
X126472179Y-66542147D01*
X126466483Y-66565454D01*
X126464632Y-66570742D01*
X126464630Y-66570750D01*
X126444435Y-66749996D01*
X126444435Y-66750003D01*
X126464630Y-66929249D01*
X126464631Y-66929254D01*
X126524211Y-67099523D01*
X126572317Y-67176082D01*
X126620184Y-67252262D01*
X126747738Y-67379816D01*
X126838080Y-67436582D01*
X126883084Y-67464860D01*
X126900478Y-67475789D01*
X127037486Y-67523730D01*
X127070745Y-67535368D01*
X127070750Y-67535369D01*
X127249996Y-67555565D01*
X127250000Y-67555565D01*
X127250004Y-67555565D01*
X127429249Y-67535369D01*
X127429252Y-67535368D01*
X127429255Y-67535368D01*
X127509017Y-67507457D01*
X127549972Y-67500500D01*
X132887770Y-67500500D01*
X132954809Y-67520185D01*
X132975451Y-67536819D01*
X134034239Y-68595606D01*
X135047049Y-69608416D01*
X135151584Y-69712951D01*
X135151585Y-69712952D01*
X135274498Y-69795080D01*
X135274511Y-69795087D01*
X135411082Y-69851656D01*
X135411087Y-69851658D01*
X135411091Y-69851658D01*
X135411092Y-69851659D01*
X135556079Y-69880500D01*
X135556082Y-69880500D01*
X136373337Y-69880500D01*
X136440376Y-69900185D01*
X136474912Y-69933377D01*
X136499954Y-69969141D01*
X136660858Y-70130045D01*
X136660861Y-70130047D01*
X136847266Y-70260568D01*
X136905275Y-70287618D01*
X136957714Y-70333791D01*
X136976866Y-70400984D01*
X136956650Y-70467865D01*
X136905275Y-70512382D01*
X136847267Y-70539431D01*
X136847265Y-70539432D01*
X136660858Y-70669954D01*
X136499954Y-70830858D01*
X136369432Y-71017265D01*
X136369431Y-71017267D01*
X136273261Y-71223502D01*
X136273258Y-71223511D01*
X136214366Y-71443302D01*
X136214364Y-71443313D01*
X136194532Y-71669998D01*
X136194532Y-71670001D01*
X136214364Y-71896686D01*
X136214366Y-71896697D01*
X136273258Y-72116488D01*
X136273261Y-72116497D01*
X136369431Y-72322732D01*
X136369432Y-72322734D01*
X136499954Y-72509141D01*
X136660858Y-72670045D01*
X136660861Y-72670047D01*
X136847266Y-72800568D01*
X136879987Y-72815826D01*
X136905275Y-72827618D01*
X136957714Y-72873791D01*
X136976866Y-72940984D01*
X136956650Y-73007865D01*
X136905275Y-73052382D01*
X136847267Y-73079431D01*
X136847265Y-73079432D01*
X136660858Y-73209954D01*
X136499954Y-73370858D01*
X136369432Y-73557265D01*
X136369431Y-73557267D01*
X136273261Y-73763502D01*
X136273258Y-73763511D01*
X136214366Y-73983302D01*
X136214364Y-73983313D01*
X136194532Y-74209998D01*
X136194532Y-74210001D01*
X136214364Y-74436686D01*
X136214366Y-74436697D01*
X136273258Y-74656488D01*
X136273261Y-74656497D01*
X136369431Y-74862732D01*
X136369432Y-74862734D01*
X136499954Y-75049141D01*
X136660858Y-75210045D01*
X136699831Y-75237334D01*
X136847266Y-75340568D01*
X136905275Y-75367618D01*
X136957714Y-75413791D01*
X136976866Y-75480984D01*
X136956650Y-75547865D01*
X136905275Y-75592382D01*
X136847267Y-75619431D01*
X136847265Y-75619432D01*
X136660858Y-75749954D01*
X136499954Y-75910858D01*
X136369432Y-76097265D01*
X136369431Y-76097267D01*
X136273261Y-76303502D01*
X136273258Y-76303511D01*
X136214366Y-76523302D01*
X136214364Y-76523313D01*
X136194532Y-76749998D01*
X136194532Y-76750001D01*
X136214364Y-76976686D01*
X136214366Y-76976697D01*
X136273258Y-77196488D01*
X136273261Y-77196497D01*
X136369431Y-77402732D01*
X136369432Y-77402734D01*
X136499954Y-77589141D01*
X136660858Y-77750045D01*
X136660861Y-77750047D01*
X136847266Y-77880568D01*
X137053504Y-77976739D01*
X137053509Y-77976740D01*
X137053511Y-77976741D01*
X137078274Y-77983376D01*
X137273308Y-78035635D01*
X137435230Y-78049801D01*
X137499998Y-78055468D01*
X137500000Y-78055468D01*
X137500002Y-78055468D01*
X137556673Y-78050509D01*
X137726692Y-78035635D01*
X137946496Y-77976739D01*
X138152734Y-77880568D01*
X138339139Y-77750047D01*
X138500047Y-77589139D01*
X138630568Y-77402734D01*
X138726739Y-77196496D01*
X138785635Y-76976692D01*
X138805468Y-76750000D01*
X138785635Y-76523308D01*
X138730331Y-76316909D01*
X138726741Y-76303511D01*
X138726738Y-76303502D01*
X138690018Y-76224756D01*
X138630568Y-76097266D01*
X138508695Y-75923212D01*
X138500045Y-75910858D01*
X138339141Y-75749954D01*
X138152734Y-75619432D01*
X138152728Y-75619429D01*
X138094725Y-75592382D01*
X138042285Y-75546210D01*
X138023133Y-75479017D01*
X138043348Y-75412135D01*
X138094725Y-75367618D01*
X138152734Y-75340568D01*
X138339139Y-75210047D01*
X138500047Y-75049139D01*
X138630568Y-74862734D01*
X138726739Y-74656496D01*
X138785635Y-74436692D01*
X138805468Y-74210000D01*
X138785635Y-73983308D01*
X138726739Y-73763504D01*
X138630568Y-73557266D01*
X138500047Y-73370861D01*
X138500045Y-73370858D01*
X138339141Y-73209954D01*
X138152734Y-73079432D01*
X138152728Y-73079429D01*
X138125038Y-73066517D01*
X138094724Y-73052381D01*
X138042285Y-73006210D01*
X138023133Y-72939017D01*
X138043348Y-72872135D01*
X138094725Y-72827618D01*
X138152734Y-72800568D01*
X138339139Y-72670047D01*
X138500047Y-72509139D01*
X138595108Y-72373377D01*
X138649685Y-72329752D01*
X138696683Y-72320500D01*
X139064071Y-72320500D01*
X139164864Y-72300450D01*
X139189744Y-72295501D01*
X139308127Y-72246465D01*
X139310836Y-72244654D01*
X139311772Y-72244030D01*
X139346991Y-72220497D01*
X139414669Y-72175277D01*
X140005277Y-71584669D01*
X140076465Y-71478127D01*
X140090421Y-71444435D01*
X140125501Y-71359744D01*
X140145881Y-71257289D01*
X140150500Y-71234071D01*
X140150500Y-69874500D01*
X140170185Y-69807461D01*
X140222989Y-69761706D01*
X140274500Y-69750500D01*
X140275501Y-69750500D01*
X140342540Y-69770185D01*
X140388295Y-69822989D01*
X140399501Y-69874500D01*
X140399501Y-70397876D01*
X140405908Y-70457483D01*
X140456202Y-70592328D01*
X140456206Y-70592335D01*
X140542452Y-70707544D01*
X140542455Y-70707547D01*
X140657665Y-70793794D01*
X140657667Y-70793794D01*
X140657669Y-70793796D01*
X140668830Y-70797958D01*
X140724764Y-70839826D01*
X140749184Y-70905289D01*
X140749500Y-70914141D01*
X140749500Y-71068942D01*
X140729815Y-71135981D01*
X140690598Y-71174479D01*
X140611120Y-71223502D01*
X140556342Y-71257289D01*
X140432289Y-71381342D01*
X140340187Y-71530663D01*
X140340186Y-71530666D01*
X140285001Y-71697203D01*
X140285001Y-71697204D01*
X140285000Y-71697204D01*
X140274500Y-71799983D01*
X140274500Y-72212769D01*
X140254815Y-72279808D01*
X140238181Y-72300450D01*
X139417052Y-73121578D01*
X139417049Y-73121581D01*
X139367812Y-73195271D01*
X139334921Y-73244496D01*
X139334914Y-73244508D01*
X139278342Y-73381086D01*
X139278340Y-73381092D01*
X139249500Y-73526079D01*
X139249500Y-81700028D01*
X139242542Y-81740982D01*
X139214631Y-81820747D01*
X139194435Y-81999996D01*
X139194435Y-82000003D01*
X139214630Y-82179249D01*
X139214631Y-82179254D01*
X139242542Y-82259017D01*
X139249500Y-82299972D01*
X139249500Y-82700028D01*
X139242542Y-82740982D01*
X139214631Y-82820747D01*
X139194435Y-82999996D01*
X139194435Y-83000003D01*
X139214630Y-83179249D01*
X139214631Y-83179254D01*
X139274211Y-83349523D01*
X139300221Y-83390917D01*
X139370184Y-83502262D01*
X139497738Y-83629816D01*
X139650478Y-83725789D01*
X139800952Y-83778442D01*
X139820745Y-83785368D01*
X139820750Y-83785369D01*
X139999996Y-83805565D01*
X140000000Y-83805565D01*
X140000004Y-83805565D01*
X140179249Y-83785369D01*
X140179252Y-83785368D01*
X140179255Y-83785368D01*
X140349522Y-83725789D01*
X140502262Y-83629816D01*
X140629816Y-83502262D01*
X140725789Y-83349522D01*
X140785368Y-83179255D01*
X140785369Y-83179249D01*
X140805565Y-83000003D01*
X140805565Y-82999996D01*
X140785368Y-82820747D01*
X140785368Y-82820745D01*
X140757458Y-82740982D01*
X140750500Y-82700028D01*
X140750500Y-82299972D01*
X140757458Y-82259017D01*
X140768657Y-82227011D01*
X140785368Y-82179255D01*
X140798346Y-82064071D01*
X140805565Y-82000003D01*
X140805565Y-81999996D01*
X140785368Y-81820747D01*
X140785368Y-81820745D01*
X140757458Y-81740982D01*
X140750500Y-81700028D01*
X140750500Y-75114376D01*
X140770185Y-75047337D01*
X140822989Y-75001582D01*
X140887103Y-74991018D01*
X140975019Y-74999999D01*
X141249999Y-74999999D01*
X141250000Y-74999998D01*
X141250000Y-74250000D01*
X141750000Y-74250000D01*
X141750000Y-74999999D01*
X142024972Y-74999999D01*
X142024986Y-74999998D01*
X142127697Y-74989505D01*
X142294119Y-74934358D01*
X142294124Y-74934356D01*
X142443345Y-74842315D01*
X142567315Y-74718345D01*
X142659356Y-74569124D01*
X142659358Y-74569119D01*
X142714505Y-74402697D01*
X142714506Y-74402690D01*
X142724999Y-74299986D01*
X142725000Y-74299973D01*
X142725000Y-74250000D01*
X141750000Y-74250000D01*
X141250000Y-74250000D01*
X141250000Y-73874000D01*
X141269685Y-73806961D01*
X141322489Y-73761206D01*
X141374000Y-73750000D01*
X142724999Y-73750000D01*
X142724999Y-73700028D01*
X142724998Y-73700013D01*
X142714505Y-73597302D01*
X142659358Y-73430880D01*
X142659356Y-73430875D01*
X142567315Y-73281654D01*
X142443344Y-73157683D01*
X142443341Y-73157681D01*
X142440339Y-73155829D01*
X142438713Y-73154021D01*
X142437677Y-73153202D01*
X142437817Y-73153024D01*
X142393617Y-73103880D01*
X142382397Y-73034917D01*
X142410243Y-72970836D01*
X142440344Y-72944754D01*
X142443656Y-72942712D01*
X142567712Y-72818656D01*
X142659814Y-72669334D01*
X142714999Y-72502797D01*
X142725500Y-72400009D01*
X142725499Y-71799992D01*
X142719874Y-71744931D01*
X142714999Y-71697203D01*
X142714998Y-71697200D01*
X142677710Y-71584673D01*
X142659814Y-71530666D01*
X142567712Y-71381344D01*
X142443656Y-71257288D01*
X142309402Y-71174480D01*
X142262679Y-71122533D01*
X142250500Y-71068942D01*
X142250500Y-70914141D01*
X142270185Y-70847102D01*
X142322989Y-70801347D01*
X142331149Y-70797966D01*
X142342331Y-70793796D01*
X142457546Y-70707546D01*
X142543796Y-70592331D01*
X142594091Y-70457483D01*
X142600500Y-70397873D01*
X142600499Y-69102128D01*
X142594091Y-69042517D01*
X142591647Y-69035965D01*
X142543797Y-68907671D01*
X142543793Y-68907664D01*
X142457547Y-68792455D01*
X142457544Y-68792452D01*
X142342335Y-68706206D01*
X142342328Y-68706202D01*
X142207482Y-68655908D01*
X142207483Y-68655908D01*
X142147883Y-68649501D01*
X142147881Y-68649500D01*
X142147873Y-68649500D01*
X142147865Y-68649500D01*
X141512230Y-68649500D01*
X141445191Y-68629815D01*
X141424549Y-68613181D01*
X141228421Y-68417052D01*
X141228414Y-68417046D01*
X141154729Y-68367812D01*
X141154729Y-68367813D01*
X141105493Y-68334914D01*
X140994790Y-68289060D01*
X140940387Y-68245219D01*
X140918322Y-68178925D01*
X140935601Y-68111225D01*
X140986739Y-68063615D01*
X141042239Y-68050499D01*
X142147872Y-68050499D01*
X142207483Y-68044091D01*
X142342331Y-67993796D01*
X142457546Y-67907546D01*
X142537914Y-67800188D01*
X142593847Y-67758318D01*
X142637180Y-67750500D01*
X144625500Y-67750500D01*
X144692539Y-67770185D01*
X144738294Y-67822989D01*
X144749500Y-67874500D01*
X144749500Y-69823918D01*
X144749500Y-69823920D01*
X144749499Y-69823920D01*
X144778340Y-69968907D01*
X144778343Y-69968917D01*
X144834914Y-70105492D01*
X144851320Y-70130045D01*
X144851321Y-70130048D01*
X144917046Y-70228414D01*
X144917052Y-70228421D01*
X145481580Y-70792948D01*
X145481584Y-70792951D01*
X145604498Y-70875080D01*
X145604511Y-70875087D01*
X145741082Y-70931656D01*
X145741087Y-70931658D01*
X145741091Y-70931658D01*
X145741092Y-70931659D01*
X145886079Y-70960500D01*
X145886082Y-70960500D01*
X146033917Y-70960500D01*
X146562299Y-70960500D01*
X146629338Y-70980185D01*
X146663873Y-71013376D01*
X146711505Y-71081401D01*
X146878597Y-71248493D01*
X146878603Y-71248498D01*
X146891158Y-71257289D01*
X147037470Y-71359738D01*
X147064594Y-71378730D01*
X147108219Y-71433307D01*
X147115413Y-71502805D01*
X147083890Y-71565160D01*
X147064595Y-71581880D01*
X146878922Y-71711890D01*
X146878920Y-71711891D01*
X146711891Y-71878920D01*
X146711886Y-71878926D01*
X146576400Y-72072420D01*
X146576399Y-72072422D01*
X146476570Y-72286507D01*
X146476567Y-72286513D01*
X146419364Y-72499999D01*
X146419364Y-72500000D01*
X147316988Y-72500000D01*
X147284075Y-72557007D01*
X147250000Y-72684174D01*
X147250000Y-72815826D01*
X147284075Y-72942993D01*
X147316988Y-73000000D01*
X146419364Y-73000000D01*
X146476567Y-73213486D01*
X146476570Y-73213492D01*
X146576399Y-73427578D01*
X146711894Y-73621082D01*
X146878917Y-73788105D01*
X147072421Y-73923600D01*
X147286507Y-74023429D01*
X147286516Y-74023433D01*
X147500000Y-74080634D01*
X147500000Y-73183012D01*
X147557007Y-73215925D01*
X147684174Y-73250000D01*
X147815826Y-73250000D01*
X147942993Y-73215925D01*
X148000000Y-73183012D01*
X148000000Y-74080633D01*
X148213483Y-74023433D01*
X148213492Y-74023429D01*
X148427578Y-73923600D01*
X148621082Y-73788105D01*
X148788105Y-73621082D01*
X148923600Y-73427578D01*
X149023429Y-73213492D01*
X149023432Y-73213486D01*
X149080636Y-73000000D01*
X148183012Y-73000000D01*
X148215925Y-72942993D01*
X148250000Y-72815826D01*
X148250000Y-72684174D01*
X148215925Y-72557007D01*
X148183012Y-72500000D01*
X149080636Y-72500000D01*
X149080635Y-72499999D01*
X149023432Y-72286513D01*
X149023429Y-72286507D01*
X148923600Y-72072422D01*
X148923599Y-72072420D01*
X148788113Y-71878926D01*
X148788108Y-71878920D01*
X148621078Y-71711890D01*
X148435405Y-71581879D01*
X148391780Y-71527302D01*
X148384588Y-71457804D01*
X148416110Y-71395449D01*
X148435406Y-71378730D01*
X148462521Y-71359744D01*
X148621401Y-71248495D01*
X148788495Y-71081401D01*
X148924035Y-70887830D01*
X149023903Y-70673663D01*
X149085063Y-70445408D01*
X149105659Y-70210000D01*
X149085063Y-69974592D01*
X149036965Y-69795084D01*
X149023905Y-69746344D01*
X149023904Y-69746343D01*
X149023903Y-69746337D01*
X148924035Y-69532171D01*
X148894850Y-69490491D01*
X148788496Y-69338600D01*
X148758023Y-69308127D01*
X148666567Y-69216671D01*
X148633084Y-69155351D01*
X148638068Y-69085659D01*
X148679939Y-69029725D01*
X148710915Y-69012810D01*
X148842331Y-68963796D01*
X148957546Y-68877546D01*
X149043796Y-68762331D01*
X149094091Y-68627483D01*
X149100500Y-68567873D01*
X149100499Y-66772128D01*
X149094091Y-66712517D01*
X149067887Y-66642261D01*
X149043797Y-66577671D01*
X149043793Y-66577664D01*
X148957547Y-66462455D01*
X148957544Y-66462452D01*
X148842335Y-66376206D01*
X148842328Y-66376202D01*
X148707482Y-66325908D01*
X148707483Y-66325908D01*
X148647883Y-66319501D01*
X148647881Y-66319500D01*
X148647873Y-66319500D01*
X148647865Y-66319500D01*
X148524500Y-66319500D01*
X148457461Y-66299815D01*
X148411706Y-66247011D01*
X148400500Y-66195500D01*
X148400500Y-66185928D01*
X148375502Y-66060261D01*
X148375501Y-66060260D01*
X148375501Y-66060256D01*
X148326465Y-65941873D01*
X148325042Y-65939744D01*
X148255277Y-65835331D01*
X148255275Y-65835329D01*
X148255273Y-65835326D01*
X148132128Y-65712181D01*
X148098643Y-65650858D01*
X148103627Y-65581166D01*
X148145499Y-65525233D01*
X148210963Y-65500816D01*
X148219809Y-65500500D01*
X148741324Y-65500500D01*
X148808363Y-65520185D01*
X148829005Y-65536819D01*
X149463181Y-66170995D01*
X149496666Y-66232318D01*
X149499500Y-66258676D01*
X149499500Y-98741324D01*
X149479815Y-98808363D01*
X149463181Y-98829005D01*
X148829005Y-99463181D01*
X148767682Y-99496666D01*
X148741324Y-99499500D01*
X101258676Y-99499500D01*
X101191637Y-99479815D01*
X101170995Y-99463181D01*
X100536819Y-98829005D01*
X100503334Y-98767682D01*
X100500500Y-98741324D01*
X100500500Y-90000000D01*
X101355001Y-90000000D01*
X101355001Y-90173322D01*
X101365144Y-90272607D01*
X101418452Y-90433481D01*
X101418457Y-90433492D01*
X101507424Y-90577728D01*
X101507427Y-90577732D01*
X101627267Y-90697572D01*
X101627271Y-90697575D01*
X101771507Y-90786542D01*
X101771518Y-90786547D01*
X101932393Y-90839855D01*
X102031683Y-90849999D01*
X102055000Y-90849998D01*
X102055000Y-90000000D01*
X102555000Y-90000000D01*
X102555000Y-90849999D01*
X102578308Y-90849999D01*
X102578322Y-90849998D01*
X102677607Y-90839855D01*
X102838481Y-90786547D01*
X102838492Y-90786542D01*
X102982728Y-90697575D01*
X102982732Y-90697572D01*
X103102572Y-90577732D01*
X103102575Y-90577728D01*
X103191542Y-90433492D01*
X103191547Y-90433481D01*
X103244855Y-90272606D01*
X103254999Y-90173322D01*
X103255000Y-90173309D01*
X103255000Y-90000000D01*
X102555000Y-90000000D01*
X102055000Y-90000000D01*
X101355001Y-90000000D01*
X100500500Y-90000000D01*
X100500500Y-89500000D01*
X101355000Y-89500000D01*
X102055000Y-89500000D01*
X102055000Y-88650000D01*
X102555000Y-88650000D01*
X102555000Y-89500000D01*
X103254999Y-89500000D01*
X103254999Y-89326692D01*
X103254998Y-89326677D01*
X103244855Y-89227392D01*
X103191547Y-89066518D01*
X103191542Y-89066507D01*
X103102575Y-88922271D01*
X103102572Y-88922267D01*
X102982732Y-88802427D01*
X102982728Y-88802424D01*
X102838492Y-88713457D01*
X102838481Y-88713452D01*
X102677606Y-88660144D01*
X102578322Y-88650000D01*
X102555000Y-88650000D01*
X102055000Y-88650000D01*
X102055000Y-88649999D01*
X102031693Y-88650000D01*
X102031674Y-88650001D01*
X101932392Y-88660144D01*
X101771518Y-88713452D01*
X101771507Y-88713457D01*
X101627271Y-88802424D01*
X101627267Y-88802427D01*
X101507427Y-88922267D01*
X101507424Y-88922271D01*
X101418457Y-89066507D01*
X101418452Y-89066518D01*
X101365144Y-89227393D01*
X101355000Y-89326677D01*
X101355000Y-89500000D01*
X100500500Y-89500000D01*
X100500500Y-85597844D01*
X102775000Y-85597844D01*
X102781401Y-85657372D01*
X102781403Y-85657379D01*
X102831645Y-85792086D01*
X102831649Y-85792093D01*
X102917809Y-85907187D01*
X102917812Y-85907190D01*
X103032906Y-85993350D01*
X103032913Y-85993354D01*
X103167620Y-86043596D01*
X103167627Y-86043598D01*
X103227155Y-86049999D01*
X103227172Y-86050000D01*
X103550000Y-86050000D01*
X103550000Y-85080330D01*
X103569745Y-85100075D01*
X103655255Y-85149444D01*
X103750630Y-85175000D01*
X103849370Y-85175000D01*
X103944745Y-85149444D01*
X104030255Y-85100075D01*
X104044500Y-85085830D01*
X104044500Y-85126002D01*
X104047617Y-85141671D01*
X104050000Y-85165865D01*
X104050000Y-86050000D01*
X104195500Y-86050000D01*
X104262539Y-86069685D01*
X104308294Y-86122489D01*
X104319500Y-86174000D01*
X104319500Y-87393918D01*
X104319500Y-87393920D01*
X104319499Y-87393920D01*
X104348340Y-87538907D01*
X104348343Y-87538917D01*
X104404913Y-87675490D01*
X104404914Y-87675491D01*
X104404916Y-87675495D01*
X104414436Y-87689742D01*
X104414437Y-87689745D01*
X104487046Y-87798414D01*
X104487052Y-87798421D01*
X105177261Y-88488629D01*
X105210746Y-88549952D01*
X105205762Y-88619643D01*
X105163891Y-88675577D01*
X105128586Y-88694015D01*
X105096638Y-88704602D01*
X105071303Y-88712997D01*
X105071294Y-88713001D01*
X104926959Y-88802029D01*
X104926955Y-88802032D01*
X104807032Y-88921955D01*
X104807029Y-88921959D01*
X104718001Y-89066294D01*
X104717996Y-89066305D01*
X104664651Y-89227290D01*
X104654500Y-89326647D01*
X104654500Y-90173337D01*
X104654501Y-90173355D01*
X104664650Y-90272707D01*
X104664651Y-90272710D01*
X104717996Y-90433694D01*
X104718001Y-90433705D01*
X104807029Y-90578040D01*
X104807032Y-90578044D01*
X104926955Y-90697967D01*
X104926959Y-90697970D01*
X105071294Y-90786998D01*
X105071297Y-90786999D01*
X105071303Y-90787003D01*
X105232292Y-90840349D01*
X105331655Y-90850500D01*
X105875500Y-90850499D01*
X105942539Y-90870183D01*
X105988294Y-90922987D01*
X105999500Y-90974499D01*
X105999500Y-96000500D01*
X105979815Y-96067539D01*
X105927011Y-96113294D01*
X105875500Y-96124500D01*
X105599999Y-96124500D01*
X105599980Y-96124501D01*
X105497203Y-96135000D01*
X105497200Y-96135001D01*
X105330668Y-96190185D01*
X105330663Y-96190187D01*
X105181342Y-96282289D01*
X105057289Y-96406342D01*
X105017420Y-96470981D01*
X104965472Y-96517705D01*
X104896509Y-96528928D01*
X104832427Y-96501084D01*
X104824200Y-96493565D01*
X104716602Y-96385967D01*
X104576524Y-96284195D01*
X104422257Y-96205591D01*
X104257589Y-96152087D01*
X104257581Y-96152085D01*
X104250000Y-96150884D01*
X104250000Y-97219670D01*
X104230255Y-97199925D01*
X104144745Y-97150556D01*
X104049370Y-97125000D01*
X103950630Y-97125000D01*
X103855255Y-97150556D01*
X103769745Y-97199925D01*
X103750000Y-97219670D01*
X103750000Y-96150884D01*
X103749999Y-96150884D01*
X103742418Y-96152085D01*
X103742410Y-96152087D01*
X103577742Y-96205591D01*
X103423475Y-96284195D01*
X103283397Y-96385967D01*
X103160967Y-96508397D01*
X103059195Y-96648475D01*
X102980591Y-96802742D01*
X102927085Y-96967415D01*
X102900000Y-97138428D01*
X102900000Y-97250000D01*
X103719670Y-97250000D01*
X103699925Y-97269745D01*
X103650556Y-97355255D01*
X103625000Y-97450630D01*
X103625000Y-97549370D01*
X103650556Y-97644745D01*
X103699925Y-97730255D01*
X103719670Y-97750000D01*
X102900000Y-97750000D01*
X102900000Y-97861571D01*
X102927085Y-98032584D01*
X102980591Y-98197257D01*
X103059195Y-98351524D01*
X103160967Y-98491602D01*
X103283397Y-98614032D01*
X103423475Y-98715804D01*
X103577744Y-98794408D01*
X103742415Y-98847914D01*
X103742414Y-98847914D01*
X103749999Y-98849115D01*
X103750000Y-98849114D01*
X103750000Y-97780330D01*
X103769745Y-97800075D01*
X103855255Y-97849444D01*
X103950630Y-97875000D01*
X104049370Y-97875000D01*
X104144745Y-97849444D01*
X104230255Y-97800075D01*
X104250000Y-97780330D01*
X104250000Y-98849115D01*
X104257584Y-98847914D01*
X104422255Y-98794408D01*
X104576524Y-98715804D01*
X104716598Y-98614035D01*
X104824199Y-98506434D01*
X104885522Y-98472949D01*
X104955214Y-98477933D01*
X105011148Y-98519804D01*
X105017420Y-98529019D01*
X105050685Y-98582952D01*
X105057288Y-98593656D01*
X105181344Y-98717712D01*
X105330666Y-98809814D01*
X105497203Y-98864999D01*
X105599991Y-98875500D01*
X106400008Y-98875499D01*
X106400016Y-98875498D01*
X106400019Y-98875498D01*
X106456302Y-98869748D01*
X106502797Y-98864999D01*
X106669334Y-98809814D01*
X106818656Y-98717712D01*
X106942712Y-98593656D01*
X107034814Y-98444334D01*
X107089999Y-98277797D01*
X107100500Y-98175009D01*
X107100500Y-97950000D01*
X108525001Y-97950000D01*
X108525001Y-97999986D01*
X108535494Y-98102697D01*
X108590641Y-98269119D01*
X108590643Y-98269124D01*
X108682684Y-98418345D01*
X108806654Y-98542315D01*
X108955875Y-98634356D01*
X108955880Y-98634358D01*
X109122302Y-98689505D01*
X109122309Y-98689506D01*
X109225019Y-98699999D01*
X109499999Y-98699999D01*
X109500000Y-98699998D01*
X109500000Y-97950000D01*
X110000000Y-97950000D01*
X110000000Y-98699999D01*
X110274972Y-98699999D01*
X110274986Y-98699998D01*
X110377697Y-98689505D01*
X110544119Y-98634358D01*
X110544124Y-98634356D01*
X110693345Y-98542315D01*
X110817315Y-98418345D01*
X110909356Y-98269124D01*
X110909358Y-98269119D01*
X110964505Y-98102697D01*
X110964506Y-98102690D01*
X110974999Y-97999986D01*
X110975000Y-97999973D01*
X110975000Y-97950000D01*
X110000000Y-97950000D01*
X109500000Y-97950000D01*
X108525001Y-97950000D01*
X107100500Y-97950000D01*
X107100499Y-97512228D01*
X107120183Y-97445190D01*
X107136813Y-97424552D01*
X107332951Y-97228416D01*
X107415084Y-97105495D01*
X107425089Y-97081342D01*
X107451568Y-97017415D01*
X107471658Y-96968913D01*
X107492291Y-96865186D01*
X107500500Y-96823920D01*
X107500500Y-89926079D01*
X107471659Y-89781092D01*
X107471658Y-89781091D01*
X107471658Y-89781087D01*
X107467874Y-89771953D01*
X107460405Y-89702486D01*
X107491678Y-89640006D01*
X107551766Y-89604352D01*
X107582435Y-89600500D01*
X108573126Y-89600500D01*
X108640165Y-89620185D01*
X108660807Y-89636819D01*
X108671955Y-89647967D01*
X108671959Y-89647970D01*
X108816294Y-89736998D01*
X108816297Y-89736999D01*
X108816303Y-89737003D01*
X108977292Y-89790349D01*
X109076655Y-89800500D01*
X109923344Y-89800499D01*
X109923352Y-89800498D01*
X109923355Y-89800498D01*
X109977760Y-89794940D01*
X110022708Y-89790349D01*
X110183697Y-89737003D01*
X110328044Y-89647968D01*
X110447968Y-89528044D01*
X110537003Y-89383697D01*
X110590349Y-89222708D01*
X110600500Y-89123345D01*
X110600499Y-88576656D01*
X110599901Y-88570805D01*
X110590349Y-88477292D01*
X110590348Y-88477289D01*
X110586153Y-88464630D01*
X110537003Y-88316303D01*
X110536999Y-88316297D01*
X110536998Y-88316294D01*
X110447970Y-88171959D01*
X110447967Y-88171955D01*
X110328044Y-88052032D01*
X110328040Y-88052029D01*
X110183705Y-87963001D01*
X110183699Y-87962998D01*
X110183697Y-87962997D01*
X110114290Y-87939998D01*
X110022709Y-87909651D01*
X109923346Y-87899500D01*
X109076662Y-87899500D01*
X109076644Y-87899501D01*
X108977292Y-87909650D01*
X108977289Y-87909651D01*
X108816305Y-87962996D01*
X108816294Y-87963001D01*
X108671959Y-88052029D01*
X108671955Y-88052032D01*
X108660807Y-88063181D01*
X108599484Y-88096666D01*
X108573126Y-88099500D01*
X106962230Y-88099500D01*
X106895191Y-88079815D01*
X106874549Y-88063181D01*
X105856819Y-87045451D01*
X105823334Y-86984128D01*
X105820500Y-86957770D01*
X105820500Y-86105388D01*
X105840185Y-86038349D01*
X105892989Y-85992594D01*
X105962147Y-85982650D01*
X105991947Y-85990825D01*
X106040873Y-86011091D01*
X106188251Y-86040406D01*
X106238992Y-86050499D01*
X106238996Y-86050500D01*
X106238997Y-86050500D01*
X106441004Y-86050500D01*
X106475711Y-86043596D01*
X106584826Y-86021891D01*
X106654415Y-86028118D01*
X106677901Y-86040402D01*
X106723312Y-86070745D01*
X106723313Y-86070746D01*
X106731864Y-86076460D01*
X106731873Y-86076465D01*
X106850256Y-86125501D01*
X106850260Y-86125501D01*
X106850261Y-86125502D01*
X106975928Y-86150500D01*
X106975931Y-86150500D01*
X108088332Y-86150500D01*
X108155371Y-86170185D01*
X108193870Y-86209403D01*
X108207285Y-86231152D01*
X108207288Y-86231156D01*
X108331344Y-86355212D01*
X108452286Y-86429809D01*
X108480668Y-86447315D01*
X108496554Y-86452578D01*
X108515120Y-86458730D01*
X108572565Y-86498501D01*
X108597417Y-86558271D01*
X108598311Y-86558094D01*
X108599198Y-86562555D01*
X108599390Y-86563016D01*
X108599497Y-86564060D01*
X108608434Y-86608983D01*
X108617571Y-86654916D01*
X108624499Y-86689744D01*
X108641449Y-86730666D01*
X108673535Y-86808127D01*
X108733053Y-86897203D01*
X108744726Y-86914673D01*
X109085327Y-87255274D01*
X109136227Y-87289284D01*
X109191866Y-87326461D01*
X109191872Y-87326464D01*
X109191873Y-87326465D01*
X109310256Y-87375501D01*
X109310260Y-87375501D01*
X109310261Y-87375502D01*
X109435928Y-87400500D01*
X109435931Y-87400500D01*
X111423767Y-87400500D01*
X111490806Y-87420185D01*
X111536561Y-87472989D01*
X111541472Y-87485494D01*
X111552684Y-87519328D01*
X111552687Y-87519336D01*
X111564762Y-87538913D01*
X111644788Y-87668656D01*
X111768844Y-87792712D01*
X111790594Y-87806127D01*
X111837320Y-87858073D01*
X111849500Y-87911667D01*
X111849500Y-89064071D01*
X111868977Y-89161984D01*
X111868977Y-89161985D01*
X111874497Y-89189737D01*
X111874498Y-89189741D01*
X111874499Y-89189744D01*
X111923535Y-89308127D01*
X111994723Y-89414669D01*
X111994724Y-89414670D01*
X111994725Y-89414671D01*
X112125681Y-89545626D01*
X112159166Y-89606949D01*
X112162000Y-89633308D01*
X112162000Y-90500001D01*
X112162001Y-90500019D01*
X112172500Y-90602796D01*
X112172501Y-90602799D01*
X112221445Y-90750500D01*
X112227686Y-90769334D01*
X112319788Y-90918656D01*
X112443844Y-91042712D01*
X112593166Y-91134814D01*
X112759703Y-91189999D01*
X112862491Y-91200500D01*
X113487508Y-91200499D01*
X113487516Y-91200498D01*
X113487519Y-91200498D01*
X113563738Y-91192712D01*
X113590297Y-91189999D01*
X113756834Y-91134814D01*
X113906156Y-91042712D01*
X113999819Y-90949049D01*
X114061142Y-90915564D01*
X114130834Y-90920548D01*
X114175181Y-90949049D01*
X114268844Y-91042712D01*
X114418166Y-91134814D01*
X114584703Y-91189999D01*
X114687491Y-91200500D01*
X115312508Y-91200499D01*
X115312516Y-91200498D01*
X115312519Y-91200498D01*
X115388738Y-91192712D01*
X115415297Y-91189999D01*
X115581834Y-91134814D01*
X115731156Y-91042712D01*
X115855212Y-90918656D01*
X115922599Y-90809402D01*
X115974547Y-90762679D01*
X116028138Y-90750500D01*
X116225500Y-90750500D01*
X116292539Y-90770185D01*
X116338294Y-90822989D01*
X116349500Y-90874500D01*
X116349500Y-93325637D01*
X116329815Y-93392676D01*
X116313181Y-93413318D01*
X115587680Y-94138818D01*
X115526357Y-94172303D01*
X115456665Y-94167319D01*
X115412318Y-94138818D01*
X115074041Y-93800540D01*
X115074040Y-93800539D01*
X115036132Y-93775210D01*
X115014959Y-93761063D01*
X115014958Y-93761061D01*
X114926544Y-93701985D01*
X114926542Y-93701984D01*
X114844607Y-93668046D01*
X114844606Y-93668046D01*
X114762666Y-93634105D01*
X114762658Y-93634103D01*
X114588696Y-93599500D01*
X114588692Y-93599500D01*
X114588691Y-93599500D01*
X110462230Y-93599500D01*
X110395191Y-93579815D01*
X110374548Y-93563181D01*
X110286818Y-93475450D01*
X110253334Y-93414126D01*
X110250500Y-93387769D01*
X110250500Y-93065004D01*
X110270185Y-92997965D01*
X110309403Y-92959465D01*
X110328044Y-92947968D01*
X110447968Y-92828044D01*
X110537003Y-92683697D01*
X110590349Y-92522708D01*
X110600500Y-92423345D01*
X110600499Y-91876656D01*
X110595340Y-91826156D01*
X110590349Y-91777292D01*
X110590348Y-91777289D01*
X110574320Y-91728919D01*
X110537003Y-91616303D01*
X110537000Y-91616298D01*
X110536998Y-91616294D01*
X110447970Y-91471959D01*
X110447967Y-91471955D01*
X110328044Y-91352032D01*
X110328040Y-91352029D01*
X110183705Y-91263001D01*
X110183699Y-91262998D01*
X110183697Y-91262997D01*
X110156832Y-91254095D01*
X110022709Y-91209651D01*
X109923346Y-91199500D01*
X109076662Y-91199500D01*
X109076644Y-91199501D01*
X108977292Y-91209650D01*
X108977289Y-91209651D01*
X108816305Y-91262996D01*
X108816294Y-91263001D01*
X108671959Y-91352029D01*
X108671955Y-91352032D01*
X108552032Y-91471955D01*
X108552029Y-91471959D01*
X108463001Y-91616294D01*
X108462998Y-91616301D01*
X108462997Y-91616303D01*
X108454246Y-91642712D01*
X108409651Y-91777290D01*
X108399500Y-91876647D01*
X108399500Y-92423337D01*
X108399501Y-92423355D01*
X108409650Y-92522707D01*
X108409651Y-92522710D01*
X108462996Y-92683694D01*
X108463001Y-92683705D01*
X108552029Y-92828040D01*
X108552032Y-92828044D01*
X108671956Y-92947968D01*
X108690596Y-92959465D01*
X108737321Y-93011412D01*
X108749500Y-93065004D01*
X108749500Y-93823918D01*
X108749500Y-93823920D01*
X108749499Y-93823920D01*
X108778340Y-93968907D01*
X108778343Y-93968917D01*
X108834913Y-94105490D01*
X108834914Y-94105492D01*
X108860982Y-94144505D01*
X108860983Y-94144507D01*
X108917045Y-94228413D01*
X109004236Y-94315603D01*
X109037721Y-94376926D01*
X109032737Y-94446618D01*
X109019657Y-94472175D01*
X108951991Y-94573444D01*
X108951988Y-94573449D01*
X108926864Y-94634106D01*
X108884106Y-94737331D01*
X108884105Y-94737335D01*
X108868841Y-94814070D01*
X108868841Y-94814071D01*
X108855605Y-94880611D01*
X108823220Y-94942522D01*
X108810907Y-94953679D01*
X108806345Y-94957286D01*
X108682289Y-95081342D01*
X108590187Y-95230663D01*
X108590186Y-95230666D01*
X108535001Y-95397203D01*
X108535001Y-95397204D01*
X108535000Y-95397204D01*
X108524500Y-95499983D01*
X108524500Y-96100001D01*
X108524501Y-96100019D01*
X108535000Y-96202796D01*
X108535001Y-96202799D01*
X108578542Y-96334195D01*
X108590186Y-96369334D01*
X108682288Y-96518656D01*
X108806344Y-96642712D01*
X108809628Y-96644737D01*
X108809653Y-96644753D01*
X108811445Y-96646746D01*
X108812011Y-96647193D01*
X108811934Y-96647289D01*
X108856379Y-96696699D01*
X108867603Y-96765661D01*
X108839761Y-96829744D01*
X108809665Y-96855826D01*
X108806660Y-96857679D01*
X108806655Y-96857683D01*
X108682684Y-96981654D01*
X108590643Y-97130875D01*
X108590641Y-97130880D01*
X108535494Y-97297302D01*
X108535493Y-97297309D01*
X108525000Y-97400013D01*
X108525000Y-97450000D01*
X110974999Y-97450000D01*
X110974999Y-97400028D01*
X110974998Y-97400013D01*
X110964505Y-97297302D01*
X110909358Y-97130880D01*
X110909356Y-97130875D01*
X110817315Y-96981654D01*
X110693344Y-96857683D01*
X110693341Y-96857681D01*
X110690339Y-96855829D01*
X110688713Y-96854021D01*
X110687677Y-96853202D01*
X110687817Y-96853024D01*
X110643617Y-96803880D01*
X110632397Y-96734917D01*
X110660243Y-96670836D01*
X110690344Y-96644754D01*
X110693656Y-96642712D01*
X110817712Y-96518656D01*
X110909814Y-96369334D01*
X110964999Y-96202797D01*
X110975500Y-96100009D01*
X110975499Y-95524499D01*
X110995183Y-95457461D01*
X111047987Y-95411706D01*
X111099499Y-95400500D01*
X114075638Y-95400500D01*
X114142677Y-95420185D01*
X114163319Y-95436819D01*
X114563181Y-95836680D01*
X114596666Y-95898003D01*
X114599500Y-95924361D01*
X114599500Y-96362770D01*
X114579815Y-96429809D01*
X114563181Y-96450451D01*
X114557289Y-96456342D01*
X114557288Y-96456344D01*
X114519441Y-96517705D01*
X114517420Y-96520981D01*
X114465472Y-96567705D01*
X114396509Y-96578928D01*
X114332427Y-96551084D01*
X114324200Y-96543565D01*
X114216602Y-96435967D01*
X114076524Y-96334195D01*
X113922257Y-96255591D01*
X113757589Y-96202087D01*
X113757581Y-96202085D01*
X113750000Y-96200884D01*
X113750000Y-97269670D01*
X113730255Y-97249925D01*
X113644745Y-97200556D01*
X113549370Y-97175000D01*
X113450630Y-97175000D01*
X113355255Y-97200556D01*
X113269745Y-97249925D01*
X113250000Y-97269670D01*
X113250000Y-96200884D01*
X113249999Y-96200884D01*
X113242418Y-96202085D01*
X113242410Y-96202087D01*
X113077742Y-96255591D01*
X112923475Y-96334195D01*
X112783397Y-96435967D01*
X112660967Y-96558397D01*
X112559195Y-96698475D01*
X112480591Y-96852742D01*
X112427085Y-97017415D01*
X112400000Y-97188428D01*
X112400000Y-97300000D01*
X113219670Y-97300000D01*
X113199925Y-97319745D01*
X113150556Y-97405255D01*
X113125000Y-97500630D01*
X113125000Y-97599370D01*
X113150556Y-97694745D01*
X113199925Y-97780255D01*
X113219670Y-97800000D01*
X112400000Y-97800000D01*
X112400000Y-97911571D01*
X112427085Y-98082584D01*
X112480591Y-98247257D01*
X112559195Y-98401524D01*
X112660967Y-98541602D01*
X112783397Y-98664032D01*
X112923475Y-98765804D01*
X113077744Y-98844408D01*
X113242415Y-98897914D01*
X113242414Y-98897914D01*
X113249999Y-98899115D01*
X113250000Y-98899114D01*
X113250000Y-97830330D01*
X113269745Y-97850075D01*
X113355255Y-97899444D01*
X113450630Y-97925000D01*
X113549370Y-97925000D01*
X113644745Y-97899444D01*
X113730255Y-97850075D01*
X113750000Y-97830330D01*
X113750000Y-98899115D01*
X113757584Y-98897914D01*
X113922255Y-98844408D01*
X114076524Y-98765804D01*
X114216598Y-98664035D01*
X114324199Y-98556434D01*
X114385522Y-98522949D01*
X114455214Y-98527933D01*
X114511148Y-98569804D01*
X114517418Y-98579016D01*
X114519846Y-98582952D01*
X114551551Y-98634356D01*
X114557288Y-98643656D01*
X114681344Y-98767712D01*
X114830666Y-98859814D01*
X114997203Y-98914999D01*
X115099991Y-98925500D01*
X115900008Y-98925499D01*
X115900016Y-98925498D01*
X115900019Y-98925498D01*
X115966997Y-98918656D01*
X116002797Y-98914999D01*
X116169334Y-98859814D01*
X116318656Y-98767712D01*
X116442712Y-98643656D01*
X116534814Y-98494334D01*
X116589999Y-98327797D01*
X116591562Y-98312501D01*
X119049500Y-98312501D01*
X119049501Y-98312519D01*
X119060000Y-98415296D01*
X119060001Y-98415299D01*
X119085286Y-98491602D01*
X119115186Y-98581834D01*
X119207288Y-98731156D01*
X119331344Y-98855212D01*
X119480666Y-98947314D01*
X119647203Y-99002499D01*
X119749991Y-99013000D01*
X120350008Y-99012999D01*
X120350016Y-99012998D01*
X120350019Y-99012998D01*
X120406302Y-99007248D01*
X120452797Y-99002499D01*
X120619334Y-98947314D01*
X120768656Y-98855212D01*
X120892712Y-98731156D01*
X120894752Y-98727847D01*
X120896745Y-98726055D01*
X120897193Y-98725489D01*
X120897289Y-98725565D01*
X120946694Y-98681123D01*
X121015656Y-98669895D01*
X121079740Y-98697734D01*
X121105829Y-98727839D01*
X121107681Y-98730841D01*
X121107683Y-98730844D01*
X121231654Y-98854815D01*
X121380875Y-98946856D01*
X121380880Y-98946858D01*
X121547302Y-99002005D01*
X121547309Y-99002006D01*
X121650019Y-99012499D01*
X121699999Y-99012498D01*
X121700000Y-99012498D01*
X121700000Y-98037500D01*
X122200000Y-98037500D01*
X122200000Y-99012499D01*
X122249972Y-99012499D01*
X122249986Y-99012498D01*
X122352697Y-99002005D01*
X122519119Y-98946858D01*
X122519124Y-98946856D01*
X122668345Y-98854815D01*
X122792315Y-98730845D01*
X122884356Y-98581624D01*
X122884358Y-98581619D01*
X122939505Y-98415197D01*
X122939506Y-98415190D01*
X122949999Y-98312486D01*
X122950000Y-98312473D01*
X122950000Y-98037500D01*
X122200000Y-98037500D01*
X121700000Y-98037500D01*
X121700000Y-96562500D01*
X122200000Y-96562500D01*
X122200000Y-97537500D01*
X122949999Y-97537500D01*
X122949999Y-97262528D01*
X122949998Y-97262513D01*
X122939505Y-97159802D01*
X122884358Y-96993380D01*
X122884356Y-96993375D01*
X122792315Y-96844154D01*
X122668345Y-96720184D01*
X122519124Y-96628143D01*
X122519119Y-96628141D01*
X122352697Y-96572994D01*
X122352690Y-96572993D01*
X122249986Y-96562500D01*
X122200000Y-96562500D01*
X121700000Y-96562500D01*
X121699999Y-96562499D01*
X121650029Y-96562500D01*
X121650011Y-96562501D01*
X121547302Y-96572994D01*
X121380880Y-96628141D01*
X121380875Y-96628143D01*
X121231654Y-96720184D01*
X121107683Y-96844155D01*
X121107679Y-96844160D01*
X121105826Y-96847165D01*
X121104018Y-96848790D01*
X121103202Y-96849823D01*
X121103025Y-96849683D01*
X121053874Y-96893885D01*
X120984911Y-96905101D01*
X120920831Y-96877252D01*
X120894753Y-96847153D01*
X120894737Y-96847128D01*
X120892712Y-96843844D01*
X120836819Y-96787951D01*
X120803334Y-96726628D01*
X120800500Y-96700270D01*
X120800500Y-96049729D01*
X120820185Y-95982690D01*
X120836819Y-95962048D01*
X121570448Y-95228419D01*
X121570451Y-95228416D01*
X121652584Y-95105495D01*
X121662589Y-95081342D01*
X121671664Y-95059432D01*
X121709158Y-94968913D01*
X121735730Y-94835331D01*
X121738000Y-94823920D01*
X121738000Y-93948138D01*
X121757685Y-93881099D01*
X121796901Y-93842600D01*
X121906156Y-93775212D01*
X121974549Y-93706819D01*
X122035872Y-93673334D01*
X122062230Y-93670500D01*
X122743583Y-93670500D01*
X122873890Y-93670500D01*
X122905983Y-93674725D01*
X123024753Y-93706549D01*
X123176715Y-93719844D01*
X123237498Y-93725162D01*
X123237500Y-93725162D01*
X123237502Y-93725162D01*
X123290686Y-93720508D01*
X123450247Y-93706549D01*
X123656530Y-93651276D01*
X123850081Y-93561021D01*
X124025019Y-93438529D01*
X124176029Y-93287519D01*
X124176031Y-93287515D01*
X124176728Y-93286819D01*
X124238052Y-93253334D01*
X124264410Y-93250500D01*
X126481420Y-93250500D01*
X126578962Y-93231096D01*
X126626413Y-93221658D01*
X126762995Y-93165084D01*
X126812229Y-93132186D01*
X126885916Y-93082952D01*
X127018868Y-92950000D01*
X129762501Y-92950000D01*
X129762501Y-92999986D01*
X129772994Y-93102697D01*
X129828141Y-93269119D01*
X129828143Y-93269124D01*
X129920184Y-93418345D01*
X130044154Y-93542315D01*
X130193375Y-93634356D01*
X130193380Y-93634358D01*
X130359802Y-93689505D01*
X130359809Y-93689506D01*
X130462519Y-93699999D01*
X130737499Y-93699999D01*
X130737500Y-93699998D01*
X130737500Y-92950000D01*
X131237500Y-92950000D01*
X131237500Y-93699999D01*
X131512472Y-93699999D01*
X131512486Y-93699998D01*
X131615197Y-93689505D01*
X131781619Y-93634358D01*
X131781624Y-93634356D01*
X131930845Y-93542315D01*
X132054815Y-93418345D01*
X132146856Y-93269124D01*
X132146858Y-93269119D01*
X132202005Y-93102697D01*
X132202006Y-93102690D01*
X132212499Y-92999986D01*
X132212500Y-92999973D01*
X132212500Y-92950000D01*
X131237500Y-92950000D01*
X130737500Y-92950000D01*
X129762501Y-92950000D01*
X127018868Y-92950000D01*
X129332951Y-90635916D01*
X129415084Y-90512995D01*
X129471658Y-90376413D01*
X129484059Y-90314069D01*
X129500500Y-90231420D01*
X129500500Y-89549972D01*
X129507458Y-89509017D01*
X129517905Y-89479161D01*
X129535368Y-89429255D01*
X129535369Y-89429249D01*
X129555565Y-89250003D01*
X129555565Y-89249996D01*
X129535369Y-89070750D01*
X129535368Y-89070745D01*
X129518126Y-89021471D01*
X129475789Y-88900478D01*
X129453495Y-88864998D01*
X129414179Y-88802427D01*
X129379816Y-88747738D01*
X129252262Y-88620184D01*
X129219344Y-88599500D01*
X129099523Y-88524211D01*
X128929254Y-88464631D01*
X128929249Y-88464630D01*
X128750004Y-88444435D01*
X128749996Y-88444435D01*
X128570750Y-88464630D01*
X128570745Y-88464631D01*
X128400476Y-88524211D01*
X128247737Y-88620184D01*
X128120184Y-88747737D01*
X128024211Y-88900476D01*
X127964631Y-89070745D01*
X127964630Y-89070750D01*
X127944435Y-89249996D01*
X127944435Y-89250003D01*
X127964630Y-89429249D01*
X127964631Y-89429254D01*
X127992542Y-89509017D01*
X127999500Y-89549972D01*
X127999500Y-89795270D01*
X127979815Y-89862309D01*
X127963181Y-89882951D01*
X126132951Y-91713181D01*
X126071628Y-91746666D01*
X126045270Y-91749500D01*
X124264410Y-91749500D01*
X124197371Y-91729815D01*
X124176728Y-91713181D01*
X124176031Y-91712484D01*
X124176029Y-91712481D01*
X124025019Y-91561471D01*
X124025018Y-91561470D01*
X124025017Y-91561469D01*
X123850548Y-91439306D01*
X123850081Y-91438979D01*
X123850080Y-91438978D01*
X123850078Y-91438977D01*
X123850079Y-91438977D01*
X123700728Y-91369334D01*
X123656530Y-91348724D01*
X123656526Y-91348723D01*
X123656522Y-91348721D01*
X123450252Y-91293452D01*
X123450248Y-91293451D01*
X123450247Y-91293451D01*
X123450246Y-91293450D01*
X123450241Y-91293450D01*
X123237502Y-91274838D01*
X123237498Y-91274838D01*
X123024758Y-91293450D01*
X123024747Y-91293452D01*
X122818477Y-91348721D01*
X122818470Y-91348723D01*
X122818470Y-91348724D01*
X122811376Y-91352032D01*
X122624921Y-91438977D01*
X122449982Y-91561469D01*
X122386137Y-91625314D01*
X122324813Y-91658798D01*
X122255122Y-91653813D01*
X122199188Y-91611942D01*
X122174772Y-91546477D01*
X122176830Y-91517032D01*
X122176811Y-91517031D01*
X122176873Y-91516420D01*
X122177206Y-91511663D01*
X122177498Y-91510299D01*
X122177499Y-91510297D01*
X122188000Y-91407509D01*
X122187999Y-90794499D01*
X122207683Y-90727461D01*
X122260487Y-90681706D01*
X122311999Y-90670500D01*
X124720491Y-90670500D01*
X124787530Y-90690185D01*
X124822066Y-90723376D01*
X124838974Y-90747523D01*
X124989978Y-90898527D01*
X125008233Y-90911309D01*
X125164919Y-91021021D01*
X125164921Y-91021022D01*
X125164920Y-91021022D01*
X125211431Y-91042710D01*
X125358470Y-91111276D01*
X125358476Y-91111277D01*
X125358477Y-91111278D01*
X125408127Y-91124581D01*
X125564753Y-91166549D01*
X125716715Y-91179844D01*
X125777498Y-91185162D01*
X125777500Y-91185162D01*
X125777502Y-91185162D01*
X125830686Y-91180508D01*
X125990247Y-91166549D01*
X126196530Y-91111276D01*
X126390081Y-91021021D01*
X126565019Y-90898529D01*
X126716029Y-90747519D01*
X126838521Y-90572581D01*
X126928776Y-90379030D01*
X126984049Y-90172747D01*
X127001384Y-89974603D01*
X127002662Y-89960001D01*
X127002662Y-89959998D01*
X126994115Y-89862309D01*
X126984049Y-89747253D01*
X126928776Y-89540970D01*
X126838521Y-89347419D01*
X126716029Y-89172481D01*
X126716027Y-89172478D01*
X126565021Y-89021472D01*
X126390548Y-88899306D01*
X126390081Y-88898979D01*
X126390080Y-88898978D01*
X126390078Y-88898977D01*
X126390079Y-88898977D01*
X126261047Y-88838809D01*
X126196530Y-88808724D01*
X126196526Y-88808723D01*
X126196522Y-88808721D01*
X125990252Y-88753452D01*
X125990248Y-88753451D01*
X125990247Y-88753451D01*
X125990246Y-88753450D01*
X125990241Y-88753450D01*
X125777502Y-88734838D01*
X125777498Y-88734838D01*
X125564758Y-88753450D01*
X125564747Y-88753452D01*
X125358477Y-88808721D01*
X125358470Y-88808723D01*
X125358470Y-88808724D01*
X125346975Y-88814083D01*
X125164921Y-88898977D01*
X124989982Y-89021469D01*
X124960501Y-89050951D01*
X124878269Y-89133182D01*
X124816949Y-89166666D01*
X124790590Y-89169500D01*
X122306210Y-89169500D01*
X122239171Y-89149815D01*
X122193416Y-89097011D01*
X122182852Y-89032897D01*
X122184019Y-89021472D01*
X122188000Y-88982509D01*
X122187999Y-88357492D01*
X122177499Y-88254703D01*
X122169635Y-88230970D01*
X122167233Y-88161141D01*
X122199660Y-88104285D01*
X122837500Y-87466445D01*
X122837500Y-87472661D01*
X122864759Y-87574394D01*
X122917420Y-87665606D01*
X122991894Y-87740080D01*
X123083106Y-87792741D01*
X123184839Y-87820000D01*
X123191053Y-87820000D01*
X122569468Y-88441584D01*
X122625163Y-88480582D01*
X122625169Y-88480586D01*
X122818640Y-88570802D01*
X122818646Y-88570805D01*
X123024837Y-88626054D01*
X123024845Y-88626055D01*
X123237498Y-88644660D01*
X123237502Y-88644660D01*
X123450154Y-88626055D01*
X123450162Y-88626054D01*
X123656353Y-88570805D01*
X123656364Y-88570801D01*
X123849825Y-88480589D01*
X123905530Y-88441583D01*
X123283948Y-87820000D01*
X123290161Y-87820000D01*
X123391894Y-87792741D01*
X123483106Y-87740080D01*
X123557580Y-87665606D01*
X123610241Y-87574394D01*
X123637500Y-87472661D01*
X123637500Y-87466446D01*
X124259083Y-88088029D01*
X124298089Y-88032325D01*
X124388301Y-87838864D01*
X124388305Y-87838853D01*
X124443554Y-87632662D01*
X124443555Y-87632654D01*
X124462160Y-87420002D01*
X124462160Y-87419997D01*
X124443555Y-87207345D01*
X124443554Y-87207337D01*
X124388305Y-87001146D01*
X124388302Y-87001140D01*
X124298086Y-86807669D01*
X124298082Y-86807663D01*
X124259084Y-86751968D01*
X123637500Y-87373552D01*
X123637500Y-87367339D01*
X123610241Y-87265606D01*
X123557580Y-87174394D01*
X123483106Y-87099920D01*
X123391894Y-87047259D01*
X123290161Y-87020000D01*
X123283947Y-87020000D01*
X123905530Y-86398415D01*
X123849829Y-86359413D01*
X123656359Y-86269197D01*
X123656353Y-86269194D01*
X123450162Y-86213945D01*
X123450154Y-86213944D01*
X123237502Y-86195340D01*
X123237498Y-86195340D01*
X123024845Y-86213944D01*
X123024837Y-86213945D01*
X122818646Y-86269194D01*
X122818640Y-86269197D01*
X122625171Y-86359412D01*
X122625169Y-86359413D01*
X122569469Y-86398415D01*
X122569468Y-86398415D01*
X123191054Y-87020000D01*
X123184839Y-87020000D01*
X123083106Y-87047259D01*
X122991894Y-87099920D01*
X122917420Y-87174394D01*
X122864759Y-87265606D01*
X122837500Y-87367339D01*
X122837500Y-87373553D01*
X122223818Y-86759871D01*
X122190333Y-86698548D01*
X122187499Y-86672190D01*
X122187499Y-86532528D01*
X122187498Y-86532513D01*
X122177005Y-86429802D01*
X122121858Y-86263380D01*
X122121856Y-86263375D01*
X122029815Y-86114154D01*
X121905845Y-85990184D01*
X121756624Y-85898143D01*
X121756619Y-85898141D01*
X121590197Y-85842994D01*
X121590190Y-85842993D01*
X121487486Y-85832500D01*
X121237500Y-85832500D01*
X121237500Y-86971000D01*
X121217815Y-87038039D01*
X121165011Y-87083794D01*
X121113500Y-87095000D01*
X119787501Y-87095000D01*
X119787501Y-87157486D01*
X119797994Y-87260197D01*
X119853141Y-87426619D01*
X119853143Y-87426624D01*
X119945184Y-87575845D01*
X120038804Y-87669465D01*
X120072289Y-87730788D01*
X120067305Y-87800480D01*
X120038805Y-87844827D01*
X119944787Y-87938845D01*
X119852687Y-88088163D01*
X119852685Y-88088168D01*
X119828504Y-88161141D01*
X119797501Y-88254703D01*
X119797501Y-88254704D01*
X119797500Y-88254704D01*
X119787000Y-88357483D01*
X119787000Y-88982501D01*
X119787001Y-88982519D01*
X119797500Y-89085296D01*
X119797501Y-89085299D01*
X119844587Y-89227392D01*
X119852686Y-89251834D01*
X119944788Y-89401156D01*
X120068844Y-89525212D01*
X120178097Y-89592599D01*
X120224821Y-89644547D01*
X120237000Y-89698138D01*
X120237000Y-90066862D01*
X120217315Y-90133901D01*
X120178098Y-90172399D01*
X120176579Y-90173337D01*
X120068842Y-90239789D01*
X119944789Y-90363842D01*
X119852687Y-90513163D01*
X119852685Y-90513168D01*
X119824849Y-90597170D01*
X119797501Y-90679703D01*
X119797501Y-90679704D01*
X119797500Y-90679704D01*
X119787000Y-90782483D01*
X119787000Y-91407501D01*
X119787001Y-91407519D01*
X119797500Y-91510296D01*
X119797501Y-91510299D01*
X119846709Y-91658798D01*
X119852686Y-91676834D01*
X119928963Y-91800500D01*
X119944789Y-91826157D01*
X120038451Y-91919819D01*
X120071936Y-91981142D01*
X120066952Y-92050834D01*
X120038451Y-92095181D01*
X119944789Y-92188842D01*
X119852687Y-92338163D01*
X119852685Y-92338168D01*
X119838872Y-92379853D01*
X119797501Y-92504703D01*
X119797501Y-92504704D01*
X119797500Y-92504704D01*
X119787000Y-92607483D01*
X119787000Y-93232501D01*
X119787001Y-93232519D01*
X119797500Y-93335296D01*
X119797501Y-93335299D01*
X119841751Y-93468834D01*
X119852686Y-93501834D01*
X119944788Y-93651156D01*
X120068844Y-93775212D01*
X120178097Y-93842599D01*
X120224821Y-93894547D01*
X120237000Y-93948138D01*
X120237000Y-94387769D01*
X120217315Y-94454808D01*
X120200681Y-94475450D01*
X119467050Y-95209080D01*
X119467044Y-95209088D01*
X119417812Y-95282768D01*
X119417813Y-95282769D01*
X119384921Y-95331996D01*
X119384914Y-95332008D01*
X119328342Y-95468586D01*
X119328340Y-95468592D01*
X119299500Y-95613579D01*
X119299500Y-96700270D01*
X119279815Y-96767309D01*
X119263181Y-96787951D01*
X119207289Y-96843842D01*
X119115187Y-96993163D01*
X119115185Y-96993168D01*
X119094251Y-97056344D01*
X119060001Y-97159703D01*
X119060001Y-97159704D01*
X119060000Y-97159704D01*
X119049500Y-97262483D01*
X119049500Y-98312501D01*
X116591562Y-98312501D01*
X116600500Y-98225009D01*
X116600499Y-96874992D01*
X116599497Y-96865187D01*
X116589999Y-96772203D01*
X116589998Y-96772200D01*
X116578321Y-96736961D01*
X116534814Y-96605666D01*
X116442712Y-96456344D01*
X116436819Y-96450451D01*
X116403334Y-96389128D01*
X116400500Y-96362770D01*
X116400500Y-95924361D01*
X116420185Y-95857322D01*
X116436819Y-95836680D01*
X117949464Y-94324035D01*
X117955098Y-94315603D01*
X118031014Y-94201987D01*
X118048013Y-94176547D01*
X118074334Y-94113001D01*
X118115895Y-94012666D01*
X118150500Y-93838692D01*
X118150500Y-93661308D01*
X118150500Y-90161309D01*
X118150500Y-90161306D01*
X118150499Y-90161304D01*
X118115896Y-89987341D01*
X118115893Y-89987332D01*
X118048016Y-89823459D01*
X118048009Y-89823446D01*
X117949464Y-89675965D01*
X117949461Y-89675961D01*
X117824038Y-89550538D01*
X117824034Y-89550535D01*
X117676553Y-89451990D01*
X117676540Y-89451983D01*
X117512667Y-89384106D01*
X117512659Y-89384104D01*
X117417886Y-89365252D01*
X117373190Y-89346739D01*
X117362340Y-89339489D01*
X117355495Y-89334916D01*
X117355493Y-89334915D01*
X117355490Y-89334913D01*
X117218917Y-89278343D01*
X117218907Y-89278340D01*
X117073920Y-89249500D01*
X117073918Y-89249500D01*
X116028138Y-89249500D01*
X115961099Y-89229815D01*
X115922599Y-89190597D01*
X115922069Y-89189737D01*
X115855212Y-89081344D01*
X115731156Y-88957288D01*
X115581834Y-88865186D01*
X115415297Y-88810001D01*
X115415295Y-88810000D01*
X115312510Y-88799500D01*
X114687498Y-88799500D01*
X114687480Y-88799501D01*
X114584703Y-88810000D01*
X114584700Y-88810001D01*
X114418168Y-88865185D01*
X114418163Y-88865187D01*
X114268842Y-88957289D01*
X114175181Y-89050951D01*
X114113858Y-89084436D01*
X114044166Y-89079452D01*
X113999819Y-89050951D01*
X113906157Y-88957289D01*
X113906156Y-88957288D01*
X113756834Y-88865186D01*
X113590297Y-88810001D01*
X113590295Y-88810000D01*
X113487516Y-88799500D01*
X113487509Y-88799500D01*
X113274500Y-88799500D01*
X113207461Y-88779815D01*
X113161706Y-88727011D01*
X113150500Y-88675500D01*
X113150500Y-87911667D01*
X113170185Y-87844628D01*
X113209405Y-87806127D01*
X113231156Y-87792712D01*
X113324819Y-87699049D01*
X113386142Y-87665564D01*
X113455834Y-87670548D01*
X113500181Y-87699049D01*
X113593844Y-87792712D01*
X113743166Y-87884814D01*
X113909703Y-87939999D01*
X114012491Y-87950500D01*
X114637508Y-87950499D01*
X114637516Y-87950498D01*
X114637519Y-87950498D01*
X114693802Y-87944748D01*
X114740297Y-87939999D01*
X114906834Y-87884814D01*
X115056156Y-87792712D01*
X115180212Y-87668656D01*
X115224933Y-87596150D01*
X115276879Y-87549427D01*
X115344354Y-87538028D01*
X115399093Y-87544195D01*
X115499997Y-87555565D01*
X115500000Y-87555565D01*
X115500004Y-87555565D01*
X115679249Y-87535369D01*
X115679252Y-87535368D01*
X115679255Y-87535368D01*
X115849522Y-87475789D01*
X116002262Y-87379816D01*
X116129816Y-87252262D01*
X116225789Y-87099522D01*
X116285368Y-86929255D01*
X116285369Y-86929249D01*
X116305565Y-86750003D01*
X116305565Y-86749996D01*
X116288101Y-86595000D01*
X119787500Y-86595000D01*
X120737500Y-86595000D01*
X120737500Y-85832500D01*
X120487529Y-85832500D01*
X120487512Y-85832501D01*
X120384802Y-85842994D01*
X120218380Y-85898141D01*
X120218375Y-85898143D01*
X120069154Y-85990184D01*
X119945184Y-86114154D01*
X119853143Y-86263375D01*
X119853141Y-86263380D01*
X119797994Y-86429802D01*
X119797993Y-86429809D01*
X119787500Y-86532513D01*
X119787500Y-86595000D01*
X116288101Y-86595000D01*
X116285369Y-86570750D01*
X116285368Y-86570745D01*
X116283029Y-86564060D01*
X116225789Y-86400478D01*
X116199985Y-86359412D01*
X116144799Y-86271584D01*
X116129816Y-86247738D01*
X116002262Y-86120184D01*
X115968185Y-86098772D01*
X115849523Y-86024211D01*
X115679254Y-85964631D01*
X115679249Y-85964630D01*
X115500004Y-85944435D01*
X115499996Y-85944435D01*
X115344354Y-85961971D01*
X115275532Y-85949916D01*
X115224932Y-85903847D01*
X115180212Y-85831344D01*
X115056157Y-85707289D01*
X115056156Y-85707288D01*
X114906834Y-85615186D01*
X114740297Y-85560001D01*
X114740295Y-85560000D01*
X114637510Y-85549500D01*
X114012498Y-85549500D01*
X114012480Y-85549501D01*
X113909703Y-85560000D01*
X113909700Y-85560001D01*
X113743168Y-85615185D01*
X113743163Y-85615187D01*
X113593842Y-85707289D01*
X113500181Y-85800951D01*
X113438858Y-85834436D01*
X113369166Y-85829452D01*
X113324819Y-85800951D01*
X113231157Y-85707289D01*
X113231156Y-85707288D01*
X113081834Y-85615186D01*
X112915297Y-85560001D01*
X112915295Y-85560000D01*
X112812510Y-85549500D01*
X112187498Y-85549500D01*
X112187480Y-85549501D01*
X112084703Y-85560000D01*
X112084700Y-85560001D01*
X111918168Y-85615185D01*
X111918163Y-85615187D01*
X111768842Y-85707289D01*
X111644789Y-85831342D01*
X111552687Y-85980663D01*
X111552684Y-85980671D01*
X111541472Y-86014506D01*
X111501699Y-86071950D01*
X111437183Y-86098772D01*
X111423767Y-86099500D01*
X110550680Y-86099500D01*
X110483641Y-86079815D01*
X110437886Y-86027011D01*
X110427942Y-85957853D01*
X110432974Y-85936496D01*
X110433872Y-85933786D01*
X110439999Y-85915297D01*
X110450500Y-85812509D01*
X110450499Y-85187492D01*
X110446612Y-85149444D01*
X110439999Y-85084703D01*
X110439998Y-85084700D01*
X110435395Y-85070808D01*
X110384814Y-84918166D01*
X110292712Y-84768844D01*
X110199049Y-84675181D01*
X110165564Y-84613858D01*
X110170548Y-84544166D01*
X110199049Y-84499819D01*
X110240542Y-84458326D01*
X110292712Y-84406156D01*
X110384814Y-84256834D01*
X110439999Y-84090297D01*
X110450500Y-83987509D01*
X110450499Y-83362492D01*
X110439999Y-83259703D01*
X110384814Y-83093166D01*
X110292712Y-82943844D01*
X110168656Y-82819788D01*
X110075888Y-82762569D01*
X110019336Y-82727687D01*
X110019331Y-82727685D01*
X109999450Y-82721097D01*
X109852797Y-82672501D01*
X109852795Y-82672500D01*
X109750010Y-82662000D01*
X108749998Y-82662000D01*
X108749980Y-82662001D01*
X108647203Y-82672500D01*
X108647200Y-82672501D01*
X108480668Y-82727685D01*
X108480663Y-82727687D01*
X108331342Y-82819789D01*
X108207288Y-82943843D01*
X108207285Y-82943847D01*
X108193870Y-82965597D01*
X108141922Y-83012322D01*
X108088332Y-83024500D01*
X105905929Y-83024500D01*
X105780261Y-83049497D01*
X105780255Y-83049499D01*
X105661875Y-83098533D01*
X105661866Y-83098538D01*
X105555331Y-83169723D01*
X105555327Y-83169726D01*
X105401136Y-83323918D01*
X105334138Y-83390916D01*
X105282831Y-83442222D01*
X105265389Y-83459664D01*
X105265388Y-83459663D01*
X105211871Y-83513181D01*
X105150548Y-83546666D01*
X105124190Y-83549500D01*
X104968992Y-83549500D01*
X104770880Y-83588907D01*
X104770868Y-83588910D01*
X104689661Y-83622547D01*
X104620191Y-83630016D01*
X104575140Y-83610405D01*
X104574872Y-83610897D01*
X104569374Y-83607894D01*
X104567895Y-83607251D01*
X104567086Y-83606645D01*
X104432379Y-83556403D01*
X104432372Y-83556401D01*
X104372844Y-83550000D01*
X104050000Y-83550000D01*
X104050000Y-84434134D01*
X104047617Y-84458326D01*
X104044501Y-84473989D01*
X104044500Y-84473996D01*
X104044500Y-84514170D01*
X104030255Y-84499925D01*
X103944745Y-84450556D01*
X103849370Y-84425000D01*
X103750630Y-84425000D01*
X103655255Y-84450556D01*
X103569745Y-84499925D01*
X103550000Y-84519670D01*
X103550000Y-83550000D01*
X103227155Y-83550000D01*
X103167627Y-83556401D01*
X103167620Y-83556403D01*
X103032913Y-83606645D01*
X103032906Y-83606649D01*
X102917812Y-83692809D01*
X102917809Y-83692812D01*
X102831649Y-83807906D01*
X102831645Y-83807913D01*
X102781403Y-83942620D01*
X102781401Y-83942627D01*
X102775000Y-84002155D01*
X102775000Y-84550000D01*
X103519670Y-84550000D01*
X103499925Y-84569745D01*
X103450556Y-84655255D01*
X103425000Y-84750630D01*
X103425000Y-84849370D01*
X103450556Y-84944745D01*
X103499925Y-85030255D01*
X103519670Y-85050000D01*
X102775000Y-85050000D01*
X102775000Y-85597844D01*
X100500500Y-85597844D01*
X100500500Y-78900001D01*
X101824500Y-78900001D01*
X101824501Y-78900019D01*
X101835000Y-79002796D01*
X101835001Y-79002799D01*
X101890185Y-79169331D01*
X101890187Y-79169336D01*
X101920288Y-79218137D01*
X101982288Y-79318656D01*
X102106344Y-79442712D01*
X102255666Y-79534814D01*
X102422203Y-79589999D01*
X102524991Y-79600500D01*
X103875008Y-79600499D01*
X103977797Y-79589999D01*
X104144334Y-79534814D01*
X104293656Y-79442712D01*
X104417712Y-79318656D01*
X104423420Y-79309402D01*
X104475368Y-79262678D01*
X104528958Y-79250500D01*
X106823126Y-79250500D01*
X106890165Y-79270185D01*
X106910807Y-79286819D01*
X106921955Y-79297967D01*
X106921959Y-79297970D01*
X107066294Y-79386998D01*
X107066297Y-79386999D01*
X107066303Y-79387003D01*
X107227292Y-79440349D01*
X107326655Y-79450500D01*
X108173344Y-79450499D01*
X108173352Y-79450498D01*
X108173355Y-79450498D01*
X108249575Y-79442712D01*
X108272708Y-79440349D01*
X108433697Y-79387003D01*
X108578044Y-79297968D01*
X108697968Y-79178044D01*
X108787003Y-79033697D01*
X108840349Y-78872708D01*
X108850500Y-78773345D01*
X108850499Y-78226656D01*
X108845650Y-78179191D01*
X108840349Y-78127292D01*
X108840348Y-78127289D01*
X108809976Y-78035633D01*
X108787003Y-77966303D01*
X108786999Y-77966297D01*
X108786998Y-77966294D01*
X108697970Y-77821959D01*
X108697967Y-77821955D01*
X108578044Y-77702032D01*
X108578040Y-77702029D01*
X108433705Y-77613001D01*
X108433699Y-77612998D01*
X108433697Y-77612997D01*
X108418173Y-77607853D01*
X108272709Y-77559651D01*
X108173346Y-77549500D01*
X107326662Y-77549500D01*
X107326644Y-77549501D01*
X107227292Y-77559650D01*
X107227289Y-77559651D01*
X107066305Y-77612996D01*
X107066294Y-77613001D01*
X106921959Y-77702029D01*
X106921955Y-77702032D01*
X106910807Y-77713181D01*
X106849484Y-77746666D01*
X106823126Y-77749500D01*
X104528958Y-77749500D01*
X104461919Y-77729815D01*
X104423420Y-77690598D01*
X104417712Y-77681344D01*
X104293656Y-77557288D01*
X104293652Y-77557285D01*
X104229456Y-77517688D01*
X104182731Y-77465740D01*
X104171510Y-77396777D01*
X104199353Y-77332695D01*
X104206850Y-77324491D01*
X104314414Y-77216928D01*
X104416232Y-77076788D01*
X104494873Y-76922445D01*
X104548402Y-76757701D01*
X104575500Y-76586611D01*
X104575500Y-76413389D01*
X104548402Y-76242299D01*
X104506329Y-76112815D01*
X104504335Y-76042978D01*
X104540415Y-75983145D01*
X104603116Y-75952316D01*
X104624261Y-75950500D01*
X106823126Y-75950500D01*
X106890165Y-75970185D01*
X106910807Y-75986819D01*
X106921955Y-75997967D01*
X106921959Y-75997970D01*
X107066294Y-76086998D01*
X107066297Y-76086999D01*
X107066303Y-76087003D01*
X107227292Y-76140349D01*
X107326655Y-76150500D01*
X108173344Y-76150499D01*
X108173352Y-76150498D01*
X108173355Y-76150498D01*
X108227760Y-76144940D01*
X108272708Y-76140349D01*
X108433697Y-76087003D01*
X108561738Y-76008025D01*
X108629128Y-75989585D01*
X108695792Y-76010507D01*
X108714515Y-76025883D01*
X109213181Y-76524548D01*
X109246666Y-76585871D01*
X109249500Y-76612229D01*
X109249500Y-77073918D01*
X109249500Y-77073920D01*
X109249499Y-77073920D01*
X109278340Y-77218907D01*
X109278343Y-77218917D01*
X109334913Y-77355490D01*
X109334914Y-77355491D01*
X109334916Y-77355495D01*
X109348282Y-77375498D01*
X109348283Y-77375501D01*
X109417046Y-77478414D01*
X109417052Y-77478421D01*
X110057049Y-78118416D01*
X110161584Y-78222951D01*
X110161587Y-78222953D01*
X110161588Y-78222954D01*
X110284494Y-78305077D01*
X110284496Y-78305078D01*
X110284505Y-78305084D01*
X110306195Y-78314068D01*
X110306196Y-78314069D01*
X110306197Y-78314069D01*
X110421088Y-78361659D01*
X110537241Y-78384763D01*
X110556468Y-78388587D01*
X110566081Y-78390500D01*
X110566082Y-78390500D01*
X110566083Y-78390500D01*
X110713918Y-78390500D01*
X111031491Y-78390500D01*
X111098530Y-78410185D01*
X111134591Y-78445607D01*
X111169179Y-78497372D01*
X111183443Y-78518720D01*
X111326281Y-78661558D01*
X111494237Y-78773782D01*
X111494241Y-78773784D01*
X111494244Y-78773786D01*
X111680873Y-78851091D01*
X111844288Y-78883596D01*
X111878992Y-78890499D01*
X111878996Y-78890500D01*
X111878997Y-78890500D01*
X112081004Y-78890500D01*
X112081005Y-78890499D01*
X112279127Y-78851091D01*
X112353047Y-78820471D01*
X112422515Y-78813002D01*
X112484995Y-78844276D01*
X112520648Y-78904365D01*
X112524500Y-78935032D01*
X112524500Y-82338331D01*
X112504815Y-82405370D01*
X112465600Y-82443868D01*
X112443843Y-82457288D01*
X112319789Y-82581342D01*
X112227687Y-82730663D01*
X112227685Y-82730668D01*
X112215688Y-82766873D01*
X112172501Y-82897203D01*
X112172501Y-82897204D01*
X112172500Y-82897204D01*
X112162000Y-82999983D01*
X112162000Y-84000001D01*
X112162001Y-84000019D01*
X112172500Y-84102796D01*
X112172501Y-84102799D01*
X112227685Y-84269331D01*
X112227687Y-84269336D01*
X112250033Y-84305565D01*
X112319788Y-84418656D01*
X112443844Y-84542712D01*
X112593166Y-84634814D01*
X112759703Y-84689999D01*
X112862491Y-84700500D01*
X113487508Y-84700499D01*
X113487516Y-84700498D01*
X113487519Y-84700498D01*
X113543802Y-84694748D01*
X113590297Y-84689999D01*
X113756834Y-84634814D01*
X113906156Y-84542712D01*
X113999819Y-84449049D01*
X114061142Y-84415564D01*
X114130834Y-84420548D01*
X114175181Y-84449049D01*
X114268844Y-84542712D01*
X114418166Y-84634814D01*
X114584703Y-84689999D01*
X114687491Y-84700500D01*
X115312508Y-84700499D01*
X115312516Y-84700498D01*
X115312519Y-84700498D01*
X115368802Y-84694748D01*
X115415297Y-84689999D01*
X115581834Y-84634814D01*
X115731156Y-84542712D01*
X115855212Y-84418656D01*
X115947314Y-84269334D01*
X115984153Y-84158159D01*
X116023924Y-84100717D01*
X116088440Y-84073893D01*
X116157216Y-84086208D01*
X116189538Y-84109483D01*
X116244724Y-84164669D01*
X116292200Y-84212145D01*
X116335332Y-84255277D01*
X116441866Y-84326461D01*
X116441875Y-84326466D01*
X116457534Y-84332952D01*
X116560256Y-84375501D01*
X116560260Y-84375501D01*
X116560261Y-84375502D01*
X116685928Y-84400500D01*
X116685931Y-84400500D01*
X119502720Y-84400500D01*
X119569759Y-84420185D01*
X119590401Y-84436819D01*
X119908853Y-84755272D01*
X119908860Y-84755278D01*
X119996848Y-84814069D01*
X119996849Y-84814069D01*
X120015401Y-84826465D01*
X120133784Y-84875501D01*
X120133788Y-84875501D01*
X120133789Y-84875502D01*
X120259456Y-84900500D01*
X120259459Y-84900500D01*
X120387597Y-84900500D01*
X127179192Y-84900500D01*
X127246231Y-84920185D01*
X127266873Y-84936819D01*
X127313181Y-84983127D01*
X127346666Y-85044450D01*
X127349500Y-85070808D01*
X127349500Y-86483308D01*
X127364376Y-86558094D01*
X127365565Y-86564068D01*
X127365565Y-86564070D01*
X127374497Y-86608976D01*
X127374499Y-86608983D01*
X127393525Y-86654917D01*
X127423535Y-86727366D01*
X127494723Y-86833908D01*
X127494726Y-86833912D01*
X128666087Y-88005273D01*
X128666090Y-88005275D01*
X128666092Y-88005277D01*
X128752753Y-88063181D01*
X128763707Y-88070500D01*
X128763706Y-88070501D01*
X128763711Y-88070503D01*
X128772634Y-88076465D01*
X128891017Y-88125501D01*
X128891021Y-88125501D01*
X128891022Y-88125502D01*
X129016689Y-88150500D01*
X129016692Y-88150500D01*
X129348767Y-88150500D01*
X129415806Y-88170185D01*
X129461561Y-88222989D01*
X129466472Y-88235494D01*
X129477684Y-88269328D01*
X129477687Y-88269336D01*
X129506658Y-88316305D01*
X129569788Y-88418656D01*
X129693844Y-88542712D01*
X129843166Y-88634814D01*
X130009703Y-88689999D01*
X130112491Y-88700500D01*
X130737508Y-88700499D01*
X130737516Y-88700498D01*
X130737519Y-88700498D01*
X130800973Y-88694016D01*
X130840297Y-88689999D01*
X131006834Y-88634814D01*
X131156156Y-88542712D01*
X131249819Y-88449049D01*
X131311142Y-88415564D01*
X131380834Y-88420548D01*
X131425181Y-88449049D01*
X131518844Y-88542712D01*
X131668166Y-88634814D01*
X131834703Y-88689999D01*
X131834704Y-88689999D01*
X131835670Y-88690319D01*
X131893115Y-88730092D01*
X131919938Y-88794607D01*
X131907623Y-88863383D01*
X131884347Y-88895706D01*
X131016871Y-89763181D01*
X130955548Y-89796666D01*
X130929190Y-89799500D01*
X130462498Y-89799500D01*
X130462480Y-89799501D01*
X130359703Y-89810000D01*
X130359700Y-89810001D01*
X130193168Y-89865185D01*
X130193163Y-89865187D01*
X130043842Y-89957289D01*
X129919789Y-90081342D01*
X129827687Y-90230663D01*
X129827685Y-90230668D01*
X129813754Y-90272710D01*
X129772501Y-90397203D01*
X129772501Y-90397204D01*
X129772500Y-90397204D01*
X129762000Y-90499983D01*
X129762000Y-91100001D01*
X129762001Y-91100019D01*
X129772500Y-91202796D01*
X129772501Y-91202799D01*
X129827685Y-91369331D01*
X129827687Y-91369336D01*
X129862569Y-91425888D01*
X129919788Y-91518656D01*
X130043844Y-91642712D01*
X130047128Y-91644737D01*
X130047153Y-91644753D01*
X130048945Y-91646746D01*
X130049511Y-91647193D01*
X130049434Y-91647289D01*
X130093879Y-91696699D01*
X130105103Y-91765661D01*
X130077261Y-91829744D01*
X130047165Y-91855826D01*
X130044160Y-91857679D01*
X130044155Y-91857683D01*
X129920184Y-91981654D01*
X129828143Y-92130875D01*
X129828141Y-92130880D01*
X129772994Y-92297302D01*
X129772993Y-92297309D01*
X129762500Y-92400013D01*
X129762500Y-92450000D01*
X132212499Y-92450000D01*
X132212499Y-92400028D01*
X132212498Y-92400013D01*
X132202005Y-92297302D01*
X132146858Y-92130880D01*
X132146856Y-92130875D01*
X132054815Y-91981654D01*
X131930844Y-91857683D01*
X131930841Y-91857681D01*
X131927839Y-91855829D01*
X131926213Y-91854021D01*
X131925177Y-91853202D01*
X131925317Y-91853024D01*
X131881117Y-91803880D01*
X131869897Y-91734917D01*
X131897743Y-91670836D01*
X131927844Y-91644754D01*
X131931156Y-91642712D01*
X132055212Y-91518656D01*
X132147314Y-91369334D01*
X132202499Y-91202797D01*
X132213000Y-91100009D01*
X132212999Y-90670518D01*
X132232683Y-90603480D01*
X132285487Y-90557725D01*
X132354646Y-90547781D01*
X132418202Y-90576806D01*
X132440101Y-90601629D01*
X132482221Y-90664667D01*
X132482227Y-90664674D01*
X132707828Y-90890275D01*
X132707831Y-90890277D01*
X132777556Y-90936865D01*
X132814373Y-90961465D01*
X132932756Y-91010501D01*
X132932760Y-91010501D01*
X132932761Y-91010502D01*
X133058428Y-91035500D01*
X133058431Y-91035500D01*
X133417024Y-91035500D01*
X133484063Y-91055185D01*
X133529818Y-91107989D01*
X133539762Y-91177147D01*
X133523757Y-91222617D01*
X133511234Y-91243792D01*
X133510753Y-91244607D01*
X133464902Y-91402426D01*
X133464901Y-91402432D01*
X133462000Y-91439298D01*
X133462000Y-91870701D01*
X133464901Y-91907567D01*
X133464902Y-91907573D01*
X133510754Y-92065393D01*
X133510755Y-92065396D01*
X133594417Y-92206862D01*
X133594423Y-92206870D01*
X133710629Y-92323076D01*
X133710633Y-92323079D01*
X133710635Y-92323081D01*
X133852102Y-92406744D01*
X133855052Y-92407601D01*
X134009926Y-92452597D01*
X134009929Y-92452597D01*
X134009931Y-92452598D01*
X134046806Y-92455500D01*
X134063000Y-92455500D01*
X134130039Y-92475185D01*
X134175794Y-92527989D01*
X134187000Y-92579500D01*
X134187000Y-94664069D01*
X134201573Y-94737331D01*
X134201574Y-94737333D01*
X134201574Y-94737335D01*
X134211997Y-94789737D01*
X134211999Y-94789744D01*
X134261034Y-94908126D01*
X134316102Y-94990542D01*
X134336980Y-95057219D01*
X134337000Y-95059432D01*
X134337000Y-97225500D01*
X134317315Y-97292539D01*
X134264511Y-97338294D01*
X134213000Y-97349500D01*
X133226233Y-97349500D01*
X133159194Y-97329815D01*
X133113439Y-97277011D01*
X133108528Y-97264506D01*
X133103555Y-97249500D01*
X133097314Y-97230666D01*
X133005212Y-97081344D01*
X132881156Y-96957288D01*
X132788388Y-96900069D01*
X132731836Y-96865187D01*
X132731831Y-96865185D01*
X132698140Y-96854021D01*
X132565297Y-96810001D01*
X132565295Y-96810000D01*
X132462510Y-96799500D01*
X131837498Y-96799500D01*
X131837480Y-96799501D01*
X131734703Y-96810000D01*
X131734700Y-96810001D01*
X131568168Y-96865185D01*
X131568163Y-96865187D01*
X131418842Y-96957289D01*
X131325181Y-97050951D01*
X131263858Y-97084436D01*
X131194166Y-97079452D01*
X131149819Y-97050951D01*
X131056157Y-96957289D01*
X131056156Y-96957288D01*
X130963388Y-96900069D01*
X130906836Y-96865187D01*
X130906831Y-96865185D01*
X130873140Y-96854021D01*
X130740297Y-96810001D01*
X130740295Y-96810000D01*
X130637510Y-96799500D01*
X130012498Y-96799500D01*
X130012480Y-96799501D01*
X129909703Y-96810000D01*
X129909700Y-96810001D01*
X129743168Y-96865185D01*
X129743163Y-96865187D01*
X129593842Y-96957289D01*
X129469789Y-97081342D01*
X129467881Y-97084436D01*
X129403739Y-97188428D01*
X129402401Y-97190597D01*
X129350453Y-97237321D01*
X129296862Y-97249500D01*
X128431058Y-97249500D01*
X128364019Y-97229815D01*
X128325519Y-97190597D01*
X128242712Y-97056344D01*
X128118656Y-96932288D01*
X128001761Y-96860187D01*
X127969336Y-96840187D01*
X127969331Y-96840185D01*
X127967862Y-96839698D01*
X127802797Y-96785001D01*
X127802795Y-96785000D01*
X127700010Y-96774500D01*
X127099998Y-96774500D01*
X127099980Y-96774501D01*
X126997203Y-96785000D01*
X126997200Y-96785001D01*
X126830668Y-96840185D01*
X126830663Y-96840187D01*
X126681342Y-96932289D01*
X126557285Y-97056346D01*
X126555537Y-97059182D01*
X126553829Y-97060717D01*
X126552807Y-97062011D01*
X126552585Y-97061836D01*
X126503589Y-97105905D01*
X126434626Y-97117126D01*
X126370544Y-97089282D01*
X126344463Y-97059182D01*
X126342714Y-97056346D01*
X126218657Y-96932289D01*
X126218656Y-96932288D01*
X126101761Y-96860187D01*
X126069336Y-96840187D01*
X126069331Y-96840185D01*
X126067862Y-96839698D01*
X125902797Y-96785001D01*
X125902795Y-96785000D01*
X125800010Y-96774500D01*
X125199998Y-96774500D01*
X125199980Y-96774501D01*
X125097203Y-96785000D01*
X125097200Y-96785001D01*
X124952922Y-96832811D01*
X124883094Y-96835213D01*
X124823052Y-96799481D01*
X124791859Y-96736961D01*
X124790698Y-96728988D01*
X124772869Y-96570750D01*
X124772868Y-96570745D01*
X124754641Y-96518656D01*
X124713289Y-96400478D01*
X124706157Y-96389128D01*
X124617315Y-96247737D01*
X124489762Y-96120184D01*
X124337023Y-96024211D01*
X124166754Y-95964631D01*
X124166749Y-95964630D01*
X123987504Y-95944435D01*
X123987496Y-95944435D01*
X123808250Y-95964630D01*
X123808245Y-95964631D01*
X123637976Y-96024211D01*
X123485237Y-96120184D01*
X123357684Y-96247737D01*
X123261711Y-96400476D01*
X123202131Y-96570745D01*
X123202130Y-96570750D01*
X123181935Y-96749996D01*
X123181935Y-96750003D01*
X123202130Y-96929249D01*
X123202131Y-96929254D01*
X123230042Y-97009017D01*
X123237000Y-97049972D01*
X123237000Y-97573918D01*
X123237000Y-97573920D01*
X123236999Y-97573920D01*
X123265840Y-97718907D01*
X123265843Y-97718917D01*
X123320171Y-97850075D01*
X123322416Y-97855495D01*
X123326476Y-97861571D01*
X123352486Y-97900499D01*
X123404549Y-97978418D01*
X123404552Y-97978421D01*
X124009084Y-98582952D01*
X124009086Y-98582954D01*
X124029308Y-98596465D01*
X124072765Y-98625501D01*
X124132005Y-98665084D01*
X124132007Y-98665085D01*
X124132011Y-98665087D01*
X124259060Y-98717712D01*
X124268587Y-98721658D01*
X124268591Y-98721658D01*
X124268592Y-98721659D01*
X124413579Y-98750500D01*
X124413582Y-98750500D01*
X124413583Y-98750500D01*
X124468942Y-98750500D01*
X124535981Y-98770185D01*
X124574479Y-98809401D01*
X124657288Y-98943656D01*
X124781344Y-99067712D01*
X124930666Y-99159814D01*
X125097203Y-99214999D01*
X125199991Y-99225500D01*
X125800008Y-99225499D01*
X125800016Y-99225498D01*
X125800019Y-99225498D01*
X125856302Y-99219748D01*
X125902797Y-99214999D01*
X126069334Y-99159814D01*
X126218656Y-99067712D01*
X126342712Y-98943656D01*
X126344461Y-98940819D01*
X126346169Y-98939283D01*
X126347193Y-98937989D01*
X126347414Y-98938163D01*
X126396406Y-98894096D01*
X126465368Y-98882872D01*
X126529451Y-98910713D01*
X126555537Y-98940817D01*
X126557288Y-98943656D01*
X126681344Y-99067712D01*
X126830666Y-99159814D01*
X126997203Y-99214999D01*
X127099991Y-99225500D01*
X127700008Y-99225499D01*
X127700016Y-99225498D01*
X127700019Y-99225498D01*
X127756302Y-99219748D01*
X127802797Y-99214999D01*
X127969334Y-99159814D01*
X128118656Y-99067712D01*
X128242712Y-98943656D01*
X128325519Y-98809402D01*
X128377467Y-98762679D01*
X128431058Y-98750500D01*
X129296862Y-98750500D01*
X129363901Y-98770185D01*
X129402399Y-98809401D01*
X129469788Y-98918656D01*
X129593844Y-99042712D01*
X129743166Y-99134814D01*
X129909703Y-99189999D01*
X130012491Y-99200500D01*
X130637508Y-99200499D01*
X130637516Y-99200498D01*
X130637519Y-99200498D01*
X130709098Y-99193186D01*
X130740297Y-99189999D01*
X130906834Y-99134814D01*
X131056156Y-99042712D01*
X131149819Y-98949049D01*
X131211142Y-98915564D01*
X131280834Y-98920548D01*
X131325181Y-98949049D01*
X131418844Y-99042712D01*
X131568166Y-99134814D01*
X131734703Y-99189999D01*
X131837491Y-99200500D01*
X132462508Y-99200499D01*
X132462516Y-99200498D01*
X132462519Y-99200498D01*
X132534098Y-99193186D01*
X132565297Y-99189999D01*
X132731834Y-99134814D01*
X132881156Y-99042712D01*
X133005212Y-98918656D01*
X133097314Y-98769334D01*
X133106596Y-98741324D01*
X133108528Y-98735494D01*
X133148301Y-98678050D01*
X133212817Y-98651228D01*
X133226233Y-98650500D01*
X134801571Y-98650500D01*
X134886115Y-98633682D01*
X134927244Y-98625501D01*
X134940047Y-98620197D01*
X135009513Y-98612728D01*
X135034947Y-98620195D01*
X135047756Y-98625501D01*
X135047760Y-98625501D01*
X135047761Y-98625502D01*
X135173428Y-98650500D01*
X135173431Y-98650500D01*
X135521355Y-98650500D01*
X135588394Y-98670185D01*
X135634149Y-98722989D01*
X135639061Y-98735494D01*
X135665186Y-98814334D01*
X135757288Y-98963656D01*
X135881344Y-99087712D01*
X136030666Y-99179814D01*
X136197203Y-99234999D01*
X136299991Y-99245500D01*
X136900008Y-99245499D01*
X136900016Y-99245498D01*
X136900019Y-99245498D01*
X136956302Y-99239748D01*
X137002797Y-99234999D01*
X137169334Y-99179814D01*
X137318656Y-99087712D01*
X137442712Y-98963656D01*
X137444461Y-98960819D01*
X137446169Y-98959283D01*
X137447193Y-98957989D01*
X137447414Y-98958163D01*
X137496406Y-98914096D01*
X137565368Y-98902872D01*
X137629451Y-98930713D01*
X137655537Y-98960817D01*
X137657288Y-98963656D01*
X137781344Y-99087712D01*
X137930666Y-99179814D01*
X138097203Y-99234999D01*
X138199991Y-99245500D01*
X138800008Y-99245499D01*
X138800016Y-99245498D01*
X138800019Y-99245498D01*
X138856302Y-99239748D01*
X138902797Y-99234999D01*
X139069334Y-99179814D01*
X139218656Y-99087712D01*
X139342712Y-98963656D01*
X139434814Y-98814334D01*
X139454311Y-98755493D01*
X139494084Y-98698051D01*
X139558600Y-98671228D01*
X139572017Y-98670500D01*
X139781571Y-98670500D01*
X139882113Y-98650500D01*
X139907244Y-98645501D01*
X140025627Y-98596465D01*
X140047524Y-98581834D01*
X140132169Y-98525277D01*
X140492777Y-98164669D01*
X140563966Y-98058126D01*
X140596982Y-97978416D01*
X140613000Y-97939746D01*
X140613001Y-97939742D01*
X140615720Y-97926079D01*
X140638000Y-97814071D01*
X140638000Y-95185928D01*
X140613002Y-95060261D01*
X140613001Y-95060260D01*
X140613001Y-95060256D01*
X140563965Y-94941873D01*
X140541417Y-94908127D01*
X140541416Y-94908126D01*
X140492775Y-94835328D01*
X140174319Y-94516872D01*
X140140834Y-94455549D01*
X140138000Y-94429191D01*
X140138000Y-93423428D01*
X140113002Y-93297761D01*
X140113001Y-93297760D01*
X140113001Y-93297756D01*
X140063965Y-93179373D01*
X140011264Y-93100500D01*
X139992776Y-93072830D01*
X139587127Y-92667181D01*
X139553642Y-92605858D01*
X139558626Y-92536166D01*
X139600498Y-92480233D01*
X139665962Y-92455816D01*
X139674808Y-92455500D01*
X140778186Y-92455500D01*
X140778194Y-92455500D01*
X140815069Y-92452598D01*
X140815071Y-92452597D01*
X140815073Y-92452597D01*
X140856691Y-92440505D01*
X140972898Y-92406744D01*
X141114365Y-92323081D01*
X141230581Y-92206865D01*
X141314244Y-92065398D01*
X141360098Y-91907569D01*
X141363000Y-91870694D01*
X141363000Y-91791402D01*
X141365383Y-91767209D01*
X141373000Y-91728919D01*
X141373000Y-91581080D01*
X141367825Y-91555068D01*
X141365382Y-91542788D01*
X141363000Y-91518597D01*
X141363000Y-91439313D01*
X141362999Y-91439298D01*
X141360497Y-91407508D01*
X141360098Y-91402431D01*
X141350483Y-91369336D01*
X141317003Y-91254095D01*
X141317202Y-91184225D01*
X141355144Y-91125555D01*
X141418783Y-91096712D01*
X141436079Y-91095500D01*
X142495270Y-91095500D01*
X142562309Y-91115185D01*
X142582951Y-91131819D01*
X142643844Y-91192712D01*
X142793166Y-91284814D01*
X142959703Y-91339999D01*
X143062491Y-91350500D01*
X144112508Y-91350499D01*
X144112516Y-91350498D01*
X144112519Y-91350498D01*
X144212899Y-91340244D01*
X144281591Y-91353014D01*
X144332476Y-91400895D01*
X144349500Y-91463602D01*
X144349500Y-96575637D01*
X144329815Y-96642676D01*
X144313181Y-96663318D01*
X144050540Y-96925958D01*
X144050534Y-96925965D01*
X143951988Y-97073451D01*
X143884105Y-97237333D01*
X143884103Y-97237341D01*
X143849500Y-97411303D01*
X143849500Y-97588696D01*
X143884103Y-97762658D01*
X143884105Y-97762666D01*
X143951988Y-97926548D01*
X144050534Y-98074034D01*
X144050540Y-98074041D01*
X144175958Y-98199459D01*
X144175965Y-98199465D01*
X144323451Y-98298011D01*
X144323452Y-98298011D01*
X144323453Y-98298012D01*
X144487334Y-98365895D01*
X144661303Y-98400499D01*
X144661307Y-98400500D01*
X144661308Y-98400500D01*
X144838693Y-98400500D01*
X144838694Y-98400499D01*
X145012666Y-98365895D01*
X145176547Y-98298012D01*
X145324036Y-98199464D01*
X145949464Y-97574035D01*
X145972685Y-97539283D01*
X146048013Y-97426547D01*
X146074461Y-97362696D01*
X146115895Y-97262666D01*
X146150500Y-97088692D01*
X146150500Y-96911308D01*
X146150500Y-90911309D01*
X146150500Y-90174361D01*
X146170185Y-90107322D01*
X146186816Y-90086682D01*
X146199463Y-90074036D01*
X146298012Y-89926547D01*
X146365894Y-89762666D01*
X146384951Y-89666862D01*
X146400500Y-89588694D01*
X146400500Y-89411306D01*
X146400499Y-89411304D01*
X146395089Y-89384106D01*
X146365894Y-89237334D01*
X146298012Y-89073454D01*
X146298010Y-89073451D01*
X146298008Y-89073447D01*
X146199463Y-88925965D01*
X146199460Y-88925961D01*
X146074038Y-88800539D01*
X146074034Y-88800536D01*
X145926552Y-88701991D01*
X145926542Y-88701986D01*
X145762666Y-88634106D01*
X145762658Y-88634104D01*
X145588694Y-88599500D01*
X145588691Y-88599500D01*
X145411308Y-88599500D01*
X145411306Y-88599500D01*
X145237339Y-88634104D01*
X145237333Y-88634106D01*
X145073455Y-88701986D01*
X145073448Y-88701990D01*
X145002827Y-88749178D01*
X144936150Y-88770055D01*
X144868770Y-88751570D01*
X144846256Y-88733756D01*
X144812500Y-88700000D01*
X143461500Y-88700000D01*
X143394461Y-88680315D01*
X143348706Y-88627511D01*
X143337500Y-88576000D01*
X143337500Y-88324000D01*
X143357185Y-88256961D01*
X143409989Y-88211206D01*
X143461500Y-88200000D01*
X144812499Y-88200000D01*
X144812499Y-88150028D01*
X144812498Y-88150013D01*
X144802005Y-88047302D01*
X144746858Y-87880880D01*
X144746856Y-87880875D01*
X144654815Y-87731654D01*
X144530845Y-87607684D01*
X144381624Y-87515643D01*
X144381619Y-87515641D01*
X144215197Y-87460494D01*
X144215190Y-87460493D01*
X144112486Y-87450000D01*
X143910729Y-87450000D01*
X143843690Y-87430315D01*
X143797935Y-87377511D01*
X143787991Y-87308353D01*
X143817016Y-87244797D01*
X143823034Y-87238333D01*
X144582952Y-86478416D01*
X144597071Y-86457285D01*
X144639017Y-86394507D01*
X144639018Y-86394505D01*
X144665084Y-86355495D01*
X144721658Y-86218913D01*
X144740239Y-86125501D01*
X144750500Y-86073920D01*
X144750500Y-83612228D01*
X144770185Y-83545189D01*
X144786814Y-83524551D01*
X145674818Y-82636547D01*
X145736141Y-82603063D01*
X145805833Y-82608047D01*
X145850180Y-82636548D01*
X145906344Y-82692712D01*
X145952364Y-82721097D01*
X145970543Y-82732310D01*
X146017268Y-82784258D01*
X146028489Y-82853221D01*
X146000646Y-82917303D01*
X145993128Y-82925530D01*
X145885585Y-83033073D01*
X145783768Y-83173211D01*
X145705128Y-83327552D01*
X145651597Y-83492302D01*
X145624500Y-83663389D01*
X145624500Y-83836610D01*
X145650719Y-84002155D01*
X145651598Y-84007701D01*
X145705127Y-84172445D01*
X145783768Y-84326788D01*
X145885586Y-84466928D01*
X146008072Y-84589414D01*
X146148212Y-84691232D01*
X146302555Y-84769873D01*
X146467299Y-84823402D01*
X146638389Y-84850500D01*
X146638390Y-84850500D01*
X147361610Y-84850500D01*
X147361611Y-84850500D01*
X147532701Y-84823402D01*
X147697445Y-84769873D01*
X147851788Y-84691232D01*
X147991928Y-84589414D01*
X148055964Y-84525376D01*
X148117285Y-84491892D01*
X148119310Y-84491470D01*
X148218913Y-84471658D01*
X148346869Y-84418657D01*
X148355488Y-84415087D01*
X148355488Y-84415086D01*
X148355495Y-84415084D01*
X148414735Y-84375501D01*
X148478416Y-84332952D01*
X149082952Y-83728416D01*
X149160272Y-83612696D01*
X149165084Y-83605495D01*
X149221658Y-83468913D01*
X149242827Y-83362492D01*
X149250500Y-83323920D01*
X149250500Y-80426079D01*
X149221659Y-80281092D01*
X149221658Y-80281091D01*
X149221658Y-80281087D01*
X149208783Y-80250003D01*
X149165087Y-80144511D01*
X149165080Y-80144498D01*
X149082952Y-80021585D01*
X149047061Y-79985694D01*
X148978416Y-79917049D01*
X148809104Y-79747737D01*
X148228421Y-79167052D01*
X148228414Y-79167046D01*
X148154729Y-79117812D01*
X148154729Y-79117813D01*
X148105491Y-79084913D01*
X147968917Y-79028343D01*
X147968907Y-79028340D01*
X147823920Y-78999500D01*
X147823918Y-78999500D01*
X144426082Y-78999500D01*
X144426076Y-78999500D01*
X144397242Y-79005234D01*
X144397243Y-79005235D01*
X144281093Y-79028339D01*
X144281089Y-79028340D01*
X144224297Y-79051865D01*
X144144503Y-79084916D01*
X144095269Y-79117813D01*
X144021588Y-79167044D01*
X144021580Y-79167050D01*
X142167048Y-81021583D01*
X142147244Y-81051222D01*
X142127572Y-81080666D01*
X142106244Y-81112585D01*
X142084916Y-81144504D01*
X142084912Y-81144511D01*
X142028343Y-81281082D01*
X142028340Y-81281092D01*
X141999500Y-81426079D01*
X141999500Y-84637770D01*
X141979815Y-84704809D01*
X141963181Y-84725451D01*
X141225451Y-85463181D01*
X141164128Y-85496666D01*
X141137770Y-85499500D01*
X137676080Y-85499500D01*
X137531092Y-85528340D01*
X137531082Y-85528343D01*
X137394511Y-85584912D01*
X137394496Y-85584920D01*
X137349204Y-85615185D01*
X137349201Y-85615187D01*
X137271589Y-85667043D01*
X137271584Y-85667047D01*
X136667052Y-86271578D01*
X136667049Y-86271581D01*
X136626043Y-86332951D01*
X136626044Y-86332952D01*
X136584916Y-86394505D01*
X136584914Y-86394506D01*
X136528343Y-86531082D01*
X136528340Y-86531092D01*
X136499500Y-86676079D01*
X136499500Y-86676082D01*
X136499500Y-91323918D01*
X136499500Y-91323920D01*
X136499499Y-91323920D01*
X136528340Y-91468907D01*
X136528343Y-91468917D01*
X136584913Y-91605490D01*
X136584918Y-91605499D01*
X136592138Y-91616304D01*
X136592140Y-91616306D01*
X136667051Y-91728420D01*
X136667052Y-91728421D01*
X136989467Y-92050834D01*
X137072048Y-92133415D01*
X137072049Y-92133416D01*
X137127475Y-92188842D01*
X137176585Y-92237952D01*
X137299498Y-92320080D01*
X137299511Y-92320087D01*
X137441715Y-92378989D01*
X137441357Y-92379853D01*
X137487655Y-92407601D01*
X138417873Y-93337819D01*
X138451358Y-93399142D01*
X138446374Y-93468834D01*
X138404502Y-93524767D01*
X138339038Y-93549184D01*
X138330193Y-93549500D01*
X138087499Y-93549500D01*
X138087480Y-93549501D01*
X137984703Y-93560000D01*
X137984700Y-93560001D01*
X137818168Y-93615185D01*
X137818163Y-93615187D01*
X137668842Y-93707289D01*
X137575181Y-93800951D01*
X137513858Y-93834436D01*
X137444166Y-93829452D01*
X137399819Y-93800951D01*
X137306157Y-93707289D01*
X137306156Y-93707288D01*
X137156834Y-93615186D01*
X136990297Y-93560001D01*
X136990295Y-93560000D01*
X136887510Y-93549500D01*
X136262498Y-93549500D01*
X136262480Y-93549501D01*
X136159703Y-93560000D01*
X136159700Y-93560001D01*
X135993168Y-93615185D01*
X135993163Y-93615187D01*
X135843842Y-93707289D01*
X135719789Y-93831342D01*
X135717539Y-93834991D01*
X135715341Y-93836967D01*
X135715307Y-93837011D01*
X135715299Y-93837005D01*
X135665591Y-93881715D01*
X135596628Y-93892938D01*
X135532546Y-93865094D01*
X135493690Y-93807025D01*
X135488000Y-93769894D01*
X135488000Y-92579500D01*
X135507685Y-92512461D01*
X135560489Y-92466706D01*
X135612000Y-92455500D01*
X135628186Y-92455500D01*
X135628194Y-92455500D01*
X135665069Y-92452598D01*
X135665071Y-92452597D01*
X135665073Y-92452597D01*
X135706691Y-92440505D01*
X135822898Y-92406744D01*
X135964365Y-92323081D01*
X136080581Y-92206865D01*
X136164244Y-92065398D01*
X136210098Y-91907569D01*
X136213000Y-91870694D01*
X136213000Y-91439306D01*
X136210098Y-91402431D01*
X136200482Y-91369334D01*
X136164245Y-91244606D01*
X136164244Y-91244603D01*
X136164244Y-91244602D01*
X136080581Y-91103135D01*
X136080578Y-91103132D01*
X136075798Y-91096969D01*
X136078250Y-91095066D01*
X136051655Y-91046421D01*
X136056604Y-90976726D01*
X136077440Y-90944304D01*
X136075798Y-90943031D01*
X136080575Y-90936870D01*
X136080581Y-90936865D01*
X136164244Y-90795398D01*
X136210098Y-90637569D01*
X136213000Y-90600694D01*
X136213000Y-90169306D01*
X136210098Y-90132431D01*
X136164244Y-89974602D01*
X136080581Y-89833135D01*
X136080578Y-89833132D01*
X136075798Y-89826969D01*
X136078250Y-89825066D01*
X136051655Y-89776421D01*
X136056604Y-89706726D01*
X136077440Y-89674304D01*
X136075798Y-89673031D01*
X136080575Y-89666870D01*
X136080581Y-89666865D01*
X136164244Y-89525398D01*
X136210098Y-89367569D01*
X136213000Y-89330694D01*
X136213000Y-88899306D01*
X136210098Y-88862431D01*
X136192550Y-88802032D01*
X136164245Y-88704606D01*
X136164244Y-88704603D01*
X136164244Y-88704602D01*
X136080581Y-88563135D01*
X136080578Y-88563132D01*
X136075798Y-88556969D01*
X136078250Y-88555066D01*
X136051655Y-88506421D01*
X136056604Y-88436726D01*
X136077440Y-88404304D01*
X136075798Y-88403031D01*
X136080575Y-88396870D01*
X136080581Y-88396865D01*
X136164244Y-88255398D01*
X136210098Y-88097569D01*
X136213000Y-88060694D01*
X136213000Y-87629306D01*
X136210098Y-87592431D01*
X136205279Y-87575845D01*
X136171766Y-87460493D01*
X136164244Y-87434602D01*
X136080581Y-87293135D01*
X136080579Y-87293133D01*
X136080576Y-87293129D01*
X135964370Y-87176923D01*
X135964362Y-87176917D01*
X135822896Y-87093255D01*
X135822893Y-87093254D01*
X135665073Y-87047402D01*
X135665067Y-87047401D01*
X135628201Y-87044500D01*
X135628194Y-87044500D01*
X134046806Y-87044500D01*
X134046798Y-87044500D01*
X134009932Y-87047401D01*
X134009926Y-87047402D01*
X133852106Y-87093254D01*
X133852105Y-87093254D01*
X133721932Y-87170237D01*
X133654208Y-87187418D01*
X133587946Y-87165258D01*
X133571136Y-87151190D01*
X133414669Y-86994723D01*
X133308127Y-86923535D01*
X133308126Y-86923534D01*
X133308124Y-86923533D01*
X133306163Y-86922721D01*
X133305292Y-86922019D01*
X133302753Y-86920662D01*
X133303010Y-86920180D01*
X133251763Y-86878876D01*
X133235920Y-86847171D01*
X133197314Y-86730666D01*
X133105212Y-86581344D01*
X132981156Y-86457288D01*
X132981152Y-86457285D01*
X132918932Y-86418907D01*
X132872207Y-86366959D01*
X132860986Y-86297997D01*
X132888829Y-86233915D01*
X132936572Y-86198810D01*
X133017995Y-86165084D01*
X133085193Y-86120184D01*
X133085196Y-86120181D01*
X133085198Y-86120181D01*
X133117239Y-86098772D01*
X133140916Y-86082952D01*
X134487048Y-84736817D01*
X134548371Y-84703333D01*
X134574729Y-84700499D01*
X134975002Y-84700499D01*
X134975008Y-84700499D01*
X135077797Y-84689999D01*
X135244334Y-84634814D01*
X135393656Y-84542712D01*
X135517712Y-84418656D01*
X135609814Y-84269334D01*
X135664999Y-84102797D01*
X135675500Y-84000009D01*
X135675499Y-82999992D01*
X135669763Y-82943844D01*
X135664999Y-82897203D01*
X135664998Y-82897200D01*
X135637222Y-82813378D01*
X135609814Y-82730666D01*
X135517712Y-82581344D01*
X135393656Y-82457288D01*
X135277799Y-82385827D01*
X135244336Y-82365187D01*
X135244331Y-82365185D01*
X135242862Y-82364698D01*
X135077797Y-82310001D01*
X135077795Y-82310000D01*
X134975016Y-82299500D01*
X134793040Y-82299500D01*
X134750103Y-82286892D01*
X134728356Y-82297640D01*
X134706961Y-82299500D01*
X134349998Y-82299500D01*
X134349980Y-82299501D01*
X134247203Y-82310000D01*
X134247200Y-82310001D01*
X134080668Y-82365185D01*
X134080663Y-82365187D01*
X133931342Y-82457289D01*
X133837681Y-82550951D01*
X133776358Y-82584436D01*
X133706666Y-82579452D01*
X133662319Y-82550951D01*
X133568657Y-82457289D01*
X133568656Y-82457288D01*
X133452799Y-82385827D01*
X133419336Y-82365187D01*
X133419331Y-82365185D01*
X133417862Y-82364698D01*
X133252797Y-82310001D01*
X133252795Y-82310000D01*
X133150016Y-82299500D01*
X133150009Y-82299500D01*
X133124500Y-82299500D01*
X133057461Y-82279815D01*
X133011706Y-82227011D01*
X133000500Y-82175500D01*
X133000500Y-78926079D01*
X132971659Y-78781092D01*
X132971658Y-78781091D01*
X132971658Y-78781087D01*
X132959847Y-78752573D01*
X132915087Y-78644511D01*
X132915080Y-78644498D01*
X132832952Y-78521585D01*
X132808739Y-78497372D01*
X132728416Y-78417049D01*
X132478416Y-78167048D01*
X132478415Y-78167047D01*
X132478414Y-78167046D01*
X132404729Y-78117812D01*
X132404729Y-78117813D01*
X132355491Y-78084913D01*
X132218917Y-78028343D01*
X132218907Y-78028340D01*
X132073920Y-77999500D01*
X132073918Y-77999500D01*
X130725880Y-77999500D01*
X130658841Y-77979815D01*
X130613086Y-77927011D01*
X130602352Y-77864694D01*
X130605472Y-77829025D01*
X129926447Y-77150000D01*
X129932661Y-77150000D01*
X130034394Y-77122741D01*
X130125606Y-77070080D01*
X130200080Y-76995606D01*
X130252741Y-76904394D01*
X130280000Y-76802661D01*
X130280000Y-76796447D01*
X130959024Y-77475471D01*
X131010136Y-77402478D01*
X131106264Y-77196331D01*
X131106269Y-77196317D01*
X131165139Y-76976610D01*
X131165141Y-76976599D01*
X131184966Y-76750002D01*
X131184966Y-76749997D01*
X131165141Y-76523400D01*
X131165139Y-76523389D01*
X131106269Y-76303682D01*
X131106264Y-76303668D01*
X131010136Y-76097521D01*
X131010132Y-76097513D01*
X130959025Y-76024526D01*
X130280000Y-76703551D01*
X130280000Y-76697339D01*
X130252741Y-76595606D01*
X130200080Y-76504394D01*
X130125606Y-76429920D01*
X130034394Y-76377259D01*
X129932661Y-76350000D01*
X129926448Y-76350000D01*
X130605472Y-75670974D01*
X130532480Y-75619864D01*
X130474134Y-75592657D01*
X130421695Y-75546484D01*
X130402543Y-75479291D01*
X130422759Y-75412410D01*
X130474134Y-75367893D01*
X130532734Y-75340568D01*
X130719139Y-75210047D01*
X130880047Y-75049139D01*
X131010568Y-74862734D01*
X131106739Y-74656496D01*
X131165635Y-74436692D01*
X131185468Y-74210000D01*
X131165635Y-73983308D01*
X131106739Y-73763504D01*
X131010568Y-73557266D01*
X130880047Y-73370861D01*
X130880045Y-73370858D01*
X130719141Y-73209954D01*
X130532734Y-73079432D01*
X130532728Y-73079429D01*
X130505038Y-73066517D01*
X130474724Y-73052381D01*
X130422285Y-73006210D01*
X130403133Y-72939017D01*
X130423348Y-72872135D01*
X130474725Y-72827618D01*
X130532734Y-72800568D01*
X130719139Y-72670047D01*
X130880047Y-72509139D01*
X130975108Y-72373377D01*
X131029685Y-72329752D01*
X131076683Y-72320500D01*
X131849192Y-72320500D01*
X131916231Y-72340185D01*
X131936873Y-72356819D01*
X134563181Y-74983127D01*
X134596666Y-75044450D01*
X134599500Y-75070808D01*
X134599500Y-80366587D01*
X134579815Y-80433626D01*
X134527011Y-80479381D01*
X134516455Y-80483629D01*
X134400476Y-80524211D01*
X134247737Y-80620184D01*
X134120184Y-80747737D01*
X134024211Y-80900476D01*
X133964631Y-81070745D01*
X133964630Y-81070750D01*
X133944435Y-81249996D01*
X133944435Y-81250003D01*
X133964630Y-81429249D01*
X133964631Y-81429254D01*
X134024211Y-81599523D01*
X134092420Y-81708076D01*
X134120184Y-81752262D01*
X134247738Y-81879816D01*
X134400478Y-81975789D01*
X134469678Y-82000003D01*
X134570745Y-82035368D01*
X134570750Y-82035369D01*
X134720844Y-82052280D01*
X134747366Y-82063424D01*
X134758105Y-82056523D01*
X134779157Y-82052280D01*
X134929249Y-82035369D01*
X134929252Y-82035368D01*
X134929255Y-82035368D01*
X135099522Y-81975789D01*
X135252262Y-81879816D01*
X135379816Y-81752262D01*
X135475789Y-81599522D01*
X135535368Y-81429255D01*
X135536182Y-81422025D01*
X135563245Y-81357611D01*
X135571702Y-81348243D01*
X135755277Y-81164669D01*
X135826465Y-81058127D01*
X135838803Y-81028342D01*
X135860512Y-80975931D01*
X135875499Y-80939748D01*
X135875501Y-80939744D01*
X135898464Y-80824306D01*
X135900500Y-80814071D01*
X135900500Y-74685928D01*
X135875502Y-74560261D01*
X135875501Y-74560260D01*
X135875501Y-74560256D01*
X135826465Y-74441873D01*
X135814212Y-74423535D01*
X135814211Y-74423532D01*
X135755278Y-74335332D01*
X135755272Y-74335325D01*
X132584673Y-71164726D01*
X132584669Y-71164723D01*
X132478127Y-71093535D01*
X132458318Y-71085330D01*
X132359744Y-71044499D01*
X132359738Y-71044497D01*
X132234071Y-71019500D01*
X132234069Y-71019500D01*
X131076683Y-71019500D01*
X131009644Y-70999815D01*
X130975108Y-70966623D01*
X130880045Y-70830858D01*
X130719143Y-70669956D01*
X130694536Y-70652726D01*
X130650912Y-70598149D01*
X130643719Y-70528650D01*
X130675241Y-70466296D01*
X130735471Y-70430882D01*
X130752404Y-70427861D01*
X130787483Y-70424091D01*
X130922331Y-70373796D01*
X131037546Y-70287546D01*
X131123796Y-70172331D01*
X131174091Y-70037483D01*
X131180500Y-69977873D01*
X131180499Y-68282128D01*
X131174091Y-68222517D01*
X131160070Y-68184926D01*
X131123797Y-68087671D01*
X131123793Y-68087664D01*
X131037547Y-67972455D01*
X131037544Y-67972452D01*
X130922335Y-67886206D01*
X130922328Y-67886202D01*
X130787482Y-67835908D01*
X130787483Y-67835908D01*
X130727883Y-67829501D01*
X130727881Y-67829500D01*
X130727873Y-67829500D01*
X130727864Y-67829500D01*
X129032129Y-67829500D01*
X129032123Y-67829501D01*
X128972516Y-67835908D01*
X128837671Y-67886202D01*
X128837664Y-67886206D01*
X128722455Y-67972452D01*
X128722452Y-67972455D01*
X128636206Y-68087664D01*
X128636202Y-68087671D01*
X128585908Y-68222517D01*
X128580489Y-68272925D01*
X128579501Y-68282123D01*
X128579500Y-68282135D01*
X128579500Y-69977870D01*
X128579501Y-69977876D01*
X128585908Y-70037483D01*
X128636202Y-70172328D01*
X128636206Y-70172335D01*
X128722452Y-70287544D01*
X128722455Y-70287547D01*
X128837664Y-70373793D01*
X128837671Y-70373797D01*
X128882618Y-70390561D01*
X128972517Y-70424091D01*
X129007596Y-70427862D01*
X129072144Y-70454599D01*
X129111993Y-70511991D01*
X129114488Y-70581816D01*
X129078836Y-70641905D01*
X129065464Y-70652725D01*
X129040858Y-70669954D01*
X128879954Y-70830858D01*
X128749432Y-71017265D01*
X128749431Y-71017267D01*
X128653261Y-71223502D01*
X128653258Y-71223511D01*
X128594366Y-71443302D01*
X128594364Y-71443313D01*
X128574532Y-71669998D01*
X128574532Y-71670001D01*
X128594364Y-71896686D01*
X128594366Y-71896697D01*
X128653258Y-72116488D01*
X128653261Y-72116497D01*
X128749431Y-72322732D01*
X128749432Y-72322734D01*
X128879954Y-72509141D01*
X129040858Y-72670045D01*
X129040861Y-72670047D01*
X129227266Y-72800568D01*
X129259987Y-72815826D01*
X129285275Y-72827618D01*
X129337714Y-72873791D01*
X129356866Y-72940984D01*
X129336650Y-73007865D01*
X129285275Y-73052382D01*
X129227267Y-73079431D01*
X129227265Y-73079432D01*
X129040858Y-73209954D01*
X128879954Y-73370858D01*
X128749432Y-73557265D01*
X128749431Y-73557267D01*
X128653261Y-73763502D01*
X128653258Y-73763511D01*
X128594366Y-73983302D01*
X128594364Y-73983313D01*
X128574532Y-74209998D01*
X128574532Y-74210001D01*
X128594364Y-74436686D01*
X128594366Y-74436697D01*
X128653258Y-74656488D01*
X128653261Y-74656497D01*
X128749431Y-74862732D01*
X128749432Y-74862734D01*
X128879954Y-75049141D01*
X129040858Y-75210045D01*
X129079831Y-75237334D01*
X129227266Y-75340568D01*
X129285865Y-75367893D01*
X129338305Y-75414065D01*
X129357457Y-75481258D01*
X129337242Y-75548139D01*
X129285867Y-75592657D01*
X129227513Y-75619868D01*
X129227512Y-75619868D01*
X129154526Y-75670973D01*
X129154526Y-75670974D01*
X129833553Y-76350000D01*
X129827339Y-76350000D01*
X129725606Y-76377259D01*
X129634394Y-76429920D01*
X129559920Y-76504394D01*
X129507259Y-76595606D01*
X129480000Y-76697339D01*
X129480000Y-76703552D01*
X128800974Y-76024526D01*
X128800973Y-76024526D01*
X128749868Y-76097512D01*
X128749866Y-76097516D01*
X128653734Y-76303673D01*
X128653730Y-76303682D01*
X128594860Y-76523389D01*
X128594858Y-76523400D01*
X128575034Y-76749997D01*
X128575034Y-76750002D01*
X128594858Y-76976599D01*
X128594860Y-76976610D01*
X128653730Y-77196317D01*
X128653735Y-77196331D01*
X128749863Y-77402478D01*
X128800974Y-77475472D01*
X129480000Y-76796446D01*
X129480000Y-76802661D01*
X129507259Y-76904394D01*
X129559920Y-76995606D01*
X129634394Y-77070080D01*
X129725606Y-77122741D01*
X129827339Y-77150000D01*
X129833553Y-77150000D01*
X129154526Y-77829025D01*
X129157647Y-77864694D01*
X129143880Y-77933194D01*
X129095264Y-77983376D01*
X129034119Y-77999500D01*
X127362230Y-77999500D01*
X127295191Y-77979815D01*
X127274548Y-77963180D01*
X127228421Y-77917052D01*
X127228420Y-77917051D01*
X127190061Y-77891421D01*
X127141409Y-77858913D01*
X127110542Y-77838288D01*
X127105500Y-77834919D01*
X127105488Y-77834912D01*
X126968917Y-77778343D01*
X126968907Y-77778340D01*
X126823920Y-77749500D01*
X126823918Y-77749500D01*
X125809679Y-77749500D01*
X125742640Y-77729815D01*
X125696885Y-77677011D01*
X125686941Y-77607853D01*
X125690603Y-77590905D01*
X125722099Y-77482494D01*
X125722100Y-77482488D01*
X125722295Y-77480001D01*
X125722295Y-77480000D01*
X122777705Y-77480000D01*
X122777704Y-77480001D01*
X122777899Y-77482486D01*
X122823718Y-77640198D01*
X122907314Y-77781552D01*
X122912100Y-77787722D01*
X122909640Y-77789629D01*
X122936210Y-77838288D01*
X122931226Y-77907980D01*
X122910162Y-77940781D01*
X122911699Y-77941974D01*
X122906915Y-77948140D01*
X122823255Y-78089603D01*
X122823254Y-78089606D01*
X122777402Y-78247426D01*
X122777401Y-78247432D01*
X122774500Y-78284298D01*
X122774500Y-78715701D01*
X122777401Y-78752567D01*
X122777402Y-78752573D01*
X122823254Y-78910393D01*
X122823255Y-78910396D01*
X122823256Y-78910398D01*
X122844879Y-78946961D01*
X122906917Y-79051862D01*
X122911702Y-79058031D01*
X122909256Y-79059927D01*
X122935857Y-79108642D01*
X122930873Y-79178334D01*
X122910069Y-79210703D01*
X122911702Y-79211969D01*
X122906917Y-79218137D01*
X122823255Y-79359603D01*
X122823254Y-79359606D01*
X122777402Y-79517426D01*
X122777401Y-79517432D01*
X122774500Y-79554298D01*
X122774500Y-79985701D01*
X122777401Y-80022567D01*
X122777402Y-80022573D01*
X122823254Y-80180393D01*
X122823255Y-80180396D01*
X122823256Y-80180398D01*
X122853711Y-80231895D01*
X122906917Y-80321862D01*
X122911702Y-80328031D01*
X122909256Y-80329927D01*
X122935857Y-80378642D01*
X122930873Y-80448334D01*
X122910069Y-80480703D01*
X122911702Y-80481969D01*
X122906917Y-80488137D01*
X122823255Y-80629603D01*
X122823254Y-80629606D01*
X122777402Y-80787426D01*
X122777401Y-80787432D01*
X122774500Y-80824298D01*
X122774500Y-81255701D01*
X122777401Y-81292567D01*
X122777402Y-81292573D01*
X122823254Y-81450393D01*
X122823255Y-81450396D01*
X122823256Y-81450398D01*
X122851016Y-81497338D01*
X122906917Y-81591862D01*
X122906923Y-81591870D01*
X123023129Y-81708076D01*
X123023133Y-81708079D01*
X123023135Y-81708081D01*
X123164602Y-81791744D01*
X123169194Y-81793078D01*
X123322426Y-81837597D01*
X123322429Y-81837597D01*
X123322431Y-81837598D01*
X123359306Y-81840500D01*
X123359314Y-81840500D01*
X125140686Y-81840500D01*
X125140694Y-81840500D01*
X125177569Y-81837598D01*
X125177571Y-81837597D01*
X125177573Y-81837597D01*
X125269573Y-81810868D01*
X125335398Y-81791744D01*
X125474454Y-81709507D01*
X125483580Y-81704110D01*
X125484857Y-81706269D01*
X125538423Y-81685223D01*
X125606943Y-81698887D01*
X125615388Y-81703741D01*
X125650476Y-81725788D01*
X125650478Y-81725789D01*
X125789826Y-81774549D01*
X125820745Y-81785368D01*
X125820750Y-81785369D01*
X125999996Y-81805565D01*
X126000000Y-81805565D01*
X126000004Y-81805565D01*
X126179249Y-81785369D01*
X126179252Y-81785368D01*
X126179255Y-81785368D01*
X126349522Y-81725789D01*
X126356990Y-81721097D01*
X126376165Y-81709047D01*
X126409527Y-81688084D01*
X126476763Y-81669084D01*
X126543599Y-81689451D01*
X126588813Y-81742718D01*
X126599500Y-81793078D01*
X126599500Y-82725500D01*
X126579815Y-82792539D01*
X126527011Y-82838294D01*
X126475500Y-82849500D01*
X123320808Y-82849500D01*
X123253769Y-82829815D01*
X123233127Y-82813181D01*
X122186819Y-81766873D01*
X122153334Y-81705550D01*
X122150500Y-81679192D01*
X122150500Y-79935928D01*
X122125502Y-79810261D01*
X122125501Y-79810260D01*
X122125501Y-79810256D01*
X122076465Y-79691873D01*
X122074480Y-79688902D01*
X122072497Y-79685933D01*
X122005276Y-79585329D01*
X121664673Y-79244726D01*
X121664669Y-79244723D01*
X121558127Y-79173535D01*
X121542461Y-79167046D01*
X121439744Y-79124499D01*
X121439736Y-79124497D01*
X121314073Y-79099501D01*
X121314069Y-79099501D01*
X121185931Y-79099501D01*
X121185927Y-79099501D01*
X121097368Y-79117117D01*
X121073177Y-79119500D01*
X120820476Y-79119500D01*
X120753437Y-79099815D01*
X120707682Y-79047011D01*
X120697738Y-78977853D01*
X120713742Y-78932382D01*
X120726744Y-78910398D01*
X120729760Y-78900019D01*
X120772597Y-78752573D01*
X120772598Y-78752567D01*
X120773021Y-78747190D01*
X120775500Y-78715694D01*
X120775500Y-78284306D01*
X120772598Y-78247431D01*
X120772249Y-78246230D01*
X120726745Y-78089606D01*
X120726744Y-78089603D01*
X120726744Y-78089602D01*
X120643081Y-77948135D01*
X120643078Y-77948132D01*
X120638298Y-77941969D01*
X120640750Y-77940066D01*
X120614155Y-77891421D01*
X120619104Y-77821726D01*
X120639940Y-77789304D01*
X120638298Y-77788031D01*
X120643075Y-77781870D01*
X120643081Y-77781865D01*
X120726744Y-77640398D01*
X120772598Y-77482569D01*
X120775500Y-77445694D01*
X120775500Y-77014306D01*
X120772800Y-76979998D01*
X122777704Y-76979998D01*
X122777705Y-76980000D01*
X124000000Y-76980000D01*
X124000000Y-76430000D01*
X123372391Y-76430000D01*
X123305352Y-76410315D01*
X123283121Y-76384659D01*
X123271371Y-76419361D01*
X123216741Y-76462919D01*
X123204482Y-76467189D01*
X123164802Y-76478717D01*
X123023447Y-76562314D01*
X123023438Y-76562321D01*
X122907321Y-76678438D01*
X122907314Y-76678447D01*
X122823718Y-76819801D01*
X122777899Y-76977513D01*
X122777704Y-76979998D01*
X120772800Y-76979998D01*
X120772598Y-76977431D01*
X120772383Y-76976692D01*
X120726745Y-76819606D01*
X120726744Y-76819603D01*
X120726744Y-76819602D01*
X120643081Y-76678135D01*
X120643079Y-76678133D01*
X120643076Y-76678129D01*
X120526870Y-76561923D01*
X120526862Y-76561917D01*
X120429595Y-76504394D01*
X120385398Y-76478256D01*
X120385397Y-76478255D01*
X120385396Y-76478255D01*
X120385393Y-76478253D01*
X120239905Y-76435985D01*
X120181019Y-76398379D01*
X120151813Y-76334906D01*
X120150500Y-76316909D01*
X120150500Y-76024500D01*
X120170185Y-75957461D01*
X120222989Y-75911706D01*
X120274500Y-75900500D01*
X121913132Y-75900500D01*
X121980171Y-75920185D01*
X122001346Y-75939383D01*
X122002181Y-75938549D01*
X122007288Y-75943656D01*
X122131344Y-76067712D01*
X122280666Y-76159814D01*
X122447203Y-76214999D01*
X122549991Y-76225500D01*
X123150008Y-76225499D01*
X123157274Y-76224756D01*
X123225964Y-76237519D01*
X123258772Y-76268384D01*
X123278678Y-76224797D01*
X123333387Y-76188294D01*
X123419334Y-76159814D01*
X123568656Y-76067712D01*
X123692712Y-75943656D01*
X123694752Y-75940347D01*
X123696745Y-75938555D01*
X123697193Y-75937989D01*
X123697289Y-75938065D01*
X123746694Y-75893623D01*
X123815656Y-75882395D01*
X123879740Y-75910234D01*
X123905829Y-75940339D01*
X123907681Y-75943341D01*
X123907683Y-75943344D01*
X124031654Y-76067315D01*
X124180875Y-76159356D01*
X124180880Y-76159358D01*
X124347302Y-76214505D01*
X124347310Y-76214506D01*
X124421768Y-76222113D01*
X124486460Y-76248509D01*
X124526611Y-76305689D01*
X124529475Y-76375500D01*
X124500000Y-76427583D01*
X124500000Y-76980000D01*
X125722295Y-76980000D01*
X125722295Y-76979998D01*
X125722100Y-76977513D01*
X125676281Y-76819801D01*
X125592685Y-76678447D01*
X125592678Y-76678438D01*
X125476561Y-76562321D01*
X125476552Y-76562314D01*
X125335196Y-76478717D01*
X125335193Y-76478716D01*
X125196197Y-76438334D01*
X125137311Y-76400728D01*
X125108105Y-76337256D01*
X125117851Y-76268069D01*
X125163455Y-76215135D01*
X125191788Y-76201552D01*
X125319119Y-76159358D01*
X125319124Y-76159356D01*
X125468345Y-76067315D01*
X125592315Y-75943345D01*
X125684356Y-75794124D01*
X125684358Y-75794119D01*
X125739505Y-75627697D01*
X125739506Y-75627690D01*
X125749999Y-75524986D01*
X125750000Y-75524973D01*
X125750000Y-75250000D01*
X124624000Y-75250000D01*
X124556961Y-75230315D01*
X124511206Y-75177511D01*
X124500000Y-75126000D01*
X124500000Y-73775000D01*
X125000000Y-73775000D01*
X125000000Y-74750000D01*
X125749999Y-74750000D01*
X125749999Y-74475028D01*
X125749998Y-74475013D01*
X125739505Y-74372302D01*
X125684358Y-74205880D01*
X125684356Y-74205875D01*
X125592315Y-74056654D01*
X125468345Y-73932684D01*
X125319124Y-73840643D01*
X125319119Y-73840641D01*
X125152697Y-73785494D01*
X125152690Y-73785493D01*
X125049986Y-73775000D01*
X125000000Y-73775000D01*
X124500000Y-73775000D01*
X124500000Y-73774999D01*
X124471392Y-73746391D01*
X124437907Y-73685068D01*
X124442891Y-73615376D01*
X124484763Y-73559443D01*
X124500057Y-73549655D01*
X124573224Y-73510060D01*
X124573231Y-73510055D01*
X124620056Y-73473609D01*
X123920234Y-72773787D01*
X123962292Y-72762518D01*
X124087708Y-72690110D01*
X124190110Y-72587708D01*
X124262518Y-72462292D01*
X124273787Y-72420235D01*
X124973434Y-73119882D01*
X125073731Y-72966369D01*
X125173587Y-72738717D01*
X125234612Y-72497738D01*
X125234614Y-72497729D01*
X125255141Y-72250005D01*
X125255141Y-72249994D01*
X125234614Y-72002270D01*
X125234612Y-72002261D01*
X125173587Y-71761282D01*
X125073731Y-71533630D01*
X124973434Y-71380116D01*
X124273787Y-72079764D01*
X124262518Y-72037708D01*
X124190110Y-71912292D01*
X124087708Y-71809890D01*
X123962292Y-71737482D01*
X123920235Y-71726212D01*
X124620057Y-71026390D01*
X124620056Y-71026389D01*
X124573229Y-70989943D01*
X124354614Y-70871635D01*
X124354603Y-70871630D01*
X124119493Y-70790916D01*
X123874293Y-70750000D01*
X123625707Y-70750000D01*
X123380506Y-70790916D01*
X123145396Y-70871630D01*
X123145390Y-70871632D01*
X122926761Y-70989949D01*
X122879942Y-71026388D01*
X122879942Y-71026390D01*
X123579765Y-71726212D01*
X123537708Y-71737482D01*
X123412292Y-71809890D01*
X123309890Y-71912292D01*
X123237482Y-72037708D01*
X123226212Y-72079764D01*
X122526564Y-71380116D01*
X122426267Y-71533632D01*
X122326412Y-71761282D01*
X122265387Y-72002261D01*
X122265385Y-72002270D01*
X122244859Y-72249994D01*
X122244859Y-72250005D01*
X122265385Y-72497729D01*
X122265387Y-72497738D01*
X122326412Y-72738717D01*
X122426266Y-72966364D01*
X122526564Y-73119882D01*
X123226212Y-72420234D01*
X123237482Y-72462292D01*
X123309890Y-72587708D01*
X123412292Y-72690110D01*
X123537708Y-72762518D01*
X123579765Y-72773787D01*
X122879942Y-73473609D01*
X122926767Y-73510054D01*
X122984772Y-73541445D01*
X123034362Y-73590665D01*
X123049470Y-73658881D01*
X123025300Y-73724437D01*
X122969524Y-73766518D01*
X122925754Y-73774500D01*
X122549998Y-73774500D01*
X122549980Y-73774501D01*
X122447203Y-73785000D01*
X122447200Y-73785001D01*
X122280668Y-73840185D01*
X122280663Y-73840187D01*
X122131342Y-73932289D01*
X122002181Y-74061451D01*
X122000294Y-74059564D01*
X121953375Y-74092788D01*
X121913132Y-74099500D01*
X119661303Y-74099500D01*
X119487341Y-74134103D01*
X119487333Y-74134105D01*
X119392143Y-74173535D01*
X119392142Y-74173535D01*
X119323459Y-74201983D01*
X119323447Y-74201990D01*
X119215363Y-74274211D01*
X119215362Y-74274211D01*
X119175969Y-74300532D01*
X119175961Y-74300538D01*
X118550533Y-74925966D01*
X118541330Y-74939742D01*
X118541329Y-74939744D01*
X118451985Y-75073455D01*
X118418046Y-75155393D01*
X118384106Y-75237330D01*
X118384103Y-75237342D01*
X118354749Y-75384917D01*
X118354749Y-75384919D01*
X118350253Y-75407520D01*
X118317867Y-75469431D01*
X118257151Y-75504004D01*
X118187381Y-75500263D01*
X118140955Y-75471008D01*
X117571722Y-74901776D01*
X117538237Y-74840453D01*
X117536182Y-74827973D01*
X117535368Y-74820745D01*
X117475789Y-74650478D01*
X117379816Y-74497738D01*
X117252262Y-74370184D01*
X117099523Y-74274211D01*
X116929254Y-74214631D01*
X116929249Y-74214630D01*
X116750004Y-74194435D01*
X116749996Y-74194435D01*
X116570750Y-74214630D01*
X116570745Y-74214631D01*
X116400476Y-74274211D01*
X116247737Y-74370184D01*
X116120184Y-74497737D01*
X116024211Y-74650476D01*
X115964631Y-74820745D01*
X115964630Y-74820750D01*
X115944435Y-74999996D01*
X115944435Y-75000000D01*
X115964630Y-75179249D01*
X115964631Y-75179254D01*
X116024211Y-75349523D01*
X116061438Y-75408769D01*
X116120184Y-75502262D01*
X116247738Y-75629816D01*
X116400478Y-75725789D01*
X116570745Y-75785368D01*
X116577974Y-75786182D01*
X116642388Y-75813246D01*
X116651776Y-75821722D01*
X117063181Y-76233127D01*
X117096666Y-76294450D01*
X117099500Y-76320808D01*
X117099500Y-78179191D01*
X117079815Y-78246230D01*
X117063181Y-78266872D01*
X115494727Y-79835325D01*
X115494724Y-79835328D01*
X115451193Y-79900477D01*
X115451194Y-79900478D01*
X115423534Y-79941874D01*
X115374499Y-80060255D01*
X115374497Y-80060261D01*
X115349500Y-80185928D01*
X115349500Y-82175500D01*
X115329815Y-82242539D01*
X115277011Y-82288294D01*
X115225500Y-82299500D01*
X114687498Y-82299500D01*
X114687480Y-82299501D01*
X114584703Y-82310000D01*
X114584700Y-82310001D01*
X114418168Y-82365185D01*
X114418163Y-82365187D01*
X114268842Y-82457289D01*
X114175181Y-82550951D01*
X114113858Y-82584436D01*
X114044166Y-82579452D01*
X113999819Y-82550951D01*
X113906156Y-82457288D01*
X113884400Y-82443868D01*
X113837677Y-82391918D01*
X113825500Y-82338331D01*
X113825500Y-79014000D01*
X113845185Y-78946961D01*
X113897989Y-78901206D01*
X113949500Y-78890000D01*
X114270000Y-78890000D01*
X114270000Y-78005865D01*
X114272383Y-77981671D01*
X114272753Y-77979815D01*
X114275500Y-77966003D01*
X114275500Y-77925830D01*
X114289745Y-77940075D01*
X114375255Y-77989444D01*
X114470630Y-78015000D01*
X114569370Y-78015000D01*
X114664745Y-77989444D01*
X114750255Y-77940075D01*
X114770000Y-77920330D01*
X114770000Y-78890000D01*
X115092828Y-78890000D01*
X115092844Y-78889999D01*
X115152372Y-78883598D01*
X115152379Y-78883596D01*
X115287086Y-78833354D01*
X115287093Y-78833350D01*
X115402187Y-78747190D01*
X115402190Y-78747187D01*
X115488350Y-78632093D01*
X115488354Y-78632086D01*
X115538596Y-78497379D01*
X115538598Y-78497372D01*
X115544999Y-78437844D01*
X115545000Y-78437827D01*
X115545000Y-77890000D01*
X114800330Y-77890000D01*
X114820075Y-77870255D01*
X114869444Y-77784745D01*
X114895000Y-77689370D01*
X114895000Y-77590630D01*
X114869444Y-77495255D01*
X114820075Y-77409745D01*
X114800330Y-77390000D01*
X115545000Y-77390000D01*
X115545000Y-76842172D01*
X115544999Y-76842155D01*
X115538598Y-76782627D01*
X115538596Y-76782620D01*
X115488354Y-76647913D01*
X115488350Y-76647906D01*
X115402190Y-76532812D01*
X115402187Y-76532809D01*
X115287093Y-76446649D01*
X115287086Y-76446645D01*
X115152379Y-76396403D01*
X115152372Y-76396401D01*
X115092844Y-76390000D01*
X114770000Y-76390000D01*
X114770000Y-77359670D01*
X114750255Y-77339925D01*
X114664745Y-77290556D01*
X114569370Y-77265000D01*
X114470630Y-77265000D01*
X114375255Y-77290556D01*
X114289745Y-77339925D01*
X114275500Y-77354170D01*
X114275500Y-77313997D01*
X114272383Y-77298326D01*
X114270000Y-77274134D01*
X114270000Y-76390000D01*
X113947155Y-76390000D01*
X113887627Y-76396401D01*
X113887620Y-76396403D01*
X113752913Y-76446645D01*
X113752911Y-76446646D01*
X113752092Y-76447260D01*
X113751134Y-76447616D01*
X113745132Y-76450895D01*
X113744660Y-76450031D01*
X113686625Y-76471671D01*
X113630338Y-76462547D01*
X113549131Y-76428910D01*
X113549119Y-76428907D01*
X113351007Y-76389500D01*
X113351003Y-76389500D01*
X113148997Y-76389500D01*
X113148992Y-76389500D01*
X112950880Y-76428907D01*
X112950872Y-76428909D01*
X112764244Y-76506213D01*
X112683891Y-76559904D01*
X112617213Y-76580782D01*
X112549833Y-76562297D01*
X112546109Y-76559904D01*
X112465755Y-76506213D01*
X112279127Y-76428909D01*
X112279119Y-76428907D01*
X112081007Y-76389500D01*
X112081003Y-76389500D01*
X111878997Y-76389500D01*
X111878992Y-76389500D01*
X111680880Y-76428907D01*
X111680872Y-76428909D01*
X111494247Y-76506212D01*
X111494237Y-76506217D01*
X111326281Y-76618441D01*
X111183443Y-76761279D01*
X111157711Y-76799790D01*
X111134591Y-76834391D01*
X111080982Y-76879195D01*
X111031491Y-76889500D01*
X111002229Y-76889500D01*
X110935190Y-76869815D01*
X110914553Y-76853185D01*
X110786817Y-76725449D01*
X110753334Y-76664128D01*
X110750500Y-76637770D01*
X110750500Y-76176079D01*
X110721659Y-76031092D01*
X110721658Y-76031091D01*
X110721658Y-76031087D01*
X110721656Y-76031082D01*
X110665087Y-75894511D01*
X110665080Y-75894498D01*
X110582952Y-75771585D01*
X110537155Y-75725788D01*
X110478416Y-75667049D01*
X109428416Y-74617048D01*
X109428415Y-74617047D01*
X109428413Y-74617045D01*
X109382099Y-74586101D01*
X109351222Y-74565470D01*
X109305495Y-74534916D01*
X109305494Y-74534915D01*
X109305492Y-74534914D01*
X109305490Y-74534913D01*
X109168917Y-74478343D01*
X109168907Y-74478340D01*
X109023920Y-74449500D01*
X109023918Y-74449500D01*
X108676874Y-74449500D01*
X108609835Y-74429815D01*
X108589193Y-74413181D01*
X108578044Y-74402032D01*
X108578040Y-74402029D01*
X108433705Y-74313001D01*
X108433699Y-74312998D01*
X108433697Y-74312997D01*
X108316648Y-74274211D01*
X108272709Y-74259651D01*
X108173346Y-74249500D01*
X107326662Y-74249500D01*
X107326644Y-74249501D01*
X107227292Y-74259650D01*
X107227289Y-74259651D01*
X107066305Y-74312996D01*
X107066294Y-74313001D01*
X106921959Y-74402029D01*
X106921955Y-74402032D01*
X106910807Y-74413181D01*
X106849484Y-74446666D01*
X106823126Y-74449500D01*
X103976076Y-74449500D01*
X103947242Y-74455234D01*
X103947243Y-74455235D01*
X103831093Y-74478339D01*
X103831083Y-74478342D01*
X103751081Y-74511479D01*
X103751082Y-74511480D01*
X103694505Y-74534915D01*
X103612372Y-74589795D01*
X103571585Y-74617047D01*
X103571581Y-74617050D01*
X102808351Y-75380279D01*
X102747028Y-75413764D01*
X102740070Y-75415071D01*
X102667301Y-75426597D01*
X102502552Y-75480128D01*
X102348211Y-75558768D01*
X102311651Y-75585331D01*
X102208072Y-75660586D01*
X102208070Y-75660588D01*
X102208069Y-75660588D01*
X102085588Y-75783069D01*
X102085588Y-75783070D01*
X102085586Y-75783072D01*
X102057505Y-75821722D01*
X101983768Y-75923211D01*
X101905128Y-76077552D01*
X101851597Y-76242302D01*
X101847298Y-76269446D01*
X101824500Y-76413389D01*
X101824500Y-76586611D01*
X101829541Y-76618441D01*
X101850378Y-76750002D01*
X101851598Y-76757701D01*
X101905127Y-76922445D01*
X101983768Y-77076788D01*
X102085586Y-77216928D01*
X102085588Y-77216930D01*
X102193127Y-77324469D01*
X102226612Y-77385792D01*
X102221628Y-77455484D01*
X102179756Y-77511417D01*
X102170544Y-77517688D01*
X102106344Y-77557287D01*
X101982289Y-77681342D01*
X101890187Y-77830663D01*
X101890185Y-77830668D01*
X101887660Y-77838288D01*
X101835001Y-77997203D01*
X101835001Y-77997204D01*
X101835000Y-77997204D01*
X101824500Y-78099983D01*
X101824500Y-78900001D01*
X100500500Y-78900001D01*
X100500500Y-68750002D01*
X101695034Y-68750002D01*
X101714858Y-68976599D01*
X101714860Y-68976610D01*
X101773730Y-69196317D01*
X101773735Y-69196331D01*
X101869863Y-69402478D01*
X101920974Y-69475472D01*
X102600000Y-68796446D01*
X102600000Y-68802661D01*
X102627259Y-68904394D01*
X102679920Y-68995606D01*
X102754394Y-69070080D01*
X102845606Y-69122741D01*
X102947339Y-69150000D01*
X102953553Y-69150000D01*
X102274526Y-69829025D01*
X102347513Y-69880132D01*
X102347521Y-69880136D01*
X102553668Y-69976264D01*
X102553682Y-69976269D01*
X102773389Y-70035139D01*
X102773400Y-70035141D01*
X102999998Y-70054966D01*
X103000002Y-70054966D01*
X103226599Y-70035141D01*
X103226610Y-70035139D01*
X103446317Y-69976269D01*
X103446331Y-69976264D01*
X103652478Y-69880136D01*
X103725471Y-69829024D01*
X103046447Y-69150000D01*
X103052661Y-69150000D01*
X103154394Y-69122741D01*
X103245606Y-69070080D01*
X103320080Y-68995606D01*
X103372741Y-68904394D01*
X103400000Y-68802661D01*
X103400000Y-68796447D01*
X104084197Y-69480644D01*
X104133192Y-69490491D01*
X104183375Y-69539106D01*
X104198049Y-69594632D01*
X104199099Y-69594576D01*
X104199146Y-69594571D01*
X104199146Y-69594573D01*
X104199324Y-69594564D01*
X104199501Y-69597876D01*
X104205908Y-69657483D01*
X104256202Y-69792328D01*
X104256206Y-69792335D01*
X104342452Y-69907544D01*
X104342455Y-69907547D01*
X104457664Y-69993793D01*
X104457671Y-69993797D01*
X104592517Y-70044091D01*
X104592516Y-70044091D01*
X104599444Y-70044835D01*
X104652127Y-70050500D01*
X106347872Y-70050499D01*
X106407483Y-70044091D01*
X106542331Y-69993796D01*
X106657546Y-69907546D01*
X106743796Y-69792331D01*
X106794091Y-69657483D01*
X106800500Y-69597873D01*
X106800499Y-68005815D01*
X109762500Y-68005815D01*
X109772907Y-68107673D01*
X109827594Y-68272709D01*
X109827596Y-68272714D01*
X109918870Y-68420691D01*
X110041808Y-68543629D01*
X110191060Y-68635689D01*
X110237784Y-68687637D01*
X110249006Y-68756600D01*
X110221163Y-68820682D01*
X110213648Y-68828905D01*
X110207227Y-68835325D01*
X110207222Y-68835332D01*
X110140003Y-68935933D01*
X110136036Y-68941871D01*
X110086999Y-69060255D01*
X110086997Y-69060261D01*
X110062000Y-69185928D01*
X110062000Y-70162770D01*
X110042315Y-70229809D01*
X110025681Y-70250451D01*
X109944789Y-70331342D01*
X109852687Y-70480663D01*
X109852685Y-70480668D01*
X109842306Y-70511991D01*
X109797501Y-70647203D01*
X109797501Y-70647204D01*
X109797500Y-70647204D01*
X109787000Y-70749983D01*
X109787000Y-71750001D01*
X109787001Y-71750019D01*
X109797500Y-71852796D01*
X109797501Y-71852799D01*
X109852685Y-72019331D01*
X109852687Y-72019336D01*
X109885431Y-72072422D01*
X109944788Y-72168656D01*
X110068844Y-72292712D01*
X110218166Y-72384814D01*
X110384703Y-72439999D01*
X110487491Y-72450500D01*
X111112508Y-72450499D01*
X111112516Y-72450498D01*
X111112519Y-72450498D01*
X111185987Y-72442993D01*
X111215297Y-72439999D01*
X111381834Y-72384814D01*
X111531156Y-72292712D01*
X111624819Y-72199049D01*
X111686142Y-72165564D01*
X111755834Y-72170548D01*
X111800181Y-72199049D01*
X111893844Y-72292712D01*
X112043166Y-72384814D01*
X112209703Y-72439999D01*
X112312491Y-72450500D01*
X112884082Y-72450499D01*
X112951121Y-72470183D01*
X112996876Y-72522987D01*
X113001123Y-72533543D01*
X113024211Y-72599522D01*
X113024212Y-72599524D01*
X113068525Y-72670047D01*
X113120184Y-72752262D01*
X113247738Y-72879816D01*
X113274671Y-72896739D01*
X113348283Y-72942993D01*
X113400478Y-72975789D01*
X113492146Y-73007865D01*
X113570745Y-73035368D01*
X113570750Y-73035369D01*
X113749996Y-73055565D01*
X113750000Y-73055565D01*
X113750004Y-73055565D01*
X113929249Y-73035369D01*
X113929252Y-73035368D01*
X113929255Y-73035368D01*
X114099522Y-72975789D01*
X114252262Y-72879816D01*
X114379816Y-72752262D01*
X114475789Y-72599522D01*
X114535368Y-72429255D01*
X114535369Y-72429249D01*
X114555565Y-72250005D01*
X115744859Y-72250005D01*
X115765385Y-72497729D01*
X115765387Y-72497738D01*
X115826412Y-72738717D01*
X115926266Y-72966364D01*
X116026564Y-73119882D01*
X116726212Y-72420234D01*
X116737482Y-72462292D01*
X116809890Y-72587708D01*
X116912292Y-72690110D01*
X117037708Y-72762518D01*
X117079765Y-72773787D01*
X116379942Y-73473609D01*
X116426768Y-73510055D01*
X116426770Y-73510056D01*
X116645385Y-73628364D01*
X116645396Y-73628369D01*
X116880506Y-73709083D01*
X117125707Y-73750000D01*
X117374293Y-73750000D01*
X117619493Y-73709083D01*
X117854603Y-73628369D01*
X117854614Y-73628364D01*
X118073228Y-73510057D01*
X118073231Y-73510055D01*
X118120056Y-73473609D01*
X117420234Y-72773787D01*
X117462292Y-72762518D01*
X117587708Y-72690110D01*
X117690110Y-72587708D01*
X117762518Y-72462292D01*
X117773787Y-72420234D01*
X118473434Y-73119882D01*
X118573731Y-72966369D01*
X118673587Y-72738717D01*
X118734612Y-72497738D01*
X118734614Y-72497729D01*
X118755141Y-72250005D01*
X118755141Y-72249994D01*
X118734614Y-72002270D01*
X118734612Y-72002261D01*
X118673587Y-71761282D01*
X118573731Y-71533630D01*
X118473434Y-71380116D01*
X117773787Y-72079764D01*
X117762518Y-72037708D01*
X117690110Y-71912292D01*
X117587708Y-71809890D01*
X117462292Y-71737482D01*
X117420235Y-71726212D01*
X118120057Y-71026390D01*
X118120056Y-71026389D01*
X118073229Y-70989943D01*
X117854614Y-70871635D01*
X117854603Y-70871630D01*
X117619493Y-70790916D01*
X117374293Y-70750000D01*
X117125707Y-70750000D01*
X116880506Y-70790916D01*
X116645396Y-70871630D01*
X116645390Y-70871632D01*
X116426761Y-70989949D01*
X116379942Y-71026388D01*
X116379942Y-71026390D01*
X117079765Y-71726212D01*
X117037708Y-71737482D01*
X116912292Y-71809890D01*
X116809890Y-71912292D01*
X116737482Y-72037708D01*
X116726212Y-72079764D01*
X116026564Y-71380116D01*
X115926267Y-71533632D01*
X115826412Y-71761282D01*
X115765387Y-72002261D01*
X115765385Y-72002270D01*
X115744859Y-72249994D01*
X115744859Y-72250005D01*
X114555565Y-72250005D01*
X114555565Y-72250003D01*
X114555565Y-72249996D01*
X114535369Y-72070750D01*
X114535366Y-72070737D01*
X114475790Y-71900481D01*
X114475789Y-71900478D01*
X114445829Y-71852797D01*
X114419506Y-71810903D01*
X114400500Y-71744931D01*
X114400500Y-71435928D01*
X114375502Y-71310261D01*
X114375501Y-71310260D01*
X114375501Y-71310256D01*
X114326465Y-71191873D01*
X114324480Y-71188902D01*
X114322497Y-71185933D01*
X114255276Y-71085329D01*
X113914673Y-70744726D01*
X113859030Y-70707547D01*
X113808127Y-70673535D01*
X113799480Y-70669953D01*
X113689742Y-70624498D01*
X113685854Y-70623725D01*
X113684005Y-70622757D01*
X113683910Y-70622729D01*
X113683915Y-70622710D01*
X113623944Y-70591338D01*
X113592343Y-70541111D01*
X113591786Y-70539431D01*
X113572314Y-70480666D01*
X113480212Y-70331344D01*
X113356156Y-70207288D01*
X113230928Y-70130047D01*
X113206836Y-70115187D01*
X113206831Y-70115185D01*
X113188000Y-70108945D01*
X113040297Y-70060001D01*
X113040295Y-70060000D01*
X112937510Y-70049500D01*
X112312498Y-70049500D01*
X112312480Y-70049501D01*
X112209703Y-70060000D01*
X112209700Y-70060001D01*
X112043168Y-70115185D01*
X112043163Y-70115187D01*
X111893842Y-70207289D01*
X111800181Y-70300951D01*
X111738858Y-70334436D01*
X111669166Y-70329452D01*
X111624819Y-70300951D01*
X111531157Y-70207289D01*
X111531156Y-70207288D01*
X111421902Y-70139900D01*
X111375179Y-70087953D01*
X111363000Y-70034362D01*
X111363000Y-69570808D01*
X111382685Y-69503769D01*
X111399319Y-69483127D01*
X111445627Y-69436819D01*
X111506950Y-69403334D01*
X111533308Y-69400500D01*
X112526571Y-69400500D01*
X112611115Y-69383682D01*
X112652244Y-69375501D01*
X112770627Y-69326465D01*
X112798072Y-69308127D01*
X112877169Y-69255277D01*
X113217776Y-68914670D01*
X113255816Y-68857738D01*
X113288964Y-68808129D01*
X113291229Y-68802661D01*
X113338001Y-68689744D01*
X113339752Y-68680941D01*
X113346006Y-68649500D01*
X113363000Y-68564070D01*
X113363597Y-68558009D01*
X113365266Y-68558173D01*
X113382685Y-68498852D01*
X113399319Y-68478210D01*
X113415215Y-68462314D01*
X113456526Y-68421003D01*
X113547862Y-68272925D01*
X113602587Y-68107775D01*
X113613000Y-68005848D01*
X113613000Y-66994152D01*
X113602587Y-66892225D01*
X113547862Y-66727075D01*
X113547858Y-66727069D01*
X113547857Y-66727066D01*
X113456528Y-66579000D01*
X113456525Y-66578996D01*
X113333503Y-66455974D01*
X113333499Y-66455971D01*
X113185433Y-66364642D01*
X113185427Y-66364639D01*
X113185425Y-66364638D01*
X113185422Y-66364637D01*
X113020276Y-66309913D01*
X112918355Y-66299500D01*
X112918348Y-66299500D01*
X112331652Y-66299500D01*
X112331644Y-66299500D01*
X112229723Y-66309913D01*
X112064577Y-66364637D01*
X112064566Y-66364642D01*
X111916500Y-66455971D01*
X111916496Y-66455974D01*
X111793474Y-66578996D01*
X111793467Y-66579005D01*
X111792734Y-66580194D01*
X111792019Y-66580836D01*
X111788993Y-66584664D01*
X111788338Y-66584146D01*
X111740780Y-66626911D01*
X111671816Y-66638123D01*
X111607738Y-66610271D01*
X111585738Y-66584877D01*
X111585612Y-66584977D01*
X111583385Y-66582161D01*
X111581663Y-66580173D01*
X111581130Y-66579309D01*
X111458191Y-66456370D01*
X111310214Y-66365096D01*
X111310209Y-66365094D01*
X111145173Y-66310407D01*
X111043315Y-66300000D01*
X111000000Y-66300000D01*
X111000000Y-67626000D01*
X110980315Y-67693039D01*
X110927511Y-67738794D01*
X110876000Y-67750000D01*
X109762500Y-67750000D01*
X109762500Y-68005815D01*
X106800499Y-68005815D01*
X106800499Y-67902128D01*
X106794091Y-67842517D01*
X106791626Y-67835909D01*
X106743797Y-67707671D01*
X106743793Y-67707664D01*
X106657547Y-67592455D01*
X106657544Y-67592452D01*
X106542335Y-67506206D01*
X106542328Y-67506202D01*
X106407482Y-67455908D01*
X106407483Y-67455908D01*
X106347883Y-67449501D01*
X106347881Y-67449500D01*
X106347873Y-67449500D01*
X106347864Y-67449500D01*
X104652129Y-67449500D01*
X104652123Y-67449501D01*
X104592516Y-67455908D01*
X104457671Y-67506202D01*
X104457664Y-67506206D01*
X104342455Y-67592452D01*
X104342452Y-67592455D01*
X104256206Y-67707664D01*
X104256202Y-67707671D01*
X104205908Y-67842517D01*
X104199501Y-67902116D01*
X104199501Y-67902123D01*
X104199322Y-67905452D01*
X104197847Y-67905372D01*
X104179815Y-67966784D01*
X104127011Y-68012539D01*
X104083522Y-68020029D01*
X103400000Y-68703551D01*
X103400000Y-68697339D01*
X103372741Y-68595606D01*
X103320080Y-68504394D01*
X103245606Y-68429920D01*
X103154394Y-68377259D01*
X103052661Y-68350000D01*
X103046448Y-68350000D01*
X103725472Y-67670974D01*
X103652478Y-67619863D01*
X103446331Y-67523735D01*
X103446317Y-67523730D01*
X103226610Y-67464860D01*
X103226599Y-67464858D01*
X103000002Y-67445034D01*
X102999998Y-67445034D01*
X102773400Y-67464858D01*
X102773389Y-67464860D01*
X102553682Y-67523730D01*
X102553673Y-67523734D01*
X102347516Y-67619866D01*
X102347512Y-67619868D01*
X102274526Y-67670973D01*
X102274526Y-67670974D01*
X102953553Y-68350000D01*
X102947339Y-68350000D01*
X102845606Y-68377259D01*
X102754394Y-68429920D01*
X102679920Y-68504394D01*
X102627259Y-68595606D01*
X102600000Y-68697339D01*
X102600000Y-68703552D01*
X101920974Y-68024526D01*
X101920973Y-68024526D01*
X101869868Y-68097512D01*
X101869866Y-68097516D01*
X101773734Y-68303673D01*
X101773730Y-68303682D01*
X101714860Y-68523389D01*
X101714858Y-68523400D01*
X101695034Y-68749997D01*
X101695034Y-68750002D01*
X100500500Y-68750002D01*
X100500500Y-67250000D01*
X109762500Y-67250000D01*
X110500000Y-67250000D01*
X110500000Y-66300000D01*
X110456684Y-66300000D01*
X110354826Y-66310407D01*
X110189790Y-66365094D01*
X110189785Y-66365096D01*
X110041808Y-66456370D01*
X109918870Y-66579308D01*
X109827596Y-66727285D01*
X109827594Y-66727290D01*
X109772907Y-66892326D01*
X109762500Y-66994184D01*
X109762500Y-67250000D01*
X100500500Y-67250000D01*
X100500500Y-66258676D01*
X100520185Y-66191637D01*
X100536819Y-66170995D01*
X101170995Y-65536819D01*
X101232318Y-65503334D01*
X101258676Y-65500500D01*
X124780193Y-65500500D01*
X124847232Y-65520185D01*
G37*
%TD.AperFunction*%
%TD*%
M02*
